<?xml version="1.0" encoding="UTF-8" standalone="no"?>
<!DOCTYPE svg PUBLIC "-//W3C//DTD SVG 1.1//EN"
 "http://www.w3.org/Graphics/SVG/1.1/DTD/svg11.dtd">
<!-- Generated by graphviz version 2.40.1 (20161225.0304)
 -->
<!-- Title: G Pages: 1 -->
<svg width="951pt" height="448pt"
 viewBox="0.00 0.00 951.49 447.64" xmlns="http://www.w3.org/2000/svg" xmlns:xlink="http://www.w3.org/1999/xlink">
<g id="graph0" class="graph" transform="scale(1 1) rotate(0) translate(4 443.6361)">
<title>G</title>
<polygon fill="#ffffff" stroke="transparent" points="-4,4 -4,-443.6361 947.4853,-443.6361 947.4853,4 -4,4"/>
<text text-anchor="start" x="336.7426" y="-49.3" font-family="Times,serif" font-size="14.00" fill="#0000ff">condition</text>
<text text-anchor="start" x="432.7426" y="-49.3" font-family="Times,serif" font-size="14.00" fill="#00ff00">true&#45;branch</text>
<text text-anchor="start" x="539.7426" y="-49.3" font-family="Times,serif" font-size="14.00" fill="#ff0000">false&#45;branch</text>
<!-- calc(result) -->
<g id="node1" class="node">
<title>calc(result)</title>
<ellipse fill="none" stroke="#000000" cx="50.0456" cy="-272.3431" rx="50.0912" ry="50.0912"/>
<text text-anchor="middle" x="50.0456" y="-268.6431" font-family="Times,serif" font-size="14.00" fill="#000000">calc(result)</text>
</g>
<!-- fcall:null
add(left,right) -->
<g id="node2" class="node">
<title>fcall:null
add(left,right)</title>
<ellipse fill="none" stroke="#000000" cx="240.1449" cy="-272.3431" rx="65.1077" ry="65.1077"/>
<text text-anchor="middle" x="240.1449" y="-276.1431" font-family="Times,serif" font-size="14.00" fill="#000000">fcall:null</text>
<text text-anchor="middle" x="240.1449" y="-261.1431" font-family="Times,serif" font-size="14.00" fill="#000000">add(left,right)</text>
</g>
<!-- calc(result)&#45;&gt;fcall:null
add(left,right) -->
<g id="edge1" class="edge">
<title>calc(result)&#45;&gt;fcall:null
add(left,right)</title>
<path fill="none" stroke="#000000" d="M92.7936,-298.9513C97.8067,-301.1453 102.9649,-303.0237 108.0911,-304.3431 133.4857,-310.8793 141.4256,-309.7178 167.0911,-304.3431 168.5734,-304.0327 170.0624,-303.6904 171.5548,-303.3195"/>
<polygon fill="#000000" stroke="#000000" points="172.7711,-306.6119 181.4193,-300.4915 170.8419,-299.883 172.7711,-306.6119"/>
<text text-anchor="middle" x="137.5911" y="-312.7431" font-family="Times,serif" font-size="12.00" fill="#000000">a</text>
</g>
<!-- calc(result)&#45;&gt;fcall:null
add(left,right) -->
<g id="edge25" class="edge">
<title>calc(result)&#45;&gt;fcall:null
add(left,right)</title>
<path fill="none" stroke="#000000" d="M100.4896,-272.3431C120.1458,-272.3431 143.0934,-272.3431 164.6404,-272.3431"/>
<polygon fill="#000000" stroke="#000000" points="164.7537,-275.8432 174.7537,-272.3431 164.7536,-268.8432 164.7537,-275.8432"/>
<text text-anchor="middle" x="137.5911" y="-275.7431" font-family="Times,serif" font-size="12.00" fill="#000000">b</text>
</g>
<!-- calc(result)&#45;&gt;fcall:null
add(left,right) -->
<g id="edge26" class="edge">
<title>calc(result)&#45;&gt;fcall:null
add(left,right)</title>
<path fill="none" stroke="#000000" d="M97.9572,-257.1693C101.3634,-256.4436 104.7649,-255.8202 108.0911,-255.3431 131.4115,-251.9984 139.4241,-252.2493 166.8499,-255.4916"/>
<polygon fill="#000000" stroke="#000000" points="166.599,-258.9865 176.9452,-256.7049 167.4344,-252.0365 166.599,-258.9865"/>
<text text-anchor="middle" x="137.5911" y="-258.7431" font-family="Times,serif" font-size="12.00" fill="#000000">c</text>
</g>
<!-- fcall:null
add(left,right)&#45;&gt;calc(result) -->
<g id="edge2" class="edge">
<title>fcall:null
add(left,right)&#45;&gt;calc(result)</title>
<path fill="none" stroke="#000000" d="M190.0891,-230.0535C182.7498,-225.6805 174.9902,-221.9067 167.0911,-219.3431 142.1495,-211.2486 132.5388,-209.8609 108.0911,-219.3431 102.2466,-221.61 96.6306,-224.7699 91.3492,-228.4293"/>
<polygon fill="#000000" stroke="#000000" points="89.1713,-225.6885 83.3406,-234.5346 93.4152,-231.2554 89.1713,-225.6885"/>
<text text-anchor="middle" x="137.5911" y="-222.7431" font-family="Times,serif" font-size="12.00" fill="#000000">result[result]</text>
</g>
<!-- triSum_triop(a,b,c) -->
<g id="node3" class="node">
<title>triSum_triop(a,b,c)</title>
<ellipse fill="none" stroke="#000000" cx="455.4917" cy="-360.3431" rx="79.0865" ry="79.0865"/>
<text text-anchor="middle" x="455.4917" y="-356.6431" font-family="Times,serif" font-size="14.00" fill="#000000">triSum_triop(a,b,c)</text>
</g>
<!-- fcall:null
add(left,right)&#45;&gt;triSum_triop(a,b,c) -->
<g id="edge3" class="edge">
<title>fcall:null
add(left,right)&#45;&gt;triSum_triop(a,b,c)</title>
<path fill="none" stroke="#000000" d="M267.703,-331.4438C279.1187,-349.1532 294.2067,-366.4746 313.1988,-376.3431 330.3867,-385.2743 350.2937,-387.2865 369.6723,-385.7642"/>
<polygon fill="#000000" stroke="#000000" points="370.1801,-389.2297 379.7407,-384.6639 369.4196,-382.2711 370.1801,-389.2297"/>
<text text-anchor="middle" x="340.6988" y="-388.7431" font-family="Times,serif" font-size="12.00" fill="#000000">a</text>
</g>
<!-- fcall:null
add(left,right)&#45;&gt;triSum_triop(a,b,c) -->
<g id="edge12" class="edge">
<title>fcall:null
add(left,right)&#45;&gt;triSum_triop(a,b,c)</title>
<path fill="none" stroke="#000000" d="M284.0746,-320.9861C293.0183,-328.5222 302.8747,-335.4245 313.1988,-340.3431 329.5406,-348.1289 348.0506,-353.1077 366.1865,-356.2454"/>
<polygon fill="#000000" stroke="#000000" points="365.788,-359.7255 376.2074,-357.8053 366.8648,-352.8088 365.788,-359.7255"/>
<text text-anchor="middle" x="340.6988" y="-359.7431" font-family="Times,serif" font-size="12.00" fill="#000000">b</text>
</g>
<!-- fcall:null
add(left,right)&#45;&gt;triSum_triop(a,b,c) -->
<g id="edge13" class="edge">
<title>fcall:null
add(left,right)&#45;&gt;triSum_triop(a,b,c)</title>
<path fill="none" stroke="#000000" d="M299.7836,-298.9319C304.3058,-300.8052 308.8143,-302.6287 313.1988,-304.3431 337.2848,-313.7612 344.0568,-314.0692 368.1988,-323.3431 369.7833,-323.9518 371.3819,-324.5715 372.9907,-325.2004"/>
<polygon fill="#000000" stroke="#000000" points="371.7058,-328.4559 382.2918,-328.8886 374.2862,-321.9488 371.7058,-328.4559"/>
<text text-anchor="middle" x="340.6988" y="-326.7431" font-family="Times,serif" font-size="12.00" fill="#000000">c</text>
</g>
<!-- triMul_triop(a,b,c) -->
<g id="node6" class="node">
<title>triMul_triop(a,b,c)</title>
<ellipse fill="none" stroke="#000000" cx="455.4917" cy="-184.3431" rx="77.1866" ry="77.1866"/>
<text text-anchor="middle" x="455.4917" y="-180.6431" font-family="Times,serif" font-size="14.00" fill="#000000">triMul_triop(a,b,c)</text>
</g>
<!-- fcall:null
add(left,right)&#45;&gt;triMul_triop(a,b,c) -->
<g id="edge14" class="edge">
<title>fcall:null
add(left,right)&#45;&gt;triMul_triop(a,b,c)</title>
<path fill="none" stroke="#000000" d="M303.2496,-255.3685C324.2372,-249.0043 347.5214,-241.1526 368.1988,-232.3431 371.6644,-230.8666 375.1723,-229.2939 378.69,-227.652"/>
<polygon fill="#000000" stroke="#000000" points="380.5145,-230.6579 388.0028,-223.1628 377.4749,-224.3523 380.5145,-230.6579"/>
<text text-anchor="middle" x="340.6988" y="-254.7431" font-family="Times,serif" font-size="12.00" fill="#000000">a</text>
</g>
<!-- fcall:null
add(left,right)&#45;&gt;triMul_triop(a,b,c) -->
<g id="edge23" class="edge">
<title>fcall:null
add(left,right)&#45;&gt;triMul_triop(a,b,c)</title>
<path fill="none" stroke="#000000" d="M289.3066,-229.3367C296.9591,-224.0476 305.0426,-219.1684 313.1988,-215.3431 330.4499,-207.2523 349.8756,-201.2386 368.7006,-196.7802"/>
<polygon fill="#000000" stroke="#000000" points="369.4839,-200.1916 378.4754,-194.5877 367.9518,-193.3613 369.4839,-200.1916"/>
<text text-anchor="middle" x="340.6988" y="-218.7431" font-family="Times,serif" font-size="12.00" fill="#000000">b</text>
</g>
<!-- fcall:null
add(left,right)&#45;&gt;triMul_triop(a,b,c) -->
<g id="edge24" class="edge">
<title>fcall:null
add(left,right)&#45;&gt;triMul_triop(a,b,c)</title>
<path fill="none" stroke="#000000" d="M272.8432,-215.6944C283.7781,-201.9163 297.306,-188.965 313.1988,-181.3431 330.29,-173.1465 349.9155,-170.1317 369.0216,-169.9291"/>
<polygon fill="#000000" stroke="#000000" points="369.2049,-173.4321 379.2551,-170.0786 369.3073,-166.4328 369.2049,-173.4321"/>
<text text-anchor="middle" x="340.6988" y="-184.7431" font-family="Times,serif" font-size="12.00" fill="#000000">c</text>
</g>
<!-- triSum_triop(a,b,c)&#45;&gt;fcall:null
add(left,right) -->
<g id="edge4" class="edge">
<title>triSum_triop(a,b,c)&#45;&gt;fcall:null
add(left,right)</title>
<path fill="none" stroke="#000000" d="M396.097,-306.991C387.1933,-300.9465 377.7737,-295.483 368.1988,-291.3431 351.8162,-284.2599 333.275,-279.7428 315.491,-276.8815"/>
<polygon fill="#000000" stroke="#000000" points="315.5279,-273.3504 305.1295,-275.3813 314.5247,-280.2782 315.5279,-273.3504"/>
<text text-anchor="middle" x="340.6988" y="-294.7431" font-family="Times,serif" font-size="12.00" fill="#000000">result[left]</text>
</g>
<!-- fcall:triSum_1
add(left,right) -->
<g id="node4" class="node">
<title>fcall:triSum_1
add(left,right)</title>
<ellipse fill="none" stroke="#000000" cx="676.9598" cy="-366.3431" rx="67.3507" ry="67.3507"/>
<text text-anchor="middle" x="676.9598" y="-370.1431" font-family="Times,serif" font-size="14.00" fill="#000000">fcall:triSum_1</text>
<text text-anchor="middle" x="676.9598" y="-355.1431" font-family="Times,serif" font-size="14.00" fill="#000000">add(left,right)</text>
</g>
<!-- triSum_triop(a,b,c)&#45;&gt;fcall:triSum_1
add(left,right) -->
<g id="edge5" class="edge">
<title>triSum_triop(a,b,c)&#45;&gt;fcall:triSum_1
add(left,right)</title>
<path fill="none" stroke="#000000" d="M527.6297,-394.3859C532.6869,-395.9499 537.7684,-397.2986 542.7847,-398.3431 568.4563,-403.6885 576.0915,-403.584 601.7847,-398.3431 603.0746,-398.08 604.3698,-397.7939 605.6683,-397.4868"/>
<polygon fill="#000000" stroke="#000000" points="606.9291,-400.7706 615.6508,-394.7553 605.0816,-394.0188 606.9291,-400.7706"/>
<text text-anchor="middle" x="572.2847" y="-404.7431" font-family="Times,serif" font-size="12.00" fill="#000000">a</text>
</g>
<!-- triSum_triop(a,b,c)&#45;&gt;fcall:triSum_1
add(left,right) -->
<g id="edge10" class="edge">
<title>triSum_triop(a,b,c)&#45;&gt;fcall:triSum_1
add(left,right)</title>
<path fill="none" stroke="#000000" d="M534.8213,-362.4923C555.8339,-363.0616 578.4912,-363.6754 599.4081,-364.2421"/>
<polygon fill="#000000" stroke="#000000" points="599.4307,-367.7439 609.5218,-364.5161 599.6203,-360.7465 599.4307,-367.7439"/>
<text text-anchor="middle" x="572.2847" y="-366.7431" font-family="Times,serif" font-size="12.00" fill="#000000">b</text>
</g>
<!-- triSum_triop(a,b,c)&#45;&gt;fcall:triSum_1
add(left,right) -->
<g id="edge11" class="edge">
<title>triSum_triop(a,b,c)&#45;&gt;fcall:triSum_1
add(left,right)</title>
<path fill="none" stroke="#000000" d="M533.4297,-345.46C555.5581,-343.1024 579.6518,-342.3098 601.7847,-345.3431 602.0029,-345.373 602.2213,-345.4034 602.4399,-345.4342"/>
<polygon fill="#000000" stroke="#000000" points="601.9647,-348.9033 612.4062,-347.1074 603.1238,-342 601.9647,-348.9033"/>
<text text-anchor="middle" x="572.2847" y="-348.7431" font-family="Times,serif" font-size="12.00" fill="#000000">c[right]</text>
</g>
<!-- fcall:triSum_1
add(left,right)&#45;&gt;triSum_triop(a,b,c) -->
<g id="edge6" class="edge">
<title>fcall:triSum_1
add(left,right)&#45;&gt;triSum_triop(a,b,c)</title>
<path fill="none" stroke="#000000" d="M624.9088,-323.7962C617.5015,-319.5298 609.7001,-315.8529 601.7847,-313.3431 576.7889,-305.4177 568.2114,-306.9331 542.7847,-313.3431 539.6136,-314.1426 536.4324,-315.0822 533.26,-316.1369"/>
<polygon fill="#000000" stroke="#000000" points="531.9654,-312.8838 523.7883,-319.6207 534.3818,-319.4535 531.9654,-312.8838"/>
<text text-anchor="middle" x="572.2847" y="-316.7431" font-family="Times,serif" font-size="12.00" fill="#000000">result[result]</text>
</g>
<!-- fcall:triSum_2
add(left,right) -->
<g id="node5" class="node">
<title>fcall:triSum_2
add(left,right)</title>
<ellipse fill="none" stroke="#000000" cx="876.3101" cy="-366.3431" rx="67.3507" ry="67.3507"/>
<text text-anchor="middle" x="876.3101" y="-370.1431" font-family="Times,serif" font-size="14.00" fill="#000000">fcall:triSum_2</text>
<text text-anchor="middle" x="876.3101" y="-355.1431" font-family="Times,serif" font-size="14.00" fill="#000000">add(left,right)</text>
</g>
<!-- fcall:triSum_1
add(left,right)&#45;&gt;fcall:triSum_2
add(left,right) -->
<g id="edge7" class="edge">
<title>fcall:triSum_1
add(left,right)&#45;&gt;fcall:triSum_2
add(left,right)</title>
<path fill="none" stroke="#000000" d="M743.2752,-379.3777C746.2631,-379.7489 749.2267,-380.0746 752.135,-380.3431 771.1946,-382.1028 777.8507,-382.3158 799.9216,-380.3269"/>
<polygon fill="#000000" stroke="#000000" points="800.3673,-383.8005 809.9948,-379.3777 799.7105,-376.8314 800.3673,-383.8005"/>
<text text-anchor="middle" x="776.635" y="-384.7431" font-family="Times,serif" font-size="12.00" fill="#000000">a[left]</text>
</g>
<!-- fcall:triSum_1
add(left,right)&#45;&gt;fcall:triSum_2
add(left,right) -->
<g id="edge9" class="edge">
<title>fcall:triSum_1
add(left,right)&#45;&gt;fcall:triSum_2
add(left,right)</title>
<path fill="none" stroke="#000000" d="M744.1712,-363.528C746.8606,-363.4575 749.5232,-363.3952 752.135,-363.3431 771.1867,-362.9631 777.7433,-362.9156 799.0063,-363.3245"/>
<polygon fill="#000000" stroke="#000000" points="799.0302,-366.8256 809.0987,-363.528 799.1714,-359.827 799.0302,-366.8256"/>
<text text-anchor="middle" x="776.635" y="-366.7431" font-family="Times,serif" font-size="12.00" fill="#000000">b[right]</text>
</g>
<!-- fcall:triSum_2
add(left,right)&#45;&gt;fcall:triSum_1
add(left,right) -->
<g id="edge8" class="edge">
<title>fcall:triSum_2
add(left,right)&#45;&gt;fcall:triSum_1
add(left,right)</title>
<path fill="none" stroke="#000000" d="M816.388,-335.7068C811.3188,-333.9607 806.1952,-332.4634 801.135,-331.3431 779.872,-326.6359 773.398,-326.6359 752.135,-331.3431 750.3955,-331.7282 748.6486,-332.1579 746.899,-332.6268"/>
<polygon fill="#000000" stroke="#000000" points="745.4117,-329.4224 736.882,-335.7068 747.469,-336.1132 745.4117,-329.4224"/>
<text text-anchor="middle" x="776.635" y="-334.7431" font-family="Times,serif" font-size="12.00" fill="#000000">result[left]</text>
</g>
<!-- triMul_triop(a,b,c)&#45;&gt;fcall:null
add(left,right) -->
<g id="edge15" class="edge">
<title>triMul_triop(a,b,c)&#45;&gt;fcall:null
add(left,right)</title>
<path fill="none" stroke="#000000" d="M387.842,-146.3429C363.2235,-137.6589 335.8914,-134.3215 313.1988,-147.3431 292.1195,-159.439 276.5421,-180.2287 265.3174,-201.4199"/>
<polygon fill="#000000" stroke="#000000" points="262.1174,-199.9934 260.77,-210.5022 268.3767,-203.1274 262.1174,-199.9934"/>
<text text-anchor="middle" x="340.6988" y="-150.7431" font-family="Times,serif" font-size="12.00" fill="#000000">result[right]</text>
</g>
<!-- fcall:triMul_1
mul(left,right) -->
<g id="node7" class="node">
<title>fcall:triMul_1
mul(left,right)</title>
<ellipse fill="none" stroke="#000000" cx="676.9598" cy="-184.3431" rx="67.3507" ry="67.3507"/>
<text text-anchor="middle" x="676.9598" y="-188.1431" font-family="Times,serif" font-size="14.00" fill="#000000">fcall:triMul_1</text>
<text text-anchor="middle" x="676.9598" y="-173.1431" font-family="Times,serif" font-size="14.00" fill="#000000">mul(left,right)</text>
</g>
<!-- triMul_triop(a,b,c)&#45;&gt;fcall:triMul_1
mul(left,right) -->
<g id="edge16" class="edge">
<title>triMul_triop(a,b,c)&#45;&gt;fcall:triMul_1
mul(left,right)</title>
<path fill="none" stroke="#000000" d="M527.8372,-213.0223C532.8443,-214.3366 537.8579,-215.4686 542.7847,-216.3431 568.6033,-220.9263 576.0915,-221.584 601.7847,-216.3431 603.0746,-216.08 604.3698,-215.7939 605.6683,-215.4868"/>
<polygon fill="#000000" stroke="#000000" points="606.9291,-218.7706 615.6508,-212.7553 605.0816,-212.0188 606.9291,-218.7706"/>
<text text-anchor="middle" x="572.2847" y="-223.7431" font-family="Times,serif" font-size="12.00" fill="#000000">a</text>
</g>
<!-- triMul_triop(a,b,c)&#45;&gt;fcall:triMul_1
mul(left,right) -->
<g id="edge21" class="edge">
<title>triMul_triop(a,b,c)&#45;&gt;fcall:triMul_1
mul(left,right)</title>
<path fill="none" stroke="#000000" d="M532.9505,-184.3431C554.487,-184.3431 577.8748,-184.3431 599.4161,-184.3431"/>
<polygon fill="#000000" stroke="#000000" points="599.4971,-187.8432 609.4971,-184.3431 599.4971,-180.8432 599.4971,-187.8432"/>
<text text-anchor="middle" x="572.2847" y="-187.7431" font-family="Times,serif" font-size="12.00" fill="#000000">b</text>
</g>
<!-- triMul_triop(a,b,c)&#45;&gt;fcall:triMul_1
mul(left,right) -->
<g id="edge22" class="edge">
<title>triMul_triop(a,b,c)&#45;&gt;fcall:triMul_1
mul(left,right)</title>
<path fill="none" stroke="#000000" d="M531.5391,-168.64C535.3322,-168.1375 539.0963,-167.6989 542.7847,-167.3431 566.2349,-165.081 574.1366,-164.5348 601.4493,-167.499"/>
<polygon fill="#000000" stroke="#000000" points="601.1754,-170.9903 611.5065,-168.6414 601.9655,-164.035 601.1754,-170.9903"/>
<text text-anchor="middle" x="572.2847" y="-170.7431" font-family="Times,serif" font-size="12.00" fill="#000000">c[right]</text>
</g>
<!-- fcall:triMul_1
mul(left,right)&#45;&gt;triMul_triop(a,b,c) -->
<g id="edge17" class="edge">
<title>fcall:triMul_1
mul(left,right)&#45;&gt;triMul_triop(a,b,c)</title>
<path fill="none" stroke="#000000" d="M624.9088,-141.7962C617.5015,-137.5298 609.7001,-133.8529 601.7847,-131.3431 576.7889,-123.4177 568.037,-124.2773 542.7847,-131.3431 538.1214,-132.648 533.4595,-134.2776 528.8518,-136.148"/>
<polygon fill="#000000" stroke="#000000" points="527.2113,-133.0467 519.487,-140.2983 530.0476,-139.4464 527.2113,-133.0467"/>
<text text-anchor="middle" x="572.2847" y="-134.7431" font-family="Times,serif" font-size="12.00" fill="#000000">result[result]</text>
</g>
<!-- fcall:triMul_2
mul(left,right) -->
<g id="node8" class="node">
<title>fcall:triMul_2
mul(left,right)</title>
<ellipse fill="none" stroke="#000000" cx="876.3101" cy="-184.3431" rx="67.3507" ry="67.3507"/>
<text text-anchor="middle" x="876.3101" y="-188.1431" font-family="Times,serif" font-size="14.00" fill="#000000">fcall:triMul_2</text>
<text text-anchor="middle" x="876.3101" y="-173.1431" font-family="Times,serif" font-size="14.00" fill="#000000">mul(left,right)</text>
</g>
<!-- fcall:triMul_1
mul(left,right)&#45;&gt;fcall:triMul_2
mul(left,right) -->
<g id="edge18" class="edge">
<title>fcall:triMul_1
mul(left,right)&#45;&gt;fcall:triMul_2
mul(left,right)</title>
<path fill="none" stroke="#000000" d="M743.2752,-197.3777C746.2631,-197.7489 749.2267,-198.0746 752.135,-198.3431 771.1946,-200.1028 777.8507,-200.3158 799.9216,-198.3269"/>
<polygon fill="#000000" stroke="#000000" points="800.3673,-201.8005 809.9948,-197.3777 799.7105,-194.8314 800.3673,-201.8005"/>
<text text-anchor="middle" x="776.635" y="-203.7431" font-family="Times,serif" font-size="12.00" fill="#000000">a[left]</text>
</g>
<!-- fcall:triMul_1
mul(left,right)&#45;&gt;fcall:triMul_2
mul(left,right) -->
<g id="edge20" class="edge">
<title>fcall:triMul_1
mul(left,right)&#45;&gt;fcall:triMul_2
mul(left,right)</title>
<path fill="none" stroke="#000000" d="M744.1712,-181.528C746.8606,-181.4575 749.5232,-181.3952 752.135,-181.3431 771.1867,-180.9631 777.7433,-180.9156 799.0063,-181.3245"/>
<polygon fill="#000000" stroke="#000000" points="799.0302,-184.8256 809.0987,-181.528 799.1714,-177.827 799.0302,-184.8256"/>
<text text-anchor="middle" x="776.635" y="-184.7431" font-family="Times,serif" font-size="12.00" fill="#000000">b[right]</text>
</g>
<!-- fcall:triMul_2
mul(left,right)&#45;&gt;fcall:triMul_1
mul(left,right) -->
<g id="edge19" class="edge">
<title>fcall:triMul_2
mul(left,right)&#45;&gt;fcall:triMul_1
mul(left,right)</title>
<path fill="none" stroke="#000000" d="M816.388,-153.7068C811.3188,-151.9607 806.1952,-150.4634 801.135,-149.3431 779.872,-144.6359 773.398,-144.6359 752.135,-149.3431 750.3955,-149.7282 748.6486,-150.1579 746.899,-150.6268"/>
<polygon fill="#000000" stroke="#000000" points="745.4117,-147.4224 736.882,-153.7068 747.469,-154.1132 745.4117,-147.4224"/>
<text text-anchor="middle" x="776.635" y="-152.7431" font-family="Times,serif" font-size="12.00" fill="#000000">result[left]</text>
</g>
</g>
</svg>
