<?xml version="1.0" encoding="UTF-8" standalone="no"?>
<!DOCTYPE svg PUBLIC "-//W3C//DTD SVG 1.1//EN"
 "http://www.w3.org/Graphics/SVG/1.1/DTD/svg11.dtd">
<!-- Generated by graphviz version 2.40.1 (20161225.0304)
 -->
<!-- Title: G Pages: 1 -->
<svg width="1303pt" height="1035pt"
 viewBox="0.00 0.00 1302.72 1034.58" xmlns="http://www.w3.org/2000/svg" xmlns:xlink="http://www.w3.org/1999/xlink">
<g id="graph0" class="graph" transform="scale(1 1) rotate(0) translate(4 1030.5848)">
<title>G</title>
<polygon fill="#ffffff" stroke="transparent" points="-4,4 -4,-1030.5848 1298.7151,-1030.5848 1298.7151,4 -4,4"/>
<text text-anchor="start" x="512.3576" y="-49.3" font-family="Times,serif" font-size="14.00" fill="#0000ff">condition</text>
<text text-anchor="start" x="608.3576" y="-49.3" font-family="Times,serif" font-size="14.00" fill="#00ff00">true&#45;branch</text>
<text text-anchor="start" x="715.3576" y="-49.3" font-family="Times,serif" font-size="14.00" fill="#ff0000">false&#45;branch</text>
<!-- filter(pred,list) -->
<g id="node1" class="node">
<title>filter(pred,list)</title>
<ellipse fill="none" stroke="#000000" cx="62.3945" cy="-771.3899" rx="62.2891" ry="62.2891"/>
<text text-anchor="middle" x="62.3945" y="-767.6899" font-family="Times,serif" font-size="14.00" fill="#000000">filter(pred,list)</text>
</g>
<!-- if:listEmpty(cond,onT,onF) -->
<g id="node2" class="node">
<title>if:listEmpty(cond,onT,onF)</title>
<ellipse fill="none" stroke="#000000" cx="308.3293" cy="-771.3899" rx="108.5808" ry="108.5808"/>
<text text-anchor="middle" x="308.3293" y="-767.6899" font-family="Times,serif" font-size="14.00" fill="#000000">if:listEmpty(cond,onT,onF)</text>
</g>
<!-- filter(pred,list)&#45;&gt;if:listEmpty(cond,onT,onF) -->
<g id="edge1" class="edge">
<title>filter(pred,list)&#45;&gt;if:listEmpty(cond,onT,onF)</title>
<path fill="none" stroke="#000000" d="M123.716,-784.3217C126.776,-784.7356 129.8128,-785.0968 132.7889,-785.3899 151.4435,-787.2269 171.2316,-787.3809 190.5403,-786.5527"/>
<polygon fill="#000000" stroke="#000000" points="190.7792,-790.0451 200.5853,-786.0338 190.418,-783.0544 190.7792,-790.0451"/>
<text text-anchor="middle" x="162.2889" y="-790.7899" font-family="Times,serif" font-size="12.00" fill="#000000">list</text>
</g>
<!-- filter(pred,list)&#45;&gt;if:listEmpty(cond,onT,onF) -->
<g id="edge29" class="edge">
<title>filter(pred,list)&#45;&gt;if:listEmpty(cond,onT,onF)</title>
<path fill="none" stroke="#000000" d="M124.9531,-768.5854C127.6002,-768.5105 130.2207,-768.4446 132.7889,-768.3899 151.1289,-767.9992 170.5475,-767.9581 189.5239,-768.1237"/>
<polygon fill="#000000" stroke="#000000" points="189.6671,-771.6253 199.7038,-768.2322 189.7417,-764.6257 189.6671,-771.6253"/>
<text text-anchor="middle" x="162.2889" y="-771.7899" font-family="Times,serif" font-size="12.00" fill="#000000">pred</text>
</g>
<!-- if:listEmpty(cond,onT,onF)&#45;&gt;filter(pred,list) -->
<g id="edge2" class="edge">
<title>if:listEmpty(cond,onT,onF)&#45;&gt;filter(pred,list)</title>
<path fill="none" stroke="#000000" d="M205.5082,-736.0386C181.5724,-731.9179 156.2345,-730.8829 132.7889,-736.3899 130.8457,-736.8463 128.8948,-737.3648 126.9434,-737.9368"/>
<polygon fill="#000000" stroke="#000000" points="125.5815,-734.702 117.2155,-741.2029 127.8095,-741.3379 125.5815,-734.702"/>
<text text-anchor="middle" x="162.2889" y="-739.7899" font-family="Times,serif" font-size="12.00" fill="#000000">result[result]</text>
</g>
<!-- isEmpty(list) -->
<g id="node3" class="node">
<title>isEmpty(list)</title>
<ellipse fill="none" stroke="#000000" cx="578.312" cy="-969.3899" rx="57.3905" ry="57.3905"/>
<text text-anchor="middle" x="578.312" y="-965.6899" font-family="Times,serif" font-size="14.00" fill="#000000">isEmpty(list)</text>
</g>
<!-- if:listEmpty(cond,onT,onF)&#45;&gt;isEmpty(list) -->
<g id="edge3" class="edge">
<title>if:listEmpty(cond,onT,onF)&#45;&gt;isEmpty(list)</title>
<path fill="none" stroke="#0000ff" d="M373.5487,-858.3782C389.0623,-875.438 406.4933,-892.1298 424.8697,-905.3899 451.5766,-924.6611 484.9588,-939.4676 513.7603,-949.961"/>
<polygon fill="#0000ff" stroke="#0000ff" points="512.7412,-953.3131 523.3359,-953.3545 515.0795,-946.7151 512.7412,-953.3131"/>
<text text-anchor="middle" x="454.3697" y="-939.7899" font-family="Times,serif" font-size="12.00" fill="#0000ff">list</text>
</g>
<!-- const:emptylist(ping) -->
<g id="node4" class="node">
<title>const:emptylist(ping)</title>
<ellipse fill="none" stroke="#000000" cx="578.312" cy="-807.3899" rx="86.3847" ry="86.3847"/>
<text text-anchor="middle" x="578.312" y="-803.6899" font-family="Times,serif" font-size="14.00" fill="#000000">const:emptylist(ping)</text>
</g>
<!-- if:listEmpty(cond,onT,onF)&#45;&gt;const:emptylist(ping) -->
<g id="edge5" class="edge">
<title>if:listEmpty(cond,onT,onF)&#45;&gt;const:emptylist(ping)</title>
<path fill="none" stroke="#00ff00" d="M416.1976,-785.7732C438.0064,-788.6812 460.8004,-791.7206 482.1739,-794.5706"/>
<polygon fill="#00ff00" stroke="#00ff00" points="481.8373,-798.0566 492.2122,-795.9091 482.7626,-791.118 481.8373,-798.0566"/>
<text text-anchor="middle" x="454.3697" y="-798.7899" font-family="Times,serif" font-size="12.00" fill="#00ff00">list[ping]</text>
</g>
<!-- block_else() -->
<g id="node5" class="node">
<title>block_else()</title>
<ellipse fill="none" stroke="#000000" cx="578.312" cy="-649.3899" rx="53.8905" ry="53.8905"/>
<text text-anchor="middle" x="578.312" y="-645.6899" font-family="Times,serif" font-size="14.00" fill="#000000">block_else()</text>
</g>
<!-- if:listEmpty(cond,onT,onF)&#45;&gt;block_else() -->
<g id="edge7" class="edge">
<title>if:listEmpty(cond,onT,onF)&#45;&gt;block_else()</title>
<path fill="none" stroke="#ff0000" d="M412.6471,-740.5604C436.5172,-732.1898 461.4503,-722.362 483.8697,-711.3899 498.0321,-704.4587 512.613,-695.7666 525.9529,-687.1032"/>
<polygon fill="#ff0000" stroke="#ff0000" points="528.1144,-689.8699 534.5231,-681.433 524.2519,-684.0319 528.1144,-689.8699"/>
<text text-anchor="middle" x="454.3697" y="-738.7899" font-family="Times,serif" font-size="12.00" fill="#ff0000">list</text>
</g>
<!-- if:listEmpty(cond,onT,onF)&#45;&gt;block_else() -->
<g id="edge28" class="edge">
<title>if:listEmpty(cond,onT,onF)&#45;&gt;block_else()</title>
<path fill="none" stroke="#ff0000" d="M397.1213,-708.917C406.2874,-703.6316 415.6313,-698.678 424.8697,-694.3899 441.3843,-686.7243 481.2585,-675.1003 516.2189,-665.5866"/>
<polygon fill="#ff0000" stroke="#ff0000" points="517.1847,-668.9513 525.9258,-662.9643 515.359,-662.1935 517.1847,-668.9513"/>
<text text-anchor="middle" x="454.3697" y="-697.7899" font-family="Times,serif" font-size="12.00" fill="#ff0000">pred</text>
</g>
<!-- isEmpty(list)&#45;&gt;if:listEmpty(cond,onT,onF) -->
<g id="edge4" class="edge">
<title>isEmpty(list)&#45;&gt;if:listEmpty(cond,onT,onF)</title>
<path fill="none" stroke="#000000" d="M530.5465,-937.6828C517.0882,-927.4009 503.0771,-915.2902 491.8697,-902.3899 487.1696,-896.9799 488.76,-893.6285 483.8697,-888.3899 463.212,-866.2608 437.5942,-846.2246 412.3728,-829.2365"/>
<polygon fill="#000000" stroke="#000000" points="414.1137,-826.1917 403.8424,-823.5936 410.2517,-832.03 414.1137,-826.1917"/>
<text text-anchor="middle" x="454.3697" y="-891.7899" font-family="Times,serif" font-size="12.00" fill="#000000">result[cond]</text>
</g>
<!-- const:emptylist(ping)&#45;&gt;if:listEmpty(cond,onT,onF) -->
<g id="edge6" class="edge">
<title>const:emptylist(ping)&#45;&gt;if:listEmpty(cond,onT,onF)</title>
<path fill="none" stroke="#000000" d="M498.5413,-773.7988C493.6297,-772.4627 488.7147,-771.3051 483.8697,-770.3899 465.7198,-766.9614 446.3248,-765.2123 427.2916,-764.5397"/>
<polygon fill="#000000" stroke="#000000" points="427.1603,-761.0352 417.0739,-764.2778 426.9809,-768.0329 427.1603,-761.0352"/>
<text text-anchor="middle" x="454.3697" y="-773.7899" font-family="Times,serif" font-size="12.00" fill="#000000">result[result]</text>
</g>
<!-- block_else()&#45;&gt;if:listEmpty(cond,onT,onF) -->
<g id="edge8" class="edge">
<title>block_else()&#45;&gt;if:listEmpty(cond,onT,onF)</title>
<path fill="none" stroke="#000000" d="M524.3229,-644.0282C493.8972,-643.1428 455.8913,-645.7107 424.8697,-659.3899 411.6224,-665.2313 398.9812,-673.2674 387.2399,-682.3762"/>
<polygon fill="#000000" stroke="#000000" points="384.827,-679.8264 379.2586,-688.8399 389.2326,-685.2662 384.827,-679.8264"/>
<text text-anchor="middle" x="454.3697" y="-662.7899" font-family="Times,serif" font-size="12.00" fill="#000000">result[result]</text>
</g>
<!-- head(list) -->
<g id="node6" class="node">
<title>head(list)</title>
<ellipse fill="none" stroke="#000000" cx="871.3449" cy="-883.3899" rx="44.393" ry="44.393"/>
<text text-anchor="middle" x="871.3449" y="-879.6899" font-family="Times,serif" font-size="14.00" fill="#000000">head(list)</text>
</g>
<!-- block_else()&#45;&gt;head(list) -->
<g id="edge9" class="edge">
<title>block_else()&#45;&gt;head(list)</title>
<path fill="none" stroke="#000000" d="M626.9278,-673.8185C641.6102,-683.7119 656.1135,-696.5846 664.7543,-712.3899 679.0642,-738.5644 653.0146,-824.0242 672.7543,-846.3899 708.0301,-886.3583 771.4293,-891.9076 817.1178,-889.8204"/>
<polygon fill="#000000" stroke="#000000" points="817.3841,-893.3108 827.1604,-889.2274 816.9714,-886.323 817.3841,-893.3108"/>
<text text-anchor="middle" x="714.7543" y="-888.7899" font-family="Times,serif" font-size="12.00" fill="#000000">list</text>
</g>
<!-- tail(list) -->
<g id="node7" class="node">
<title>tail(list)</title>
<ellipse fill="none" stroke="#000000" cx="871.3449" cy="-782.3899" rx="38.1938" ry="38.1938"/>
<text text-anchor="middle" x="871.3449" y="-778.6899" font-family="Times,serif" font-size="14.00" fill="#000000">tail(list)</text>
</g>
<!-- block_else()&#45;&gt;tail(list) -->
<g id="edge11" class="edge">
<title>block_else()&#45;&gt;tail(list)</title>
<path fill="none" stroke="#000000" d="M626.0552,-674.9158C640.4936,-684.8207 655.0705,-697.422 664.7543,-712.3899 674.1295,-726.8806 660.2625,-738.4805 672.7543,-750.3899 712.5011,-788.2833 778.3497,-791.6979 823.2363,-788.6939"/>
<polygon fill="#000000" stroke="#000000" points="823.6322,-792.1735 833.3218,-787.8883 823.0748,-785.1957 823.6322,-792.1735"/>
<text text-anchor="middle" x="714.7543" y="-789.7899" font-family="Times,serif" font-size="12.00" fill="#000000">list</text>
</g>
<!-- fcall:filterReCall
filter(pred,list) -->
<g id="node8" class="node">
<title>fcall:filterReCall
filter(pred,list)</title>
<ellipse fill="none" stroke="#000000" cx="871.3449" cy="-649.3899" rx="76.2353" ry="76.2353"/>
<text text-anchor="middle" x="871.3449" y="-653.1899" font-family="Times,serif" font-size="14.00" fill="#000000">fcall:filterReCall</text>
<text text-anchor="middle" x="871.3449" y="-638.1899" font-family="Times,serif" font-size="14.00" fill="#000000">filter(pred,list)</text>
</g>
<!-- block_else()&#45;&gt;fcall:filterReCall
filter(pred,list) -->
<g id="edge13" class="edge">
<title>block_else()&#45;&gt;fcall:filterReCall
filter(pred,list)</title>
<path fill="none" stroke="#000000" d="M631.6017,-658.6883C644.9931,-660.6388 659.3646,-662.4028 672.7543,-663.3899 709.9866,-666.1345 719.4899,-665.6578 756.7543,-663.3899 766.1083,-662.8206 775.868,-661.9922 785.5733,-661.0184"/>
<polygon fill="#000000" stroke="#000000" points="786.0706,-664.4854 795.6482,-659.9557 785.3362,-657.524 786.0706,-664.4854"/>
<text text-anchor="middle" x="714.7543" y="-668.7899" font-family="Times,serif" font-size="12.00" fill="#000000">tail[list]</text>
</g>
<!-- block_else()&#45;&gt;fcall:filterReCall
filter(pred,list) -->
<g id="edge15" class="edge">
<title>block_else()&#45;&gt;fcall:filterReCall
filter(pred,list)</title>
<path fill="none" stroke="#000000" d="M632.2435,-647.3811C645.4888,-646.9693 659.6324,-646.5982 672.7543,-646.3899 710.083,-645.7971 719.4242,-645.9013 756.7543,-646.3899 765.8147,-646.5084 775.2771,-646.6797 784.7117,-646.8812"/>
<polygon fill="#000000" stroke="#000000" points="784.842,-650.385 794.9182,-647.1107 784.9994,-643.3867 784.842,-650.385"/>
<text text-anchor="middle" x="714.7543" y="-649.7899" font-family="Times,serif" font-size="12.00" fill="#000000">pred</text>
</g>
<!-- if:predicate(cond,onT,onF) -->
<g id="node9" class="node">
<title>if:predicate(cond,onT,onF)</title>
<ellipse fill="none" stroke="#000000" cx="871.3449" cy="-448.3899" rx="106.6812" ry="106.6812"/>
<text text-anchor="middle" x="871.3449" y="-444.6899" font-family="Times,serif" font-size="14.00" fill="#000000">if:predicate(cond,onT,onF)</text>
</g>
<!-- block_else()&#45;&gt;if:predicate(cond,onT,onF) -->
<g id="edge16" class="edge">
<title>block_else()&#45;&gt;if:predicate(cond,onT,onF)</title>
<path fill="none" stroke="#000000" d="M624.38,-620.8182C639.5973,-611.7196 656.7334,-601.8315 672.7543,-593.3899 709.1694,-574.2022 722.5651,-577.3098 756.7543,-554.3899 767.4274,-547.2348 778.0777,-539.094 788.3477,-530.578"/>
<polygon fill="#000000" stroke="#000000" points="790.7464,-533.1332 796.121,-524.0028 786.2257,-527.7887 790.7464,-533.1332"/>
<text text-anchor="middle" x="714.7543" y="-596.7899" font-family="Times,serif" font-size="12.00" fill="#000000">pred</text>
</g>
<!-- block_else()&#45;&gt;if:predicate(cond,onT,onF) -->
<g id="edge26" class="edge">
<title>block_else()&#45;&gt;if:predicate(cond,onT,onF)</title>
<path fill="none" stroke="#000000" d="M607.233,-603.5911C623.8457,-580.688 646.5949,-554.3153 672.7543,-537.3899 705.3532,-516.298 720.949,-528.4076 756.7543,-513.3899 761.2001,-511.5252 765.6906,-509.5269 770.1883,-507.4297"/>
<polygon fill="#000000" stroke="#000000" points="771.9194,-510.4811 779.4187,-502.997 768.8891,-504.171 771.9194,-510.4811"/>
<text text-anchor="middle" x="714.7543" y="-540.7899" font-family="Times,serif" font-size="12.00" fill="#000000">head</text>
</g>
<!-- block_else()&#45;&gt;if:predicate(cond,onT,onF) -->
<g id="edge27" class="edge">
<title>block_else()&#45;&gt;if:predicate(cond,onT,onF)</title>
<path fill="none" stroke="#000000" d="M597.4508,-598.6896C612.8053,-564.7811 637.6298,-521.8636 672.7543,-496.3899 674.7982,-494.9076 714.3264,-485.2445 757.5832,-474.9728"/>
<polygon fill="#000000" stroke="#000000" points="758.5239,-478.3469 767.4472,-472.635 756.9096,-471.5355 758.5239,-478.3469"/>
<text text-anchor="middle" x="714.7543" y="-499.7899" font-family="Times,serif" font-size="12.00" fill="#000000">tailFiltered</text>
</g>
<!-- head(list)&#45;&gt;block_else() -->
<g id="edge10" class="edge">
<title>head(list)&#45;&gt;block_else()</title>
<path fill="none" stroke="#000000" d="M831.9052,-863.1259C810.0797,-852.3409 782.2793,-839.2981 756.7543,-829.3899 720.3221,-815.2476 697.3024,-833.7987 672.7543,-803.3899 660.003,-787.5942 674.7412,-730.0636 664.7543,-712.3899 657.5542,-699.6479 646.5945,-688.7804 634.8724,-679.8408"/>
<polygon fill="#000000" stroke="#000000" points="636.8384,-676.9438 626.6722,-673.9606 632.7592,-682.6324 636.8384,-676.9438"/>
<text text-anchor="middle" x="714.7543" y="-832.7899" font-family="Times,serif" font-size="12.00" fill="#000000">result[head]</text>
</g>
<!-- tail(list)&#45;&gt;block_else() -->
<g id="edge12" class="edge">
<title>tail(list)&#45;&gt;block_else()</title>
<path fill="none" stroke="#000000" d="M836.2809,-766.6489C815.4805,-757.2989 788.6012,-745.1951 764.7543,-734.3899 722.0709,-715.0496 673.9487,-693.1069 637.2864,-676.3609"/>
<polygon fill="#000000" stroke="#000000" points="638.2946,-672.9736 627.7444,-672.0016 635.3858,-679.3406 638.2946,-672.9736"/>
<text text-anchor="middle" x="714.7543" y="-733.7899" font-family="Times,serif" font-size="12.00" fill="#000000">result[tail]</text>
</g>
<!-- fcall:filterReCall
filter(pred,list)&#45;&gt;block_else() -->
<g id="edge14" class="edge">
<title>fcall:filterReCall
filter(pred,list)&#45;&gt;block_else()</title>
<path fill="none" stroke="#000000" d="M799.349,-623.866C785.3871,-619.9274 770.7442,-616.4787 756.7543,-614.3899 719.8303,-608.8766 709.5014,-607.7997 672.7543,-614.3899 661.056,-616.4878 648.9121,-619.939 637.3839,-623.8769"/>
<polygon fill="#000000" stroke="#000000" points="636.1056,-620.6169 627.8684,-627.2801 638.4629,-627.208 636.1056,-620.6169"/>
<text text-anchor="middle" x="714.7543" y="-617.7899" font-family="Times,serif" font-size="12.00" fill="#000000">result[tailFiltered]</text>
</g>
<!-- if:predicate(cond,onT,onF)&#45;&gt;block_else() -->
<g id="edge17" class="edge">
<title>if:predicate(cond,onT,onF)&#45;&gt;block_else()</title>
<path fill="none" stroke="#000000" d="M765.4268,-435.8802C733.4312,-436.9976 699.6821,-443.5422 672.7543,-461.3899 629.9625,-489.7521 605.6906,-543.6405 592.5014,-586.4765"/>
<polygon fill="#000000" stroke="#000000" points="589.0855,-585.6866 589.6176,-596.2681 595.8003,-587.6643 589.0855,-585.6866"/>
<text text-anchor="middle" x="714.7543" y="-464.7899" font-family="Times,serif" font-size="12.00" fill="#000000">result[result]</text>
</g>
<!-- callPredicateByFVal(left) -->
<g id="node10" class="node">
<title>callPredicateByFVal(left)</title>
<ellipse fill="none" stroke="#000000" cx="1180.3253" cy="-620.3899" rx="101.2821" ry="101.2821"/>
<text text-anchor="middle" x="1180.3253" y="-616.6899" font-family="Times,serif" font-size="14.00" fill="#000000">callPredicateByFVal(left)</text>
</g>
<!-- if:predicate(cond,onT,onF)&#45;&gt;callPredicateByFVal(left) -->
<g id="edge18" class="edge">
<title>if:predicate(cond,onT,onF)&#45;&gt;callPredicateByFVal(left)</title>
<path fill="none" stroke="#0000ff" d="M948.3451,-522.5052C959.3517,-535.6916 969.7095,-549.8753 977.9354,-564.3899 984.1064,-575.2784 976.4883,-583.1804 985.9354,-591.3899 1008.7282,-611.1966 1038.9923,-620.775 1068.8384,-624.8297"/>
<polygon fill="#0000ff" stroke="#0000ff" points="1068.5961,-628.325 1078.9326,-625.9998 1069.4022,-621.3715 1068.5961,-628.325"/>
<text text-anchor="middle" x="1021.9354" y="-626.7899" font-family="Times,serif" font-size="12.00" fill="#0000ff">pred</text>
</g>
<!-- if:predicate(cond,onT,onF)&#45;&gt;callPredicateByFVal(left) -->
<g id="edge20" class="edge">
<title>if:predicate(cond,onT,onF)&#45;&gt;callPredicateByFVal(left)</title>
<path fill="none" stroke="#0000ff" d="M946.3201,-524.7143C958.8679,-534.9777 972.2711,-544.6247 985.9354,-552.3899 1015.0267,-568.9217 1026.2591,-563.6096 1057.9354,-574.3899 1063.7878,-576.3816 1069.7802,-578.4701 1075.8165,-580.6124"/>
<polygon fill="#0000ff" stroke="#0000ff" points="1074.7299,-583.9409 1085.3245,-584.0168 1077.0897,-577.3506 1074.7299,-583.9409"/>
<text text-anchor="middle" x="1021.9354" y="-577.7899" font-family="Times,serif" font-size="12.00" fill="#0000ff">head[left]</text>
</g>
<!-- cons(element,list) -->
<g id="node11" class="node">
<title>cons(element,list)</title>
<ellipse fill="none" stroke="#000000" cx="1180.3253" cy="-427.3899" rx="74.187" ry="74.187"/>
<text text-anchor="middle" x="1180.3253" y="-423.6899" font-family="Times,serif" font-size="14.00" fill="#000000">cons(element,list)</text>
</g>
<!-- if:predicate(cond,onT,onF)&#45;&gt;cons(element,list) -->
<g id="edge21" class="edge">
<title>if:predicate(cond,onT,onF)&#45;&gt;cons(element,list)</title>
<path fill="none" stroke="#00ff00" d="M978.0199,-448.2448C1004.1851,-447.619 1032.0964,-446.4543 1057.9354,-444.3899 1070.6305,-443.3756 1084.0196,-441.9175 1097.098,-440.276"/>
<polygon fill="#00ff00" stroke="#00ff00" points="1097.555,-443.7461 1107.022,-438.9892 1096.6549,-436.8042 1097.555,-443.7461"/>
<text text-anchor="middle" x="1021.9354" y="-451.7899" font-family="Times,serif" font-size="12.00" fill="#00ff00">head[element]</text>
</g>
<!-- if:predicate(cond,onT,onF)&#45;&gt;cons(element,list) -->
<g id="edge23" class="edge">
<title>if:predicate(cond,onT,onF)&#45;&gt;cons(element,list)</title>
<path fill="none" stroke="#00ff00" d="M976.1509,-428.3979C979.445,-428.021 982.7126,-427.6827 985.9354,-427.3899 1021.7245,-424.1376 1061.3733,-423.5909 1095.4788,-424.0617"/>
<polygon fill="#00ff00" stroke="#00ff00" points="1095.8167,-427.5678 1105.8748,-424.2386 1095.9359,-420.5689 1095.8167,-427.5678"/>
<text text-anchor="middle" x="1021.9354" y="-430.7899" font-family="Times,serif" font-size="12.00" fill="#00ff00">tailFiltered[list]</text>
</g>
<!-- VAL:tailFiltered(tailFiltered) -->
<g id="node12" class="node">
<title>VAL:tailFiltered(tailFiltered)</title>
<ellipse fill="none" stroke="#000000" cx="1180.3253" cy="-221.3899" rx="114.2798" ry="114.2798"/>
<text text-anchor="middle" x="1180.3253" y="-217.6899" font-family="Times,serif" font-size="14.00" fill="#000000">VAL:tailFiltered(tailFiltered)</text>
</g>
<!-- if:predicate(cond,onT,onF)&#45;&gt;VAL:tailFiltered(tailFiltered) -->
<g id="edge24" class="edge">
<title>if:predicate(cond,onT,onF)&#45;&gt;VAL:tailFiltered(tailFiltered)</title>
<path fill="none" stroke="#ff0000" d="M957.4131,-385.1577C995.3388,-357.2947 1040.1586,-324.3667 1079.6263,-295.3708"/>
<polygon fill="#ff0000" stroke="#ff0000" points="1081.976,-297.9876 1087.9627,-289.2463 1077.8315,-292.3464 1081.976,-297.9876"/>
<text text-anchor="middle" x="1021.9354" y="-365.7899" font-family="Times,serif" font-size="12.00" fill="#ff0000">tailFiltered</text>
</g>
<!-- callPredicateByFVal(left)&#45;&gt;if:predicate(cond,onT,onF) -->
<g id="edge19" class="edge">
<title>callPredicateByFVal(left)&#45;&gt;if:predicate(cond,onT,onF)</title>
<path fill="none" stroke="#000000" d="M1096.6288,-562.9256C1083.8364,-554.7499 1070.6558,-546.6595 1057.9354,-539.3899 1032.4632,-524.8325 1004.3241,-510.332 977.7895,-497.3241"/>
<polygon fill="#000000" stroke="#000000" points="979.0006,-494.0209 968.4778,-492.7876 975.9348,-500.3138 979.0006,-494.0209"/>
<text text-anchor="middle" x="1021.9354" y="-542.7899" font-family="Times,serif" font-size="12.00" fill="#000000">result[cond]</text>
</g>
<!-- cons(element,list)&#45;&gt;if:predicate(cond,onT,onF) -->
<g id="edge22" class="edge">
<title>cons(element,list)&#45;&gt;if:predicate(cond,onT,onF)</title>
<path fill="none" stroke="#000000" d="M1110.2529,-403.0129C1073.1234,-393.3256 1026.8544,-386.3853 985.9354,-395.3899 982.8766,-396.063 979.8022,-396.8261 976.7235,-397.667"/>
<polygon fill="#000000" stroke="#000000" points="975.4716,-394.3881 966.8908,-400.6026 977.4741,-401.0955 975.4716,-394.3881"/>
<text text-anchor="middle" x="1021.9354" y="-398.7899" font-family="Times,serif" font-size="12.00" fill="#000000">result[result]</text>
</g>
<!-- VAL:tailFiltered(tailFiltered)&#45;&gt;if:predicate(cond,onT,onF) -->
<g id="edge25" class="edge">
<title>VAL:tailFiltered(tailFiltered)&#45;&gt;if:predicate(cond,onT,onF)</title>
<path fill="none" stroke="#000000" d="M1070.1944,-253.1385C1041.1097,-264.5951 1010.9012,-279.4976 985.9354,-298.3899 966.9568,-312.7514 949.524,-331.0366 934.2874,-349.8634"/>
<polygon fill="#000000" stroke="#000000" points="931.3471,-347.9391 927.8937,-357.9553 936.8396,-352.2789 931.3471,-347.9391"/>
<text text-anchor="middle" x="1021.9354" y="-301.7899" font-family="Times,serif" font-size="12.00" fill="#000000">result[result]</text>
</g>
</g>
</svg>
