<?xml version="1.0" encoding="UTF-8" standalone="no"?>
<!DOCTYPE svg PUBLIC "-//W3C//DTD SVG 1.1//EN"
 "http://www.w3.org/Graphics/SVG/1.1/DTD/svg11.dtd">
<!-- Generated by graphviz version 2.40.1 (20161225.0304)
 -->
<!-- Title: G Pages: 1 -->
<svg width="918pt" height="598pt"
 viewBox="0.00 0.00 917.51 598.02" xmlns="http://www.w3.org/2000/svg" xmlns:xlink="http://www.w3.org/1999/xlink">
<g id="graph0" class="graph" transform="scale(1 1) rotate(0) translate(4 594.02)">
<title>G</title>
<polygon fill="#ffffff" stroke="transparent" points="-4,4 -4,-594.02 913.5083,-594.02 913.5083,4 -4,4"/>
<text text-anchor="start" x="319.7542" y="-49.3" font-family="Times,serif" font-size="14.00" fill="#0000ff">condition</text>
<text text-anchor="start" x="415.7542" y="-49.3" font-family="Times,serif" font-size="14.00" fill="#00ff00">true&#45;branch</text>
<text text-anchor="start" x="522.7542" y="-49.3" font-family="Times,serif" font-size="14.00" fill="#ff0000">false&#45;branch</text>
<!-- geo(a) -->
<g id="node1" class="node">
<title>geo(a)</title>
<ellipse fill="none" stroke="#000000" cx="33.1471" cy="-377.1751" rx="33.2948" ry="33.2948"/>
<text text-anchor="middle" x="33.1471" y="-373.4751" font-family="Times,serif" font-size="14.00" fill="#000000">geo(a)</text>
</g>
<!-- if(cond,onT,onF) -->
<g id="node2" class="node">
<title>if(cond,onT,onF)</title>
<ellipse fill="none" stroke="#000000" cx="212.7878" cy="-377.1751" rx="71.4873" ry="71.4873"/>
<text text-anchor="middle" x="212.7878" y="-373.4751" font-family="Times,serif" font-size="14.00" fill="#000000">if(cond,onT,onF)</text>
</g>
<!-- geo(a)&#45;&gt;if(cond,onT,onF) -->
<g id="edge1" class="edge">
<title>geo(a)&#45;&gt;if(cond,onT,onF)</title>
<path fill="none" stroke="#000000" d="M66.5151,-377.1751C84.8111,-377.1751 108.3625,-377.1751 131.1983,-377.1751"/>
<polygon fill="#000000" stroke="#000000" points="131.2698,-380.6752 141.2698,-377.1751 131.2698,-373.6752 131.2698,-380.6752"/>
<text text-anchor="middle" x="103.7941" y="-380.5751" font-family="Times,serif" font-size="12.00" fill="#000000">a</text>
</g>
<!-- if(cond,onT,onF)&#45;&gt;geo(a) -->
<g id="edge2" class="edge">
<title>if(cond,onT,onF)&#45;&gt;geo(a)</title>
<path fill="none" stroke="#000000" d="M143.0778,-359.9927C120.9734,-356.8459 96.5108,-355.7664 74.2941,-360.1751 73.8392,-360.2654 73.3831,-360.3608 72.9259,-360.461"/>
<polygon fill="#000000" stroke="#000000" points="71.9669,-357.0948 63.2898,-363.1742 73.8641,-363.8329 71.9669,-357.0948"/>
<text text-anchor="middle" x="103.7941" y="-363.5751" font-family="Times,serif" font-size="12.00" fill="#000000">result[result]</text>
</g>
<!-- eq(left,right) -->
<g id="node3" class="node">
<title>eq(left,right)</title>
<ellipse fill="none" stroke="#000000" cx="431.425" cy="-532.1751" rx="55.7903" ry="55.7903"/>
<text text-anchor="middle" x="431.425" y="-528.4751" font-family="Times,serif" font-size="14.00" fill="#000000">eq(left,right)</text>
</g>
<!-- if(cond,onT,onF)&#45;&gt;eq(left,right) -->
<g id="edge3" class="edge">
<title>if(cond,onT,onF)&#45;&gt;eq(left,right)</title>
<path fill="none" stroke="#0000ff" d="M248.5759,-439.2035C260.6803,-455.9841 275.4571,-472.8821 292.2814,-485.1751 314.0915,-501.1111 341.6784,-511.9064 366.5263,-519.0867"/>
<polygon fill="#0000ff" stroke="#0000ff" points="365.6869,-522.4857 376.2567,-521.7586 367.5404,-515.7355 365.6869,-522.4857"/>
<text text-anchor="middle" x="321.7814" y="-516.5751" font-family="Times,serif" font-size="12.00" fill="#0000ff">a[left]</text>
</g>
<!-- zero:ontrue(ping) -->
<g id="node5" class="node">
<title>zero:ontrue(ping)</title>
<ellipse fill="none" stroke="#000000" cx="431.425" cy="-386.1751" rx="72.2875" ry="72.2875"/>
<text text-anchor="middle" x="431.425" y="-382.4751" font-family="Times,serif" font-size="14.00" fill="#000000">zero:ontrue(ping)</text>
</g>
<!-- if(cond,onT,onF)&#45;&gt;zero:ontrue(ping) -->
<g id="edge7" class="edge">
<title>if(cond,onT,onF)&#45;&gt;zero:ontrue(ping)</title>
<path fill="none" stroke="#00ff00" d="M284.3778,-380.1221C305.1276,-380.9762 327.9445,-381.9155 349.2857,-382.794"/>
<polygon fill="#00ff00" stroke="#00ff00" points="349.1646,-386.2918 359.3001,-383.2062 349.4526,-379.2978 349.1646,-386.2918"/>
<text text-anchor="middle" x="321.7814" y="-386.5751" font-family="Times,serif" font-size="12.00" fill="#00ff00">a[ping]</text>
</g>
<!-- block_else() -->
<g id="node6" class="node">
<title>block_else()</title>
<ellipse fill="none" stroke="#000000" cx="431.425" cy="-242.1751" rx="53.8905" ry="53.8905"/>
<text text-anchor="middle" x="431.425" y="-238.4751" font-family="Times,serif" font-size="14.00" fill="#000000">block_else()</text>
</g>
<!-- if(cond,onT,onF)&#45;&gt;block_else() -->
<g id="edge9" class="edge">
<title>if(cond,onT,onF)&#45;&gt;block_else()</title>
<path fill="none" stroke="#ff0000" d="M273.6904,-339.5701C306.029,-319.6023 345.4513,-295.2606 376.7946,-275.9073"/>
<polygon fill="#ff0000" stroke="#ff0000" points="378.7384,-278.8206 385.4082,-270.5887 375.0607,-272.8645 378.7384,-278.8206"/>
<text text-anchor="middle" x="321.7814" y="-329.5751" font-family="Times,serif" font-size="12.00" fill="#ff0000">a</text>
</g>
<!-- eq(left,right)&#45;&gt;if(cond,onT,onF) -->
<g id="edge4" class="edge">
<title>eq(left,right)&#45;&gt;if(cond,onT,onF)</title>
<path fill="none" stroke="#000000" d="M388.3188,-496.5528C376.4833,-487.1037 363.5323,-477.0625 351.2814,-468.1751 329.1864,-452.1465 304.4457,-435.4992 282.0553,-420.8935"/>
<polygon fill="#000000" stroke="#000000" points="283.8923,-417.9132 273.5995,-415.4013 280.0793,-423.7836 283.8923,-417.9132"/>
<text text-anchor="middle" x="321.7814" y="-471.5751" font-family="Times,serif" font-size="12.00" fill="#000000">result[cond]</text>
</g>
<!-- zero:eq(ping) -->
<g id="node4" class="node">
<title>zero:eq(ping)</title>
<ellipse fill="none" stroke="#000000" cx="644.3633" cy="-532.1751" rx="57.6901" ry="57.6901"/>
<text text-anchor="middle" x="644.3633" y="-528.4751" font-family="Times,serif" font-size="14.00" fill="#000000">zero:eq(ping)</text>
</g>
<!-- eq(left,right)&#45;&gt;zero:eq(ping) -->
<g id="edge5" class="edge">
<title>eq(left,right)&#45;&gt;zero:eq(ping)</title>
<path fill="none" stroke="#000000" d="M487.3721,-532.1751C514.4791,-532.1751 547.2741,-532.1751 575.8652,-532.1751"/>
<polygon fill="#000000" stroke="#000000" points="576.1902,-535.6752 586.1902,-532.1751 576.1902,-528.6752 576.1902,-535.6752"/>
<text text-anchor="middle" x="544.0686" y="-535.5751" font-family="Times,serif" font-size="12.00" fill="#000000">left[ping]</text>
</g>
<!-- zero:eq(ping)&#45;&gt;eq(left,right) -->
<g id="edge6" class="edge">
<title>zero:eq(ping)&#45;&gt;eq(left,right)</title>
<path fill="none" stroke="#000000" d="M588.3332,-516.9985C584.3719,-516.2734 580.4223,-515.651 576.5686,-515.1751 547.8974,-511.6352 540.2999,-512.1614 511.5686,-515.1751 506.4828,-515.7086 501.2447,-516.4275 495.9975,-517.2693"/>
<polygon fill="#000000" stroke="#000000" points="495.1838,-513.8583 485.9331,-519.0231 496.3855,-520.7544 495.1838,-513.8583"/>
<text text-anchor="middle" x="544.0686" y="-518.5751" font-family="Times,serif" font-size="12.00" fill="#000000">result[right]</text>
</g>
<!-- zero:ontrue(ping)&#45;&gt;if(cond,onT,onF) -->
<g id="edge8" class="edge">
<title>zero:ontrue(ping)&#45;&gt;if(cond,onT,onF)</title>
<path fill="none" stroke="#000000" d="M362.1572,-365.9403C358.4972,-365.2544 354.8562,-364.6569 351.2814,-364.1751 332.6171,-361.6599 312.4723,-361.8835 293.4809,-363.4106"/>
<polygon fill="#000000" stroke="#000000" points="293.0009,-359.9401 283.3684,-364.352 293.6498,-366.9099 293.0009,-359.9401"/>
<text text-anchor="middle" x="321.7814" y="-367.5751" font-family="Times,serif" font-size="12.00" fill="#000000">result[result]</text>
</g>
<!-- block_else()&#45;&gt;if(cond,onT,onF) -->
<g id="edge10" class="edge">
<title>block_else()&#45;&gt;if(cond,onT,onF)</title>
<path fill="none" stroke="#000000" d="M377.6208,-247.4237C350.3501,-252.0554 317.7158,-260.7723 292.2814,-277.1751 279.3619,-285.5071 267.6107,-296.6584 257.3423,-308.4916"/>
<polygon fill="#000000" stroke="#000000" points="254.5153,-306.4171 250.8112,-316.3434 259.897,-310.8935 254.5153,-306.4171"/>
<text text-anchor="middle" x="321.7814" y="-280.5751" font-family="Times,serif" font-size="12.00" fill="#000000">result[result]</text>
</g>
<!-- sub(left,right) -->
<g id="node7" class="node">
<title>sub(left,right)</title>
<ellipse fill="none" stroke="#000000" cx="644.3633" cy="-314.1751" rx="59.5901" ry="59.5901"/>
<text text-anchor="middle" x="644.3633" y="-310.4751" font-family="Times,serif" font-size="14.00" fill="#000000">sub(left,right)</text>
</g>
<!-- block_else()&#45;&gt;sub(left,right) -->
<g id="edge11" class="edge">
<title>block_else()&#45;&gt;sub(left,right)</title>
<path fill="none" stroke="#000000" d="M475.5764,-274.0078C486.8652,-280.9208 499.2945,-287.5413 511.5686,-292.1751 531.3903,-299.6584 553.828,-304.6005 574.5426,-307.8629"/>
<polygon fill="#000000" stroke="#000000" points="574.1518,-311.3429 584.5542,-309.3332 575.169,-304.4172 574.1518,-311.3429"/>
<text text-anchor="middle" x="544.0686" y="-311.5751" font-family="Times,serif" font-size="12.00" fill="#000000">a[left]</text>
</g>
<!-- add(left,right) -->
<g id="node9" class="node">
<title>add(left,right)</title>
<ellipse fill="none" stroke="#000000" cx="644.3633" cy="-176.1751" rx="59.5901" ry="59.5901"/>
<text text-anchor="middle" x="644.3633" y="-172.4751" font-family="Times,serif" font-size="14.00" fill="#000000">add(left,right)</text>
</g>
<!-- block_else()&#45;&gt;add(left,right) -->
<g id="edge15" class="edge">
<title>block_else()&#45;&gt;add(left,right)</title>
<path fill="none" stroke="#000000" d="M485.5485,-239.4447C513.457,-236.6862 547.6212,-231.1722 576.5686,-220.1751 579.8827,-218.9161 583.2029,-217.4771 586.4959,-215.9057"/>
<polygon fill="#000000" stroke="#000000" points="588.3955,-218.864 595.676,-211.1669 585.1846,-212.6439 588.3955,-218.864"/>
<text text-anchor="middle" x="544.0686" y="-239.5751" font-family="Times,serif" font-size="12.00" fill="#000000">a[left]</text>
</g>
<!-- block_else()&#45;&gt;add(left,right) -->
<g id="edge19" class="edge">
<title>block_else()&#45;&gt;add(left,right)</title>
<path fill="none" stroke="#000000" d="M479.3344,-216.4382C489.7567,-211.5297 500.8704,-206.8006 511.5686,-203.1751 531.7701,-196.3292 554.3186,-190.9457 575.0179,-186.8476"/>
<polygon fill="#000000" stroke="#000000" points="575.8469,-190.2526 585.0125,-184.9383 574.5333,-183.377 575.8469,-190.2526"/>
<text text-anchor="middle" x="544.0686" y="-206.5751" font-family="Times,serif" font-size="12.00" fill="#000000">next_a</text>
</g>
<!-- sub(left,right)&#45;&gt;block_else() -->
<g id="edge12" class="edge">
<title>sub(left,right)&#45;&gt;block_else()</title>
<path fill="none" stroke="#000000" d="M593.3359,-282.7124C587.787,-279.9313 582.1328,-277.3512 576.5686,-275.1751 550.6481,-265.038 520.8473,-257.5895 495.0192,-252.3617"/>
<polygon fill="#000000" stroke="#000000" points="495.4477,-248.8793 484.962,-250.3961 494.1049,-255.7493 495.4477,-248.8793"/>
<text text-anchor="middle" x="544.0686" y="-278.5751" font-family="Times,serif" font-size="12.00" fill="#000000">result[next_a]</text>
</g>
<!-- one(ping) -->
<g id="node8" class="node">
<title>one(ping)</title>
<ellipse fill="none" stroke="#000000" cx="842.3332" cy="-315.1751" rx="44.6926" ry="44.6926"/>
<text text-anchor="middle" x="842.3332" y="-311.4751" font-family="Times,serif" font-size="14.00" fill="#000000">one(ping)</text>
</g>
<!-- sub(left,right)&#45;&gt;one(ping) -->
<g id="edge13" class="edge">
<title>sub(left,right)&#45;&gt;one(ping)</title>
<path fill="none" stroke="#000000" d="M704.298,-314.4779C730.6041,-314.6108 761.2924,-314.7658 787.0441,-314.8959"/>
<polygon fill="#000000" stroke="#000000" points="787.3651,-318.3974 797.3827,-314.9481 787.4005,-311.3975 787.3651,-318.3974"/>
<text text-anchor="middle" x="739.658" y="-318.5751" font-family="Times,serif" font-size="12.00" fill="#000000">left[ping]</text>
</g>
<!-- one(ping)&#45;&gt;sub(left,right) -->
<g id="edge14" class="edge">
<title>one(ping)&#45;&gt;sub(left,right)</title>
<path fill="none" stroke="#000000" d="M798.8859,-303.6278C788.5612,-301.3639 777.5306,-299.3333 767.158,-298.1751 745.5216,-295.7592 738.058,-295.4048 712.8064,-298.3008"/>
<polygon fill="#000000" stroke="#000000" points="712.1527,-294.854 702.6392,-299.5171 712.9842,-301.8045 712.1527,-294.854"/>
<text text-anchor="middle" x="739.658" y="-301.5751" font-family="Times,serif" font-size="12.00" fill="#000000">result[right]</text>
</g>
<!-- add(left,right)&#45;&gt;block_else() -->
<g id="edge16" class="edge">
<title>add(left,right)&#45;&gt;block_else()</title>
<path fill="none" stroke="#000000" d="M585.5607,-164.2018C561.8885,-161.8537 534.7583,-162.3806 511.5686,-171.1751 498.0117,-176.3165 485.276,-184.9161 474.1196,-194.3893"/>
<polygon fill="#000000" stroke="#000000" points="471.7833,-191.7831 466.6575,-201.0555 476.4469,-197.0034 471.7833,-191.7831"/>
<text text-anchor="middle" x="544.0686" y="-174.5751" font-family="Times,serif" font-size="12.00" fill="#000000">result[result]</text>
</g>
<!-- fcall:geoCallR
geo(a) -->
<g id="node10" class="node">
<title>fcall:geoCallR
geo(a)</title>
<ellipse fill="none" stroke="#000000" cx="842.3332" cy="-174.1751" rx="67.3507" ry="67.3507"/>
<text text-anchor="middle" x="842.3332" y="-177.9751" font-family="Times,serif" font-size="14.00" fill="#000000">fcall:geoCallR</text>
<text text-anchor="middle" x="842.3332" y="-162.9751" font-family="Times,serif" font-size="14.00" fill="#000000">geo(a)</text>
</g>
<!-- add(left,right)&#45;&gt;fcall:geoCallR
geo(a) -->
<g id="edge17" class="edge">
<title>add(left,right)&#45;&gt;fcall:geoCallR
geo(a)</title>
<path fill="none" stroke="#000000" d="M704.3238,-176.4941C721.8898,-176.5128 741.3081,-176.4625 765.0524,-176.1816"/>
<polygon fill="#000000" stroke="#000000" points="765.1655,-179.6805 775.1196,-176.0519 765.0753,-172.6811 765.1655,-179.6805"/>
<text text-anchor="middle" x="739.658" y="-180.5751" font-family="Times,serif" font-size="12.00" fill="#000000">next_a[a]</text>
</g>
<!-- fcall:geoCallR
geo(a)&#45;&gt;add(left,right) -->
<g id="edge18" class="edge">
<title>fcall:geoCallR
geo(a)&#45;&gt;add(left,right)</title>
<path fill="none" stroke="#000000" d="M776.4395,-160.2645C773.3097,-159.844 770.2041,-159.4761 767.158,-159.1751 742.832,-156.7719 736.4182,-156.1798 712.158,-159.1751 712.0564,-159.1877 711.9547,-159.2003 711.853,-159.2131"/>
<polygon fill="#000000" stroke="#000000" points="711.6129,-155.7095 702.2491,-160.6663 712.6602,-162.6307 711.6129,-155.7095"/>
<text text-anchor="middle" x="739.658" y="-162.5751" font-family="Times,serif" font-size="12.00" fill="#000000">result[right]</text>
</g>
</g>
</svg>
