<?xml version="1.0" encoding="UTF-8" standalone="no"?>
<!DOCTYPE svg PUBLIC "-//W3C//DTD SVG 1.1//EN"
 "http://www.w3.org/Graphics/SVG/1.1/DTD/svg11.dtd">
<!-- Generated by graphviz version 2.40.1 (20161225.0304)
 -->
<!-- Title: G Pages: 1 -->
<svg width="533pt" height="320pt"
 viewBox="0.00 0.00 532.97 319.99" xmlns="http://www.w3.org/2000/svg" xmlns:xlink="http://www.w3.org/1999/xlink">
<g id="graph0" class="graph" transform="scale(1 1) rotate(0) translate(4 315.9873)">
<title>G</title>
<polygon fill="#ffffff" stroke="transparent" points="-4,4 -4,-315.9873 528.9666,-315.9873 528.9666,4 -4,4"/>
<text text-anchor="start" x="127.4833" y="-49.3" font-family="Times,serif" font-size="14.00" fill="#0000ff">condition</text>
<text text-anchor="start" x="223.4833" y="-49.3" font-family="Times,serif" font-size="14.00" fill="#00ff00">true&#45;branch</text>
<text text-anchor="start" x="330.4833" y="-49.3" font-family="Times,serif" font-size="14.00" fill="#ff0000">false&#45;branch</text>
<!-- max(left,right) -->
<g id="node1" class="node">
<title>max(left,right)</title>
<ellipse fill="none" stroke="#000000" cx="63.0444" cy="-178.4937" rx="63.0888" ry="63.0888"/>
<text text-anchor="middle" x="63.0444" y="-174.7937" font-family="Times,serif" font-size="14.00" fill="#000000">max(left,right)</text>
</g>
<!-- if(cond,onT,onF) -->
<g id="node2" class="node">
<title>if(cond,onT,onF)</title>
<ellipse fill="none" stroke="#000000" cx="272.5825" cy="-178.4937" rx="71.4873" ry="71.4873"/>
<text text-anchor="middle" x="272.5825" y="-174.7937" font-family="Times,serif" font-size="14.00" fill="#000000">if(cond,onT,onF)</text>
</g>
<!-- max(left,right)&#45;&gt;if(cond,onT,onF) -->
<g id="edge1" class="edge">
<title>max(left,right)&#45;&gt;if(cond,onT,onF)</title>
<path fill="none" stroke="#000000" d="M124.934,-191.4255C128.0217,-191.8395 131.086,-192.2006 134.0888,-192.4937 157.4345,-194.772 165.3213,-194.8009 191.8143,-192.4928"/>
<polygon fill="#000000" stroke="#000000" points="192.3692,-195.9572 202.017,-191.5789 191.7446,-188.9852 192.3692,-195.9572"/>
<text text-anchor="middle" x="163.5888" y="-196.8937" font-family="Times,serif" font-size="12.00" fill="#000000">left</text>
</g>
<!-- max(left,right)&#45;&gt;if(cond,onT,onF) -->
<g id="edge8" class="edge">
<title>max(left,right)&#45;&gt;if(cond,onT,onF)</title>
<path fill="none" stroke="#000000" d="M126.1807,-175.6892C128.8522,-175.6143 131.4969,-175.5484 134.0888,-175.4937 157.4378,-175.0009 165.1999,-174.9936 190.7877,-175.4704"/>
<polygon fill="#000000" stroke="#000000" points="191.0179,-178.9754 201.0833,-175.668 191.1523,-171.9767 191.0179,-178.9754"/>
<text text-anchor="middle" x="163.5888" y="-178.8937" font-family="Times,serif" font-size="12.00" fill="#000000">right</text>
</g>
<!-- if(cond,onT,onF)&#45;&gt;max(left,right) -->
<g id="edge2" class="edge">
<title>if(cond,onT,onF)&#45;&gt;max(left,right)</title>
<path fill="none" stroke="#000000" d="M207.7963,-147.4208C202.8935,-145.8602 197.9584,-144.5182 193.0888,-143.4937 167.4284,-138.0948 159.6272,-137.5443 134.0888,-143.4937 132.1806,-143.9382 130.2647,-144.4417 128.3478,-144.9962"/>
<polygon fill="#000000" stroke="#000000" points="127.1831,-141.6949 118.7873,-148.1571 129.3805,-148.341 127.1831,-141.6949"/>
<text text-anchor="middle" x="163.5888" y="-146.8937" font-family="Times,serif" font-size="12.00" fill="#000000">result[result]</text>
</g>
<!-- if(cond,onT,onF)&#45;&gt;if(cond,onT,onF) -->
<g id="edge6" class="edge">
<title>if(cond,onT,onF)&#45;&gt;if(cond,onT,onF)</title>
<path fill="none" stroke="#00ff00" d="M263.5208,-249.7538C264.9037,-260.6133 267.9243,-267.9873 272.5825,-267.9873 275.6394,-267.9873 277.9911,-264.8116 279.6375,-259.5591"/>
<polygon fill="#00ff00" stroke="#00ff00" points="283.068,-260.2525 281.6441,-249.7538 276.2102,-258.849 283.068,-260.2525"/>
<text text-anchor="middle" x="272.5825" y="-271.3873" font-family="Times,serif" font-size="12.00" fill="#00ff00">left[result]</text>
</g>
<!-- if(cond,onT,onF)&#45;&gt;if(cond,onT,onF) -->
<g id="edge7" class="edge">
<title>if(cond,onT,onF)&#45;&gt;if(cond,onT,onF)</title>
<path fill="none" stroke="#ff0000" d="M252.7184,-247.2443C253.0217,-268.9017 259.643,-285.9873 272.5825,-285.9873 283.399,-285.9873 289.8006,-274.048 291.7871,-257.4793"/>
<polygon fill="#ff0000" stroke="#ff0000" points="295.2962,-257.4486 292.4466,-247.2443 288.3107,-256.9985 295.2962,-257.4486"/>
<text text-anchor="middle" x="272.5825" y="-289.3873" font-family="Times,serif" font-size="12.00" fill="#ff0000">right[result]</text>
</g>
<!-- gt(left,right) -->
<g id="node3" class="node">
<title>gt(left,right)</title>
<ellipse fill="none" stroke="#000000" cx="471.0213" cy="-178.4937" rx="53.8905" ry="53.8905"/>
<text text-anchor="middle" x="471.0213" y="-174.7937" font-family="Times,serif" font-size="14.00" fill="#000000">gt(left,right)</text>
</g>
<!-- if(cond,onT,onF)&#45;&gt;gt(left,right) -->
<g id="edge3" class="edge">
<title>if(cond,onT,onF)&#45;&gt;gt(left,right)</title>
<path fill="none" stroke="#0000ff" d="M343.1479,-191.5789C346.1589,-191.9291 349.1445,-192.2375 352.0761,-192.4937 374.6516,-194.4664 382.3024,-195.158 408.388,-192.3542"/>
<polygon fill="#0000ff" stroke="#0000ff" points="408.8969,-195.819 418.4382,-191.2131 408.1071,-188.8637 408.8969,-195.819"/>
<text text-anchor="middle" x="380.5761" y="-196.8937" font-family="Times,serif" font-size="12.00" fill="#0000ff">left</text>
</g>
<!-- if(cond,onT,onF)&#45;&gt;gt(left,right) -->
<g id="edge5" class="edge">
<title>if(cond,onT,onF)&#45;&gt;gt(left,right)</title>
<path fill="none" stroke="#0000ff" d="M344.0817,-175.668C346.7805,-175.6018 349.4525,-175.5431 352.0761,-175.4937 374.5357,-175.07 382.069,-174.9158 406.65,-175.4727"/>
<polygon fill="#0000ff" stroke="#0000ff" points="406.8907,-178.9794 416.9723,-175.7219 407.0597,-171.9814 406.8907,-178.9794"/>
<text text-anchor="middle" x="380.5761" y="-178.8937" font-family="Times,serif" font-size="12.00" fill="#0000ff">right</text>
</g>
<!-- gt(left,right)&#45;&gt;if(cond,onT,onF) -->
<g id="edge4" class="edge">
<title>gt(left,right)&#45;&gt;if(cond,onT,onF)</title>
<path fill="none" stroke="#000000" d="M425.451,-149.395C420.0918,-146.9946 414.5713,-144.9387 409.0761,-143.4937 384.5758,-137.0508 376.8667,-138.2778 352.0761,-143.4937 350.4022,-143.8458 348.7205,-144.2355 347.0351,-144.6587"/>
<polygon fill="#000000" stroke="#000000" points="346.0222,-141.308 337.3687,-147.4208 347.9455,-148.0386 346.0222,-141.308"/>
<text text-anchor="middle" x="380.5761" y="-146.8937" font-family="Times,serif" font-size="12.00" fill="#000000">result[cond]</text>
</g>
</g>
</svg>
