<?xml version="1.0" encoding="UTF-8" standalone="no"?>
<!DOCTYPE svg PUBLIC "-//W3C//DTD SVG 1.1//EN"
 "http://www.w3.org/Graphics/SVG/1.1/DTD/svg11.dtd">
<!-- Generated by graphviz version 2.40.1 (20161225.0304)
 -->
<!-- Title: G Pages: 1 -->
<svg width="999pt" height="1752pt"
 viewBox="0.00 0.00 998.52 1752.24" xmlns="http://www.w3.org/2000/svg" xmlns:xlink="http://www.w3.org/1999/xlink">
<g id="graph0" class="graph" transform="scale(1 1) rotate(0) translate(4 1748.2393)">
<title>G</title>
<polygon fill="#ffffff" stroke="transparent" points="-4,4 -4,-1748.2393 994.5157,-1748.2393 994.5157,4 -4,4"/>
<text text-anchor="start" x="360.2579" y="-49.3" font-family="Times,serif" font-size="14.00" fill="#0000ff">condition</text>
<text text-anchor="start" x="456.2579" y="-49.3" font-family="Times,serif" font-size="14.00" fill="#00ff00">true&#45;branch</text>
<text text-anchor="start" x="563.2579" y="-49.3" font-family="Times,serif" font-size="14.00" fill="#ff0000">false&#45;branch</text>
<!-- quicksort(list) -->
<g id="node1" class="node">
<title>quicksort(list)</title>
<ellipse fill="none" stroke="#000000" cx="59.7947" cy="-1083.1938" rx="59.5901" ry="59.5901"/>
<text text-anchor="middle" x="59.7947" y="-1079.4938" font-family="Times,serif" font-size="14.00" fill="#000000">quicksort(list)</text>
</g>
<!-- if:listEmpty(cond,onT,onF) -->
<g id="node2" class="node">
<title>if:listEmpty(cond,onT,onF)</title>
<ellipse fill="none" stroke="#000000" cx="303.1298" cy="-1083.1938" rx="108.5808" ry="108.5808"/>
<text text-anchor="middle" x="303.1298" y="-1079.4938" font-family="Times,serif" font-size="14.00" fill="#000000">if:listEmpty(cond,onT,onF)</text>
</g>
<!-- quicksort(list)&#45;&gt;if:listEmpty(cond,onT,onF) -->
<g id="edge1" class="edge">
<title>quicksort(list)&#45;&gt;if:listEmpty(cond,onT,onF)</title>
<path fill="none" stroke="#000000" d="M119.6328,-1083.1938C139.1579,-1083.1938 161.5763,-1083.1938 183.886,-1083.1938"/>
<polygon fill="#000000" stroke="#000000" points="184.1181,-1086.6939 194.118,-1083.1938 184.118,-1079.6939 184.1181,-1086.6939"/>
<text text-anchor="middle" x="157.0894" y="-1086.5938" font-family="Times,serif" font-size="12.00" fill="#000000">list</text>
</g>
<!-- if:listEmpty(cond,onT,onF)&#45;&gt;quicksort(list) -->
<g id="edge2" class="edge">
<title>if:listEmpty(cond,onT,onF)&#45;&gt;quicksort(list)</title>
<path fill="none" stroke="#000000" d="M195.8105,-1065.3191C173.2519,-1063.6577 149.6204,-1063.4737 127.5894,-1066.1938 127.4878,-1066.2063 127.3861,-1066.219 127.2844,-1066.2317"/>
<polygon fill="#000000" stroke="#000000" points="127.0443,-1062.7281 117.6805,-1067.6849 128.0916,-1069.6493 127.0443,-1062.7281"/>
<text text-anchor="middle" x="157.0894" y="-1069.5938" font-family="Times,serif" font-size="12.00" fill="#000000">result[result]</text>
</g>
<!-- isEmpty(list) -->
<g id="node3" class="node">
<title>isEmpty(list)</title>
<ellipse fill="none" stroke="#000000" cx="578.9619" cy="-1256.1938" rx="57.3905" ry="57.3905"/>
<text text-anchor="middle" x="578.9619" y="-1252.4938" font-family="Times,serif" font-size="14.00" fill="#000000">isEmpty(list)</text>
</g>
<!-- if:listEmpty(cond,onT,onF)&#45;&gt;isEmpty(list) -->
<g id="edge3" class="edge">
<title>if:listEmpty(cond,onT,onF)&#45;&gt;isEmpty(list)</title>
<path fill="none" stroke="#0000ff" d="M374.176,-1165.2762C388.2905,-1178.511 403.7118,-1191.1433 419.6701,-1201.1938 448.1398,-1219.1239 483.176,-1232.0438 513.1339,-1240.8366"/>
<polygon fill="#0000ff" stroke="#0000ff" points="512.5063,-1244.2967 523.082,-1243.6615 514.4185,-1237.5629 512.5063,-1244.2967"/>
<text text-anchor="middle" x="449.1701" y="-1231.5938" font-family="Times,serif" font-size="12.00" fill="#0000ff">list</text>
</g>
<!-- const:emptylist()(ping) -->
<g id="node4" class="node">
<title>const:emptylist()(ping)</title>
<ellipse fill="none" stroke="#000000" cx="578.9619" cy="-1089.1938" rx="92.0841" ry="92.0841"/>
<text text-anchor="middle" x="578.9619" y="-1085.4938" font-family="Times,serif" font-size="14.00" fill="#000000">const:emptylist()(ping)</text>
</g>
<!-- if:listEmpty(cond,onT,onF)&#45;&gt;const:emptylist()(ping) -->
<g id="edge5" class="edge">
<title>if:listEmpty(cond,onT,onF)&#45;&gt;const:emptylist()(ping)</title>
<path fill="none" stroke="#00ff00" d="M411.75,-1085.5565C432.9975,-1086.0187 455.2176,-1086.502 476.2648,-1086.9599"/>
<polygon fill="#00ff00" stroke="#00ff00" points="476.4197,-1090.464 486.4935,-1087.1824 476.572,-1083.4656 476.4197,-1090.464"/>
<text text-anchor="middle" x="449.1701" y="-1090.5938" font-family="Times,serif" font-size="12.00" fill="#00ff00">list[ping]</text>
</g>
<!-- block_else() -->
<g id="node5" class="node">
<title>block_else()</title>
<ellipse fill="none" stroke="#000000" cx="578.9619" cy="-925.1938" rx="53.8905" ry="53.8905"/>
<text text-anchor="middle" x="578.9619" y="-921.4938" font-family="Times,serif" font-size="14.00" fill="#000000">block_else()</text>
</g>
<!-- if:listEmpty(cond,onT,onF)&#45;&gt;block_else() -->
<g id="edge7" class="edge">
<title>if:listEmpty(cond,onT,onF)&#45;&gt;block_else()</title>
<path fill="none" stroke="#ff0000" d="M397.6696,-1029.0402C439.3627,-1005.1579 486.9439,-977.9028 522.8968,-957.3086"/>
<polygon fill="#ff0000" stroke="#ff0000" points="524.8386,-960.2299 531.7762,-952.2224 521.3592,-954.1558 524.8386,-960.2299"/>
<text text-anchor="middle" x="449.1701" y="-1017.5938" font-family="Times,serif" font-size="12.00" fill="#ff0000">list</text>
</g>
<!-- isEmpty(list)&#45;&gt;if:listEmpty(cond,onT,onF) -->
<g id="edge4" class="edge">
<title>isEmpty(list)&#45;&gt;if:listEmpty(cond,onT,onF)</title>
<path fill="none" stroke="#000000" d="M531.8623,-1222.823C517.3221,-1212.4377 501.2906,-1200.902 486.6701,-1190.1938 483.0845,-1187.5676 482.3809,-1186.6399 478.6701,-1184.1938 456.0545,-1169.2859 431.1534,-1154.2039 407.3904,-1140.4027"/>
<polygon fill="#000000" stroke="#000000" points="409.1032,-1137.3502 398.6934,-1135.3787 405.6017,-1143.4115 409.1032,-1137.3502"/>
<text text-anchor="middle" x="449.1701" y="-1187.5938" font-family="Times,serif" font-size="12.00" fill="#000000">result[cond]</text>
</g>
<!-- const:emptylist()(ping)&#45;&gt;if:listEmpty(cond,onT,onF) -->
<g id="edge6" class="edge">
<title>const:emptylist()(ping)&#45;&gt;if:listEmpty(cond,onT,onF)</title>
<path fill="none" stroke="#000000" d="M488.6057,-1070.3254C485.2589,-1069.8971 481.9388,-1069.5165 478.6701,-1069.1938 460.0161,-1067.3519 440.2282,-1067.1954 420.9195,-1068.0225"/>
<polygon fill="#000000" stroke="#000000" points="420.6809,-1064.5301 410.8746,-1068.541 421.0418,-1071.5208 420.6809,-1064.5301"/>
<text text-anchor="middle" x="449.1701" y="-1072.5938" font-family="Times,serif" font-size="12.00" fill="#000000">result[result]</text>
</g>
<!-- block_else()&#45;&gt;if:listEmpty(cond,onT,onF) -->
<g id="edge8" class="edge">
<title>block_else()&#45;&gt;if:listEmpty(cond,onT,onF)</title>
<path fill="none" stroke="#000000" d="M525.4188,-933.0178C493.1983,-939.373 452.2504,-950.4555 419.6701,-969.1938 407.0117,-976.4741 394.7221,-985.4504 383.1666,-995.1432"/>
<polygon fill="#000000" stroke="#000000" points="380.563,-992.7675 375.2885,-1001.9561 385.1419,-998.0623 380.563,-992.7675"/>
<text text-anchor="middle" x="449.1701" y="-972.5938" font-family="Times,serif" font-size="12.00" fill="#000000">result[result]</text>
</g>
<!-- head()(list) -->
<g id="node6" class="node">
<title>head()(list)</title>
<ellipse fill="none" stroke="#000000" cx="897.8847" cy="-1694.1938" rx="50.0912" ry="50.0912"/>
<text text-anchor="middle" x="897.8847" y="-1690.4938" font-family="Times,serif" font-size="14.00" fill="#000000">head()(list)</text>
</g>
<!-- block_else()&#45;&gt;head()(list) -->
<g id="edge9" class="edge">
<title>block_else()&#45;&gt;head()(list)</title>
<path fill="none" stroke="#000000" d="M628.34,-946.9325C645.0303,-956.9436 661.8142,-970.5819 671.2537,-988.1938 679.8626,-1004.2557 667.8079,-1630.0131 679.2537,-1644.1938 716.4322,-1690.2557 786.5563,-1699.2426 837.3849,-1698.9446"/>
<polygon fill="#000000" stroke="#000000" points="837.6633,-1702.4402 847.5984,-1698.7598 837.5367,-1695.4413 837.6633,-1702.4402"/>
<text text-anchor="middle" x="738.2537" y="-1699.5938" font-family="Times,serif" font-size="12.00" fill="#000000">list</text>
</g>
<!-- tail()(list) -->
<g id="node7" class="node">
<title>tail()(list)</title>
<ellipse fill="none" stroke="#000000" cx="897.8847" cy="-1582.1938" rx="44.393" ry="44.393"/>
<text text-anchor="middle" x="897.8847" y="-1578.4938" font-family="Times,serif" font-size="14.00" fill="#000000">tail()(list)</text>
</g>
<!-- block_else()&#45;&gt;tail()(list) -->
<g id="edge11" class="edge">
<title>block_else()&#45;&gt;tail()(list)</title>
<path fill="none" stroke="#000000" d="M628.7974,-947.2405C645.3236,-957.226 661.8793,-970.7672 671.2537,-988.1938 685.0728,-1013.8828 661.8297,-1489.7994 679.2537,-1513.1938 716.9549,-1563.8131 791.8377,-1578.1969 843.3731,-1581.8137"/>
<polygon fill="#000000" stroke="#000000" points="843.4849,-1585.3262 853.6723,-1582.4163 843.8938,-1578.3381 843.4849,-1585.3262"/>
<text text-anchor="middle" x="738.2537" y="-1578.5938" font-family="Times,serif" font-size="12.00" fill="#000000">list</text>
</g>
<!-- createTestGt(right) -->
<g id="node8" class="node">
<title>createTestGt(right)</title>
<ellipse fill="none" stroke="#000000" cx="897.8847" cy="-1442.1938" rx="77.9862" ry="77.9862"/>
<text text-anchor="middle" x="897.8847" y="-1438.4938" font-family="Times,serif" font-size="14.00" fill="#000000">createTestGt(right)</text>
</g>
<!-- block_else()&#45;&gt;createTestGt(right) -->
<g id="edge13" class="edge">
<title>block_else()&#45;&gt;createTestGt(right)</title>
<path fill="none" stroke="#000000" d="M628.736,-947.2737C645.2555,-957.2627 661.8228,-970.7977 671.2537,-988.1938 680.9999,-1006.1711 667.5578,-1339.4195 679.2537,-1356.1938 708.9827,-1398.8307 763.2905,-1420.3295 810.3399,-1431.1697"/>
<polygon fill="#000000" stroke="#000000" points="809.743,-1434.6216 820.2581,-1433.3249 811.2294,-1427.7812 809.743,-1434.6216"/>
<text text-anchor="middle" x="738.2537" y="-1429.5938" font-family="Times,serif" font-size="12.00" fill="#000000">head[right]</text>
</g>
<!-- createTestLteq(right) -->
<g id="node9" class="node">
<title>createTestLteq(right)</title>
<ellipse fill="none" stroke="#000000" cx="897.8847" cy="-1261.1938" rx="85.2851" ry="85.2851"/>
<text text-anchor="middle" x="897.8847" y="-1257.4938" font-family="Times,serif" font-size="14.00" fill="#000000">createTestLteq(right)</text>
</g>
<!-- block_else()&#45;&gt;createTestLteq(right) -->
<g id="edge15" class="edge">
<title>block_else()&#45;&gt;createTestLteq(right)</title>
<path fill="none" stroke="#000000" d="M628.5641,-947.3679C645.0651,-957.3671 661.6645,-970.8845 671.2537,-988.1938 682.0312,-1007.6479 665.8963,-1170.4119 679.2537,-1188.1938 708.078,-1226.5655 757.8781,-1245.006 802.6747,-1253.7685"/>
<polygon fill="#000000" stroke="#000000" points="802.2773,-1257.2535 812.7415,-1255.595 803.527,-1250.3659 802.2773,-1257.2535"/>
<text text-anchor="middle" x="738.2537" y="-1254.5938" font-family="Times,serif" font-size="12.00" fill="#000000">head[right]</text>
</g>
<!-- fcall:filterCallGt
filter(pred,list) -->
<g id="node10" class="node">
<title>fcall:filterCallGt
filter(pred,list)</title>
<ellipse fill="none" stroke="#000000" cx="897.8847" cy="-1082.1938" rx="75.8212" ry="75.8212"/>
<text text-anchor="middle" x="897.8847" y="-1085.9938" font-family="Times,serif" font-size="14.00" fill="#000000">fcall:filterCallGt</text>
<text text-anchor="middle" x="897.8847" y="-1070.9938" font-family="Times,serif" font-size="14.00" fill="#000000">filter(pred,list)</text>
</g>
<!-- block_else()&#45;&gt;fcall:filterCallGt
filter(pred,list) -->
<g id="edge17" class="edge">
<title>block_else()&#45;&gt;fcall:filterCallGt
filter(pred,list)</title>
<path fill="none" stroke="#000000" d="M628.3305,-948.0796C644.5982,-958.0913 661.1047,-971.433 671.2537,-988.1938 679.1348,-1001.209 668.5017,-1045.4281 679.2537,-1056.1938 713.4066,-1090.3895 767.1549,-1097.1493 812.8115,-1095.2325"/>
<polygon fill="#000000" stroke="#000000" points="813.2327,-1098.7144 823.0197,-1094.6569 812.8385,-1091.7255 813.2327,-1098.7144"/>
<text text-anchor="middle" x="738.2537" y="-1099.5938" font-family="Times,serif" font-size="12.00" fill="#000000">predicateTestGt[pred]</text>
</g>
<!-- block_else()&#45;&gt;fcall:filterCallGt
filter(pred,list) -->
<g id="edge21" class="edge">
<title>block_else()&#45;&gt;fcall:filterCallGt
filter(pred,list)</title>
<path fill="none" stroke="#000000" d="M627.4419,-949.2817C643.4236,-959.3444 659.9738,-972.4101 671.2537,-988.1938 679.0278,-999.0717 669.4071,-1008.149 679.2537,-1017.1938 718.5424,-1053.2829 746.1958,-1023.7307 797.2537,-1039.1938 804.6052,-1041.4202 812.1445,-1044.0158 819.6289,-1046.8086"/>
<polygon fill="#000000" stroke="#000000" points="818.4718,-1050.1135 829.0617,-1050.4385 820.9859,-1043.5805 818.4718,-1050.1135"/>
<text text-anchor="middle" x="738.2537" y="-1042.5938" font-family="Times,serif" font-size="12.00" fill="#000000">tail[list]</text>
</g>
<!-- fcall:filterCallLteq
filter(pred,list) -->
<g id="node11" class="node">
<title>fcall:filterCallLteq
filter(pred,list)</title>
<ellipse fill="none" stroke="#000000" cx="897.8847" cy="-905.1938" rx="83.3772" ry="83.3772"/>
<text text-anchor="middle" x="897.8847" y="-908.9938" font-family="Times,serif" font-size="14.00" fill="#000000">fcall:filterCallLteq</text>
<text text-anchor="middle" x="897.8847" y="-893.9938" font-family="Times,serif" font-size="14.00" fill="#000000">filter(pred,list)</text>
</g>
<!-- block_else()&#45;&gt;fcall:filterCallLteq
filter(pred,list) -->
<g id="edge19" class="edge">
<title>block_else()&#45;&gt;fcall:filterCallLteq
filter(pred,list)</title>
<path fill="none" stroke="#000000" d="M632.898,-926.2911C677.1446,-926.6906 741.3725,-926.124 797.2537,-921.1938 799.9686,-920.9542 802.7211,-920.6856 805.497,-920.3922"/>
<polygon fill="#000000" stroke="#000000" points="806.0887,-923.8474 815.6242,-919.2295 805.2902,-916.8931 806.0887,-923.8474"/>
<text text-anchor="middle" x="738.2537" y="-930.5938" font-family="Times,serif" font-size="12.00" fill="#000000">predicateTestLteq[pred]</text>
</g>
<!-- block_else()&#45;&gt;fcall:filterCallLteq
filter(pred,list) -->
<g id="edge22" class="edge">
<title>block_else()&#45;&gt;fcall:filterCallLteq
filter(pred,list)</title>
<path fill="none" stroke="#000000" d="M631.471,-912.0707C646.7755,-908.8259 663.5939,-905.8157 679.2537,-904.1938 720.0637,-899.967 765.3883,-899.4879 804.1397,-900.3452"/>
<polygon fill="#000000" stroke="#000000" points="804.2772,-903.8497 814.363,-900.6053 804.4553,-896.852 804.2772,-903.8497"/>
<text text-anchor="middle" x="738.2537" y="-907.5938" font-family="Times,serif" font-size="12.00" fill="#000000">tail[list]</text>
</g>
<!-- fcall:qsortRecallGt
quicksort(list) -->
<g id="node12" class="node">
<title>fcall:qsortRecallGt
quicksort(list)</title>
<ellipse fill="none" stroke="#000000" cx="897.8847" cy="-719.1938" rx="84.2917" ry="84.2917"/>
<text text-anchor="middle" x="897.8847" y="-722.9938" font-family="Times,serif" font-size="14.00" fill="#000000">fcall:qsortRecallGt</text>
<text text-anchor="middle" x="897.8847" y="-707.9938" font-family="Times,serif" font-size="14.00" fill="#000000">quicksort(list)</text>
</g>
<!-- block_else()&#45;&gt;fcall:qsortRecallGt
quicksort(list) -->
<g id="edge23" class="edge">
<title>block_else()&#45;&gt;fcall:qsortRecallGt
quicksort(list)</title>
<path fill="none" stroke="#000000" d="M621.0644,-891.0465C638.686,-877.2382 659.6058,-861.4609 679.2537,-848.1938 723.071,-818.6066 773.8334,-788.4207 815.4091,-764.6947"/>
<polygon fill="#000000" stroke="#000000" points="817.173,-767.718 824.1357,-759.7324 813.7128,-761.633 817.173,-767.718"/>
<text text-anchor="middle" x="738.2537" y="-851.5938" font-family="Times,serif" font-size="12.00" fill="#000000">filteredGt[list]</text>
</g>
<!-- fcall:qsortRecallLteq
quicksort(list) -->
<g id="node13" class="node">
<title>fcall:qsortRecallLteq
quicksort(list)</title>
<ellipse fill="none" stroke="#000000" cx="897.8847" cy="-524.1938" rx="92.7622" ry="92.7622"/>
<text text-anchor="middle" x="897.8847" y="-527.9938" font-family="Times,serif" font-size="14.00" fill="#000000">fcall:qsortRecallLteq</text>
<text text-anchor="middle" x="897.8847" y="-512.9938" font-family="Times,serif" font-size="14.00" fill="#000000">quicksort(list)</text>
</g>
<!-- block_else()&#45;&gt;fcall:qsortRecallLteq
quicksort(list) -->
<g id="edge25" class="edge">
<title>block_else()&#45;&gt;fcall:qsortRecallLteq
quicksort(list)</title>
<path fill="none" stroke="#000000" d="M594.6852,-873.5373C610.8151,-826.0673 639.2173,-755.3669 679.2537,-703.1938 715.8671,-655.4814 767.5543,-612.4151 811.4804,-580.4874"/>
<polygon fill="#000000" stroke="#000000" points="813.7946,-583.1343 819.8706,-574.4549 809.7082,-577.4509 813.7946,-583.1343"/>
<text text-anchor="middle" x="738.2537" y="-706.5938" font-family="Times,serif" font-size="12.00" fill="#000000">filteredLteq[list]</text>
</g>
<!-- cons(element,list) -->
<g id="node14" class="node">
<title>cons(element,list)</title>
<ellipse fill="none" stroke="#000000" cx="897.8847" cy="-339.1938" rx="74.187" ry="74.187"/>
<text text-anchor="middle" x="897.8847" y="-335.4938" font-family="Times,serif" font-size="14.00" fill="#000000">cons(element,list)</text>
</g>
<!-- block_else()&#45;&gt;cons(element,list) -->
<g id="edge27" class="edge">
<title>block_else()&#45;&gt;cons(element,list)</title>
<path fill="none" stroke="#000000" d="M587.0328,-871.4828C602.3735,-775.0298 637.9261,-577.3792 679.2537,-522.1938 715.6706,-473.5658 760.627,-501.6638 797.2537,-453.1938 805.8323,-441.8413 797.8605,-434.3514 805.2537,-422.1938 812.138,-410.8732 821.0436,-400.2112 830.6063,-390.5423"/>
<polygon fill="#000000" stroke="#000000" points="833.2828,-392.8222 838.0243,-383.3475 828.4092,-387.7973 833.2828,-392.8222"/>
<text text-anchor="middle" x="738.2537" y="-525.5938" font-family="Times,serif" font-size="12.00" fill="#000000">head[element]</text>
</g>
<!-- block_else()&#45;&gt;cons(element,list) -->
<g id="edge29" class="edge">
<title>block_else()&#45;&gt;cons(element,list)</title>
<path fill="none" stroke="#000000" d="M582.614,-870.9568C591.4561,-756.614 617.9668,-496.3894 679.2537,-436.1938 717.3139,-398.8113 748.3783,-435.5764 797.2537,-414.1938 809.7029,-408.7474 822.0585,-401.5037 833.6274,-393.6616"/>
<polygon fill="#000000" stroke="#000000" points="835.7216,-396.468 841.9024,-387.8628 831.7044,-390.7354 835.7216,-396.468"/>
<text text-anchor="middle" x="738.2537" y="-439.5938" font-family="Times,serif" font-size="12.00" fill="#000000">sortedGt[list]</text>
</g>
<!-- concat(left,right) -->
<g id="node15" class="node">
<title>concat(left,right)</title>
<ellipse fill="none" stroke="#000000" cx="897.8847" cy="-177.1938" rx="70.3881" ry="70.3881"/>
<text text-anchor="middle" x="897.8847" y="-173.4938" font-family="Times,serif" font-size="14.00" fill="#000000">concat(left,right)</text>
</g>
<!-- block_else()&#45;&gt;concat(left,right) -->
<g id="edge30" class="edge">
<title>block_else()&#45;&gt;concat(left,right)</title>
<path fill="none" stroke="#000000" d="M581.6772,-870.876C589.1947,-740.2484 614.1943,-413.0635 679.2537,-328.1938 714.3426,-282.4205 756.6953,-315.199 797.2537,-274.1938 803.4101,-267.9696 800.0155,-263.2082 805.2537,-256.1938 813.3951,-245.2919 823.2994,-234.8774 833.5652,-225.3945"/>
<polygon fill="#000000" stroke="#000000" points="835.9699,-227.9392 841.0841,-218.6604 831.2998,-222.7248 835.9699,-227.9392"/>
<text text-anchor="middle" x="738.2537" y="-331.5938" font-family="Times,serif" font-size="12.00" fill="#000000">consed[right]</text>
</g>
<!-- block_else()&#45;&gt;concat(left,right) -->
<g id="edge32" class="edge">
<title>block_else()&#45;&gt;concat(left,right)</title>
<path fill="none" stroke="#000000" d="M583.488,-871.1855C596.638,-720.1151 636.6211,-301.3585 679.2537,-257.1938 716.3049,-218.811 747.206,-253.6666 797.2537,-235.1938 808.1903,-231.1571 819.3193,-225.9856 829.9962,-220.3978"/>
<polygon fill="#000000" stroke="#000000" points="831.7068,-223.4518 838.8442,-215.6219 828.3818,-217.2919 831.7068,-223.4518"/>
<text text-anchor="middle" x="738.2537" y="-260.5938" font-family="Times,serif" font-size="12.00" fill="#000000">sortedLteq[left]</text>
</g>
<!-- head()(list)&#45;&gt;block_else() -->
<g id="edge10" class="edge">
<title>head()(list)&#45;&gt;block_else()</title>
<path fill="none" stroke="#000000" d="M854.1183,-1669.0438C838.208,-1659.205 820.4216,-1647.3661 805.2537,-1635.1938 801.3321,-1632.0466 801.5746,-1629.7655 797.2537,-1627.1938 750.2469,-1599.216 712.2654,-1635.8129 679.2537,-1592.1938 659.0021,-1565.4348 687.1223,-1017.7634 671.2537,-988.1938 663.5049,-973.7546 650.8218,-961.9852 637.3041,-952.6957"/>
<polygon fill="#000000" stroke="#000000" points="639.1189,-949.7014 628.8162,-947.2304 635.3293,-955.5869 639.1189,-949.7014"/>
<text text-anchor="middle" x="738.2537" y="-1630.5938" font-family="Times,serif" font-size="12.00" fill="#000000">result[head]</text>
</g>
<!-- tail()(list)&#45;&gt;block_else() -->
<g id="edge12" class="edge">
<title>tail()(list)&#45;&gt;block_else()</title>
<path fill="none" stroke="#000000" d="M856.1874,-1567.1724C838.0473,-1558.6525 818.0546,-1546.2272 805.2537,-1529.1938 796.1872,-1517.1293 806.8977,-1507.8018 797.2537,-1496.1938 760.5147,-1451.9725 710.9101,-1491.185 679.2537,-1443.1938 665.333,-1422.0898 683.2568,-1010.4444 671.2537,-988.1938 663.4737,-973.7715 650.7798,-962.0077 637.2619,-952.7183"/>
<polygon fill="#000000" stroke="#000000" points="639.0776,-949.7246 628.7752,-947.2525 635.2873,-955.6097 639.0776,-949.7246"/>
<text text-anchor="middle" x="738.2537" y="-1499.5938" font-family="Times,serif" font-size="12.00" fill="#000000">result[tail]</text>
</g>
<!-- createTestGt(right)&#45;&gt;block_else() -->
<g id="edge14" class="edge">
<title>createTestGt(right)&#45;&gt;block_else()</title>
<path fill="none" stroke="#000000" d="M837.8199,-1391.712C826.2214,-1380.3887 814.7427,-1367.9333 805.2537,-1355.1938 800.5045,-1348.8176 802.6521,-1345.0306 797.2537,-1339.1938 755.6953,-1294.2597 710.1345,-1321.0384 679.2537,-1268.1938 663.5506,-1241.3218 686.1807,-1015.5045 671.2537,-988.1938 663.3946,-973.8144 650.6739,-962.0653 637.1554,-952.7762"/>
<polygon fill="#000000" stroke="#000000" points="638.9732,-949.7838 628.6715,-947.3088 635.1813,-955.6678 638.9732,-949.7838"/>
<text text-anchor="middle" x="738.2537" y="-1342.5938" font-family="Times,serif" font-size="12.00" fill="#000000">result[predicateTestGt]</text>
</g>
<!-- createTestLteq(right)&#45;&gt;block_else() -->
<g id="edge16" class="edge">
<title>createTestLteq(right)&#45;&gt;block_else()</title>
<path fill="none" stroke="#000000" d="M836.709,-1201.7574C824.154,-1190.9413 810.6627,-1180.2354 797.2537,-1171.1938 748.8023,-1138.5231 711.7141,-1161.7864 679.2537,-1113.1938 663.7924,-1090.0483 685.0328,-1012.3785 671.2537,-988.1938 663.1417,-973.9555 650.3349,-962.2544 636.8148,-952.9663"/>
<polygon fill="#000000" stroke="#000000" points="638.6394,-949.9782 628.34,-947.4938 634.8421,-955.8588 638.6394,-949.9782"/>
<text text-anchor="middle" x="738.2537" y="-1174.5938" font-family="Times,serif" font-size="12.00" fill="#000000">result[predicateTestLteq]</text>
</g>
<!-- fcall:filterCallGt
filter(pred,list)&#45;&gt;block_else() -->
<g id="edge18" class="edge">
<title>fcall:filterCallGt
filter(pred,list)&#45;&gt;block_else()</title>
<path fill="none" stroke="#000000" d="M840.4211,-1032.7532C826.8173,-1022.4627 811.9698,-1012.2965 797.2537,-1004.1938 747.258,-976.6659 685.7791,-955.4197 640.8192,-941.9288"/>
<polygon fill="#000000" stroke="#000000" points="641.7822,-938.5638 631.2002,-939.085 639.7976,-945.2766 641.7822,-938.5638"/>
<text text-anchor="middle" x="738.2537" y="-1007.5938" font-family="Times,serif" font-size="12.00" fill="#000000">result[filteredGt]</text>
</g>
<!-- fcall:filterCallLteq
filter(pred,list)&#45;&gt;block_else() -->
<g id="edge20" class="edge">
<title>fcall:filterCallLteq
filter(pred,list)&#45;&gt;block_else()</title>
<path fill="none" stroke="#000000" d="M819.3668,-876.8372C811.9657,-874.9576 804.5161,-873.3541 797.2537,-872.1938 745.4662,-863.9192 730.1564,-859.5709 679.2537,-872.1938 663.4245,-876.1191 647.3414,-883.051 632.8252,-890.6334"/>
<polygon fill="#000000" stroke="#000000" points="631.1268,-887.5729 624.0056,-895.4176 634.4645,-893.726 631.1268,-887.5729"/>
<text text-anchor="middle" x="738.2537" y="-875.5938" font-family="Times,serif" font-size="12.00" fill="#000000">result[filteredLteq]</text>
</g>
<!-- fcall:qsortRecallGt
quicksort(list)&#45;&gt;block_else() -->
<g id="edge24" class="edge">
<title>fcall:qsortRecallGt
quicksort(list)&#45;&gt;block_else()</title>
<path fill="none" stroke="#000000" d="M813.531,-718.5548C770.0999,-721.9877 718.2351,-732.2878 679.2537,-759.1938 642.4962,-784.5648 616.9042,-828.2115 600.7755,-864.3831"/>
<polygon fill="#000000" stroke="#000000" points="597.4249,-863.3143 596.6772,-873.8827 603.8522,-866.0873 597.4249,-863.3143"/>
<text text-anchor="middle" x="738.2537" y="-762.5938" font-family="Times,serif" font-size="12.00" fill="#000000">result[sortedGt]</text>
</g>
<!-- fcall:qsortRecallLteq
quicksort(list)&#45;&gt;block_else() -->
<g id="edge26" class="edge">
<title>fcall:qsortRecallLteq
quicksort(list)&#45;&gt;block_else()</title>
<path fill="none" stroke="#000000" d="M805.9248,-536.6081C754.7713,-545.2936 697.7729,-558.5132 679.2537,-576.1938 638.2016,-615.387 605.2823,-772.1026 589.3645,-861.6296"/>
<polygon fill="#000000" stroke="#000000" points="585.8836,-861.2158 587.6003,-871.6706 592.778,-862.4271 585.8836,-861.2158"/>
<text text-anchor="middle" x="738.2537" y="-579.5938" font-family="Times,serif" font-size="12.00" fill="#000000">result[sortedLteq]</text>
</g>
<!-- cons(element,list)&#45;&gt;block_else() -->
<g id="edge28" class="edge">
<title>cons(element,list)&#45;&gt;block_else()</title>
<path fill="none" stroke="#000000" d="M823.7517,-341.0974C775.8178,-346.3895 715.7712,-361.3439 679.2537,-401.1938 618.3116,-467.6973 592.0473,-736.3339 582.9702,-861.0256"/>
<polygon fill="#000000" stroke="#000000" points="579.4655,-860.9691 582.2451,-871.1928 586.4477,-861.4672 579.4655,-860.9691"/>
<text text-anchor="middle" x="738.2537" y="-404.5938" font-family="Times,serif" font-size="12.00" fill="#000000">result[consed]</text>
</g>
<!-- concat(left,right)&#45;&gt;block_else() -->
<g id="edge31" class="edge">
<title>concat(left,right)&#45;&gt;block_else()</title>
<path fill="none" stroke="#000000" d="M827.8284,-172.1816C779.2107,-172.7824 716.6888,-182.3912 679.2537,-222.1938 635.6906,-268.512 597.2069,-696.7356 583.9077,-861.2428"/>
<polygon fill="#000000" stroke="#000000" points="580.418,-860.9748 583.1056,-871.223 587.3955,-861.5356 580.418,-860.9748"/>
<text text-anchor="middle" x="738.2537" y="-225.5938" font-family="Times,serif" font-size="12.00" fill="#000000">result[result]</text>
</g>
</g>
</svg>
