<?xml version="1.0" encoding="UTF-8" standalone="no"?>
<!DOCTYPE svg PUBLIC "-//W3C//DTD SVG 1.1//EN"
 "http://www.w3.org/Graphics/SVG/1.1/DTD/svg11.dtd">
<!-- Generated by graphviz version 2.40.1 (20161225.0304)
 -->
<!-- Title: G Pages: 1 -->
<svg width="2171pt" height="416pt"
 viewBox="0.00 0.00 2171.00 416.00" xmlns="http://www.w3.org/2000/svg" xmlns:xlink="http://www.w3.org/1999/xlink">
<g id="graph0" class="graph" transform="scale(1 1) rotate(0) translate(4 412)">
<title>G</title>
<polygon fill="#ffffff" stroke="transparent" points="-4,4 -4,-412 2167,-412 2167,4 -4,4"/>
<!-- Gateway
11 -->
<g id="node1" class="node">
<title>Gateway
11</title>
<polygon fill="none" stroke="#000000" points="0,-298.5 0,-336.5 65,-336.5 65,-298.5 0,-298.5"/>
<text text-anchor="middle" x="32.5" y="-321.3" font-family="Times,serif" font-size="14.00" fill="#000000">Gateway</text>
<text text-anchor="middle" x="32.5" y="-306.3" font-family="Times,serif" font-size="14.00" fill="#000000">11</text>
</g>
<!-- geo
12 -->
<g id="node2" class="node">
<title>geo
12</title>
<polygon fill="none" stroke="#000000" points="108,-298.5 108,-336.5 162,-336.5 162,-298.5 108,-298.5"/>
<text text-anchor="middle" x="135" y="-321.3" font-family="Times,serif" font-size="14.00" fill="#000000">geo</text>
<text text-anchor="middle" x="135" y="-306.3" font-family="Times,serif" font-size="14.00" fill="#000000">12</text>
</g>
<!-- Gateway
11&#45;&gt;geo
12 -->
<g id="edge1" class="edge">
<title>Gateway
11&#45;&gt;geo
12</title>
<path fill="none" stroke="#000000" d="M65.2135,-317.5C75.4957,-317.5 86.9285,-317.5 97.515,-317.5"/>
<polygon fill="#000000" stroke="#000000" points="97.7454,-321.0001 107.7453,-317.5 97.7453,-314.0001 97.7454,-321.0001"/>
<text text-anchor="middle" x="86.5" y="-321.3" font-family="Times,serif" font-size="14.00" fill="#000000">3</text>
</g>
<!-- geo
12&#45;&gt;Gateway
11 -->
<g id="edge67" class="edge">
<title>geo
12&#45;&gt;Gateway
11</title>
<path fill="none" stroke="#000000" d="M107.9511,-304.0411C102.1622,-301.7446 95.9844,-299.7116 90,-298.5 85.1666,-297.5214 80.174,-297.5393 75.2428,-298.2214"/>
<polygon fill="#000000" stroke="#000000" points="74.274,-294.8515 65.2778,-300.4478 75.8004,-301.6831 74.274,-294.8515"/>
<text text-anchor="middle" x="86.5" y="-302.3" font-family="Times,serif" font-size="14.00" fill="#000000">6</text>
</g>
<!-- if
13 -->
<g id="node3" class="node">
<title>if
13</title>
<polygon fill="none" stroke="#000000" points="205,-298.5 205,-336.5 259,-336.5 259,-298.5 205,-298.5"/>
<text text-anchor="middle" x="232" y="-321.3" font-family="Times,serif" font-size="14.00" fill="#000000">if</text>
<text text-anchor="middle" x="232" y="-306.3" font-family="Times,serif" font-size="14.00" fill="#000000">13</text>
</g>
<!-- geo
12&#45;&gt;if
13 -->
<g id="edge2" class="edge">
<title>geo
12&#45;&gt;if
13</title>
<path fill="none" stroke="#000000" d="M162.0199,-317.5C172.1304,-317.5 183.8016,-317.5 194.6794,-317.5"/>
<polygon fill="#000000" stroke="#000000" points="194.7886,-321.0001 204.7886,-317.5 194.7885,-314.0001 194.7886,-321.0001"/>
<text text-anchor="middle" x="183.5" y="-321.3" font-family="Times,serif" font-size="14.00" fill="#000000">3</text>
</g>
<!-- if
13&#45;&gt;geo
12 -->
<g id="edge66" class="edge">
<title>if
13&#45;&gt;geo
12</title>
<path fill="none" stroke="#000000" d="M204.9198,-301.5234C197.0251,-298.5423 188.29,-296.8216 180,-298.5 177.1948,-299.0679 174.3471,-299.8164 171.5169,-300.6878"/>
<polygon fill="#000000" stroke="#000000" points="170.3066,-297.4033 162.0489,-304.0411 172.6436,-304.0017 170.3066,-297.4033"/>
<text text-anchor="middle" x="183.5" y="-302.3" font-family="Times,serif" font-size="14.00" fill="#000000">6</text>
</g>
<!-- eq
14 -->
<g id="node4" class="node">
<title>eq
14</title>
<polygon fill="none" stroke="#000000" points="331,-355.5 331,-393.5 385,-393.5 385,-355.5 331,-355.5"/>
<text text-anchor="middle" x="358" y="-378.3" font-family="Times,serif" font-size="14.00" fill="#000000">eq</text>
<text text-anchor="middle" x="358" y="-363.3" font-family="Times,serif" font-size="14.00" fill="#000000">14</text>
</g>
<!-- if
13&#45;&gt;eq
14 -->
<g id="edge3" class="edge">
<title>if
13&#45;&gt;eq
14</title>
<path fill="none" stroke="#000000" d="M253.2545,-336.8155C260.3984,-342.5207 268.6765,-348.3437 277,-352.5 290.6379,-359.31 306.6553,-364.228 320.8304,-367.6631"/>
<polygon fill="#000000" stroke="#000000" points="320.2405,-371.118 330.7661,-369.9082 321.7834,-364.2902 320.2405,-371.118"/>
<text text-anchor="middle" x="290" y="-366.3" font-family="Times,serif" font-size="14.00" fill="#000000">3</text>
</g>
<!-- block_else
16 -->
<g id="node6" class="node">
<title>block_else
16</title>
<polygon fill="none" stroke="#000000" points="321,-241.5 321,-279.5 395,-279.5 395,-241.5 321,-241.5"/>
<text text-anchor="middle" x="358" y="-264.3" font-family="Times,serif" font-size="14.00" fill="#000000">block_else</text>
<text text-anchor="middle" x="358" y="-249.3" font-family="Times,serif" font-size="14.00" fill="#000000">16</text>
</g>
<!-- if
13&#45;&gt;block_else
16 -->
<g id="edge7" class="edge">
<title>if
13&#45;&gt;block_else
16</title>
<path fill="none" stroke="#000000" d="M259.0302,-305.2721C274.2831,-298.3719 293.7666,-289.558 311.4057,-281.5784"/>
<polygon fill="#000000" stroke="#000000" points="313.3084,-284.5592 320.9769,-277.2485 310.4232,-278.1814 313.3084,-284.5592"/>
<text text-anchor="middle" x="290" y="-300.3" font-family="Times,serif" font-size="14.00" fill="#000000">3</text>
</g>
<!-- eq
14&#45;&gt;if
13 -->
<g id="edge6" class="edge">
<title>eq
14&#45;&gt;if
13</title>
<path fill="none" stroke="#000000" d="M336.8736,-355.4674C327.1606,-347.6186 315.1184,-339.0742 303,-333.5 292.4534,-328.6488 280.332,-325.2189 269.1247,-322.8149"/>
<polygon fill="#000000" stroke="#000000" points="269.6438,-319.3505 259.1606,-320.8843 268.3122,-326.2227 269.6438,-319.3505"/>
<text text-anchor="middle" x="290" y="-337.3" font-family="Times,serif" font-size="14.00" fill="#000000">false</text>
</g>
<!-- zero
15 -->
<g id="node5" class="node">
<title>zero
15</title>
<polygon fill="none" stroke="#000000" points="438,-369.5 438,-407.5 492,-407.5 492,-369.5 438,-369.5"/>
<text text-anchor="middle" x="465" y="-392.3" font-family="Times,serif" font-size="14.00" fill="#000000">zero</text>
<text text-anchor="middle" x="465" y="-377.3" font-family="Times,serif" font-size="14.00" fill="#000000">15</text>
</g>
<!-- eq
14&#45;&gt;zero
15 -->
<g id="edge4" class="edge">
<title>eq
14&#45;&gt;zero
15</title>
<path fill="none" stroke="#000000" d="M385.0816,-384.0283C393.8721,-386.6737 403.7457,-389.1813 413,-390.5 416.08,-390.9389 416.8897,-390.5691 420,-390.5 422.5312,-390.4438 425.1418,-390.3698 427.7714,-390.2834"/>
<polygon fill="#000000" stroke="#000000" points="428.0187,-393.7767 437.879,-389.9004 427.7536,-386.7817 428.0187,-393.7767"/>
<text text-anchor="middle" x="416.5" y="-394.3" font-family="Times,serif" font-size="14.00" fill="#000000">3</text>
</g>
<!-- zero
15&#45;&gt;eq
14 -->
<g id="edge5" class="edge">
<title>zero
15&#45;&gt;eq
14</title>
<path fill="none" stroke="#000000" d="M437.8439,-376.4517C432.0627,-374.3973 425.9152,-372.5801 420,-371.5 412.0242,-370.0437 403.3816,-369.7025 395.1528,-369.9467"/>
<polygon fill="#000000" stroke="#000000" points="394.8148,-366.4603 385.0325,-370.5293 395.2171,-373.4487 394.8148,-366.4603"/>
<text text-anchor="middle" x="416.5" y="-375.3" font-family="Times,serif" font-size="14.00" fill="#000000">0</text>
</g>
<!-- block_else
16&#45;&gt;if
13 -->
<g id="edge65" class="edge">
<title>block_else
16&#45;&gt;if
13</title>
<path fill="none" stroke="#000000" d="M320.9554,-258.0232C306.5818,-258.4831 290.3926,-260.8297 277,-267.5 266.5153,-272.722 257.3388,-281.527 250.0548,-290.3058"/>
<polygon fill="#000000" stroke="#000000" points="247.2563,-288.2033 243.9142,-298.2572 252.7966,-292.4819 247.2563,-288.2033"/>
<text text-anchor="middle" x="290" y="-271.3" font-family="Times,serif" font-size="14.00" fill="#000000">6</text>
</g>
<!-- sub
17 -->
<g id="node7" class="node">
<title>sub
17</title>
<polygon fill="none" stroke="#000000" points="438,-303.5 438,-341.5 492,-341.5 492,-303.5 438,-303.5"/>
<text text-anchor="middle" x="465" y="-326.3" font-family="Times,serif" font-size="14.00" fill="#000000">sub</text>
<text text-anchor="middle" x="465" y="-311.3" font-family="Times,serif" font-size="14.00" fill="#000000">17</text>
</g>
<!-- block_else
16&#45;&gt;sub
17 -->
<g id="edge8" class="edge">
<title>block_else
16&#45;&gt;sub
17</title>
<path fill="none" stroke="#000000" d="M372.1996,-279.5986C382.2233,-291.6176 396.7288,-306.3483 413,-314.5 417.6281,-316.8186 422.7554,-318.5027 427.9342,-319.7196"/>
<polygon fill="#000000" stroke="#000000" points="427.3727,-323.1749 437.8388,-321.5279 428.63,-316.2887 427.3727,-323.1749"/>
<text text-anchor="middle" x="416.5" y="-321.3" font-family="Times,serif" font-size="14.00" fill="#000000">3</text>
</g>
<!-- add
18 -->
<g id="node8" class="node">
<title>add
18</title>
<polygon fill="none" stroke="#000000" points="438,-203.5 438,-241.5 492,-241.5 492,-203.5 438,-203.5"/>
<text text-anchor="middle" x="465" y="-226.3" font-family="Times,serif" font-size="14.00" fill="#000000">add</text>
<text text-anchor="middle" x="465" y="-211.3" font-family="Times,serif" font-size="14.00" fill="#000000">18</text>
</g>
<!-- block_else
16&#45;&gt;add
18 -->
<g id="edge9" class="edge">
<title>block_else
16&#45;&gt;add
18</title>
<path fill="none" stroke="#000000" d="M395.0481,-247.3582C403.2642,-244.4426 411.928,-241.3672 420,-238.5 422.7103,-237.5373 425.5123,-236.5418 428.3313,-235.5399"/>
<polygon fill="#000000" stroke="#000000" points="429.6233,-238.7953 437.8735,-232.1481 427.2788,-232.1996 429.6233,-238.7953"/>
<text text-anchor="middle" x="416.5" y="-245.3" font-family="Times,serif" font-size="14.00" fill="#000000">3</text>
</g>
<!-- block_else
16&#45;&gt;add
18 -->
<g id="edge13" class="edge">
<title>block_else
16&#45;&gt;add
18</title>
<path fill="none" stroke="#000000" d="M377.0878,-241.4598C386.9336,-232.9814 399.6612,-223.9247 413,-219.5 417.6374,-217.9617 422.6337,-217.2064 427.6308,-216.972"/>
<polygon fill="#000000" stroke="#000000" points="427.7182,-220.4739 437.7744,-217.1389 427.8333,-213.4748 427.7182,-220.4739"/>
<text text-anchor="middle" x="416.5" y="-223.3" font-family="Times,serif" font-size="14.00" fill="#000000">2</text>
</g>
<!-- sub
17&#45;&gt;block_else
16 -->
<g id="edge12" class="edge">
<title>sub
17&#45;&gt;block_else
16</title>
<path fill="none" stroke="#000000" d="M437.9414,-306.1069C432.0449,-302.5788 425.8267,-298.8918 420,-295.5 413.9711,-291.9904 407.5871,-288.3272 401.2976,-284.7487"/>
<polygon fill="#000000" stroke="#000000" points="402.6284,-281.4799 392.2028,-279.5941 399.1769,-287.5699 402.6284,-281.4799"/>
<text text-anchor="middle" x="416.5" y="-299.3" font-family="Times,serif" font-size="14.00" fill="#000000">2</text>
</g>
<!-- one
19 -->
<g id="node9" class="node">
<title>one
19</title>
<polygon fill="none" stroke="#000000" points="555.5,-305.5 555.5,-343.5 609.5,-343.5 609.5,-305.5 555.5,-305.5"/>
<text text-anchor="middle" x="582.5" y="-328.3" font-family="Times,serif" font-size="14.00" fill="#000000">one</text>
<text text-anchor="middle" x="582.5" y="-313.3" font-family="Times,serif" font-size="14.00" fill="#000000">19</text>
</g>
<!-- sub
17&#45;&gt;one
19 -->
<g id="edge10" class="edge">
<title>sub
17&#45;&gt;one
19</title>
<path fill="none" stroke="#000000" d="M492.2522,-322.9639C507.972,-323.2314 527.9633,-323.5717 545.1331,-323.864"/>
<polygon fill="#000000" stroke="#000000" points="545.3374,-327.3679 555.3956,-324.0386 545.4566,-320.3689 545.3374,-327.3679"/>
<text text-anchor="middle" x="513.5" y="-327.3" font-family="Times,serif" font-size="14.00" fill="#000000">3</text>
</g>
<!-- add
18&#45;&gt;block_else
16 -->
<g id="edge64" class="edge">
<title>add
18&#45;&gt;block_else
16</title>
<path fill="none" stroke="#000000" d="M441.6938,-203.3906C432.721,-198.3411 422.3801,-195.3275 413,-199.5 397.439,-206.4218 384.4261,-220.1628 374.9709,-232.8533"/>
<polygon fill="#000000" stroke="#000000" points="371.8734,-231.1751 369.0057,-241.3745 377.6079,-235.1895 371.8734,-231.1751"/>
<text text-anchor="middle" x="416.5" y="-203.3" font-family="Times,serif" font-size="14.00" fill="#000000">6</text>
</g>
<!-- fcall:geoCallR
geo
20 -->
<g id="node10" class="node">
<title>fcall:geoCallR
geo
20</title>
<polygon fill="none" stroke="#000000" points="535,-196 535,-249 630,-249 630,-196 535,-196"/>
<text text-anchor="middle" x="582.5" y="-233.8" font-family="Times,serif" font-size="14.00" fill="#000000">fcall:geoCallR</text>
<text text-anchor="middle" x="582.5" y="-218.8" font-family="Times,serif" font-size="14.00" fill="#000000">geo</text>
<text text-anchor="middle" x="582.5" y="-203.8" font-family="Times,serif" font-size="14.00" fill="#000000">20</text>
</g>
<!-- add
18&#45;&gt;fcall:geoCallR
geo
20 -->
<g id="edge14" class="edge">
<title>add
18&#45;&gt;fcall:geoCallR
geo
20</title>
<path fill="none" stroke="#000000" d="M492.2522,-222.5C501.9065,-222.5 513.172,-222.5 524.4055,-222.5"/>
<polygon fill="#000000" stroke="#000000" points="524.6659,-226.0001 534.6659,-222.5 524.6659,-219.0001 524.6659,-226.0001"/>
<text text-anchor="middle" x="513.5" y="-226.3" font-family="Times,serif" font-size="14.00" fill="#000000">2</text>
</g>
<!-- one
19&#45;&gt;sub
17 -->
<g id="edge11" class="edge">
<title>one
19&#45;&gt;sub
17</title>
<path fill="none" stroke="#000000" d="M555.1997,-310.7905C541.7148,-305.608 525.1292,-301.5864 510,-304.5 507.3044,-305.0191 504.5649,-305.6983 501.8367,-306.4883"/>
<polygon fill="#000000" stroke="#000000" points="500.4756,-303.2529 492.1038,-309.7461 502.6976,-309.8909 500.4756,-303.2529"/>
<text text-anchor="middle" x="513.5" y="-308.3" font-family="Times,serif" font-size="14.00" fill="#000000">1</text>
</g>
<!-- fcall:geoCallR
geo
20&#45;&gt;add
18 -->
<g id="edge63" class="edge">
<title>fcall:geoCallR
geo
20&#45;&gt;add
18</title>
<path fill="none" stroke="#000000" d="M534.7109,-203.6121C526.5052,-202.198 518.0345,-201.8734 510,-203.5 507.1948,-204.0679 504.3471,-204.8164 501.5169,-205.6878"/>
<polygon fill="#000000" stroke="#000000" points="500.3066,-202.4033 492.0489,-209.0411 502.6436,-209.0017 500.3066,-202.4033"/>
<text text-anchor="middle" x="513.5" y="-207.3" font-family="Times,serif" font-size="14.00" fill="#000000">3</text>
</g>
<!-- geo
21 -->
<g id="node11" class="node">
<title>geo
21</title>
<polygon fill="none" stroke="#000000" points="673,-203.5 673,-241.5 727,-241.5 727,-203.5 673,-203.5"/>
<text text-anchor="middle" x="700" y="-226.3" font-family="Times,serif" font-size="14.00" fill="#000000">geo</text>
<text text-anchor="middle" x="700" y="-211.3" font-family="Times,serif" font-size="14.00" fill="#000000">21</text>
</g>
<!-- fcall:geoCallR
geo
20&#45;&gt;geo
21 -->
<g id="edge15" class="edge">
<title>fcall:geoCallR
geo
20&#45;&gt;geo
21</title>
<path fill="none" stroke="#000000" d="M630.2917,-222.5C641.0433,-222.5 652.3024,-222.5 662.5592,-222.5"/>
<polygon fill="#000000" stroke="#000000" points="662.8218,-226.0001 672.8217,-222.5 662.8217,-219.0001 662.8218,-226.0001"/>
<text text-anchor="middle" x="651.5" y="-226.3" font-family="Times,serif" font-size="14.00" fill="#000000">2</text>
</g>
<!-- geo
21&#45;&gt;fcall:geoCallR
geo
20 -->
<g id="edge62" class="edge">
<title>geo
21&#45;&gt;fcall:geoCallR
geo
20</title>
<path fill="none" stroke="#000000" d="M672.9511,-209.0411C667.1622,-206.7446 660.9844,-204.7116 655,-203.5 650.2295,-202.5342 645.3053,-202.2563 640.374,-202.4859"/>
<polygon fill="#000000" stroke="#000000" points="639.8388,-199.0238 630.2891,-203.6121 640.6158,-205.9805 639.8388,-199.0238"/>
<text text-anchor="middle" x="651.5" y="-207.3" font-family="Times,serif" font-size="14.00" fill="#000000">3</text>
</g>
<!-- if
22 -->
<g id="node12" class="node">
<title>if
22</title>
<polygon fill="none" stroke="#000000" points="770,-203.5 770,-241.5 824,-241.5 824,-203.5 770,-203.5"/>
<text text-anchor="middle" x="797" y="-226.3" font-family="Times,serif" font-size="14.00" fill="#000000">if</text>
<text text-anchor="middle" x="797" y="-211.3" font-family="Times,serif" font-size="14.00" fill="#000000">22</text>
</g>
<!-- geo
21&#45;&gt;if
22 -->
<g id="edge16" class="edge">
<title>geo
21&#45;&gt;if
22</title>
<path fill="none" stroke="#000000" d="M727.0199,-222.5C737.1304,-222.5 748.8016,-222.5 759.6794,-222.5"/>
<polygon fill="#000000" stroke="#000000" points="759.7886,-226.0001 769.7886,-222.5 759.7885,-219.0001 759.7886,-226.0001"/>
<text text-anchor="middle" x="748.5" y="-226.3" font-family="Times,serif" font-size="14.00" fill="#000000">2</text>
</g>
<!-- if
22&#45;&gt;geo
21 -->
<g id="edge61" class="edge">
<title>if
22&#45;&gt;geo
21</title>
<path fill="none" stroke="#000000" d="M769.9198,-206.5234C762.0251,-203.5423 753.29,-201.8216 745,-203.5 742.1948,-204.0679 739.3471,-204.8164 736.5169,-205.6878"/>
<polygon fill="#000000" stroke="#000000" points="735.3066,-202.4033 727.0489,-209.0411 737.6436,-209.0017 735.3066,-202.4033"/>
<text text-anchor="middle" x="748.5" y="-207.3" font-family="Times,serif" font-size="14.00" fill="#000000">3</text>
</g>
<!-- eq
23 -->
<g id="node13" class="node">
<title>eq
23</title>
<polygon fill="none" stroke="#000000" points="896,-260.5 896,-298.5 950,-298.5 950,-260.5 896,-260.5"/>
<text text-anchor="middle" x="923" y="-283.3" font-family="Times,serif" font-size="14.00" fill="#000000">eq</text>
<text text-anchor="middle" x="923" y="-268.3" font-family="Times,serif" font-size="14.00" fill="#000000">23</text>
</g>
<!-- if
22&#45;&gt;eq
23 -->
<g id="edge17" class="edge">
<title>if
22&#45;&gt;eq
23</title>
<path fill="none" stroke="#000000" d="M818.2545,-241.8155C825.3984,-247.5207 833.6765,-253.3437 842,-257.5 855.6379,-264.31 871.6553,-269.228 885.8304,-272.6631"/>
<polygon fill="#000000" stroke="#000000" points="885.2405,-276.118 895.7661,-274.9082 886.7834,-269.2902 885.2405,-276.118"/>
<text text-anchor="middle" x="855" y="-272.3" font-family="Times,serif" font-size="14.00" fill="#000000">2</text>
</g>
<!-- block_else
25 -->
<g id="node15" class="node">
<title>block_else
25</title>
<polygon fill="none" stroke="#000000" points="886,-146.5 886,-184.5 960,-184.5 960,-146.5 886,-146.5"/>
<text text-anchor="middle" x="923" y="-169.3" font-family="Times,serif" font-size="14.00" fill="#000000">block_else</text>
<text text-anchor="middle" x="923" y="-154.3" font-family="Times,serif" font-size="14.00" fill="#000000">25</text>
</g>
<!-- if
22&#45;&gt;block_else
25 -->
<g id="edge21" class="edge">
<title>if
22&#45;&gt;block_else
25</title>
<path fill="none" stroke="#000000" d="M824.0302,-210.2721C839.2831,-203.3719 858.7666,-194.558 876.4057,-186.5784"/>
<polygon fill="#000000" stroke="#000000" points="878.3084,-189.5592 885.9769,-182.2485 875.4232,-183.1814 878.3084,-189.5592"/>
<text text-anchor="middle" x="855" y="-205.3" font-family="Times,serif" font-size="14.00" fill="#000000">2</text>
</g>
<!-- eq
23&#45;&gt;if
22 -->
<g id="edge20" class="edge">
<title>eq
23&#45;&gt;if
22</title>
<path fill="none" stroke="#000000" d="M901.8736,-260.4674C892.1606,-252.6186 880.1184,-244.0742 868,-238.5 857.4534,-233.6488 845.332,-230.2189 834.1247,-227.8149"/>
<polygon fill="#000000" stroke="#000000" points="834.6438,-224.3505 824.1606,-225.8843 833.3122,-231.2227 834.6438,-224.3505"/>
<text text-anchor="middle" x="855" y="-242.3" font-family="Times,serif" font-size="14.00" fill="#000000">false</text>
</g>
<!-- zero
24 -->
<g id="node14" class="node">
<title>zero
24</title>
<polygon fill="none" stroke="#000000" points="1003,-274.5 1003,-312.5 1057,-312.5 1057,-274.5 1003,-274.5"/>
<text text-anchor="middle" x="1030" y="-297.3" font-family="Times,serif" font-size="14.00" fill="#000000">zero</text>
<text text-anchor="middle" x="1030" y="-282.3" font-family="Times,serif" font-size="14.00" fill="#000000">24</text>
</g>
<!-- eq
23&#45;&gt;zero
24 -->
<g id="edge18" class="edge">
<title>eq
23&#45;&gt;zero
24</title>
<path fill="none" stroke="#000000" d="M950.0816,-289.0283C958.8721,-291.6737 968.7457,-294.1813 978,-295.5 981.08,-295.9389 981.8897,-295.5691 985,-295.5 987.5312,-295.4438 990.1418,-295.3698 992.7714,-295.2834"/>
<polygon fill="#000000" stroke="#000000" points="993.0187,-298.7767 1002.879,-294.9004 992.7536,-291.7817 993.0187,-298.7767"/>
<text text-anchor="middle" x="981.5" y="-300.3" font-family="Times,serif" font-size="14.00" fill="#000000">2</text>
</g>
<!-- zero
24&#45;&gt;eq
23 -->
<g id="edge19" class="edge">
<title>zero
24&#45;&gt;eq
23</title>
<path fill="none" stroke="#000000" d="M1002.8439,-281.4517C997.0627,-279.3973 990.9152,-277.5801 985,-276.5 977.0242,-275.0437 968.3816,-274.7025 960.1528,-274.9467"/>
<polygon fill="#000000" stroke="#000000" points="959.8148,-271.4603 950.0325,-275.5293 960.2171,-278.4487 959.8148,-271.4603"/>
<text text-anchor="middle" x="981.5" y="-280.3" font-family="Times,serif" font-size="14.00" fill="#000000">0</text>
</g>
<!-- block_else
25&#45;&gt;if
22 -->
<g id="edge60" class="edge">
<title>block_else
25&#45;&gt;if
22</title>
<path fill="none" stroke="#000000" d="M885.9554,-163.0232C871.5818,-163.4831 855.3926,-165.8297 842,-172.5 831.5153,-177.722 822.3388,-186.527 815.0548,-195.3058"/>
<polygon fill="#000000" stroke="#000000" points="812.2563,-193.2033 808.9142,-203.2572 817.7966,-197.4819 812.2563,-193.2033"/>
<text text-anchor="middle" x="855" y="-176.3" font-family="Times,serif" font-size="14.00" fill="#000000">3</text>
</g>
<!-- sub
26 -->
<g id="node16" class="node">
<title>sub
26</title>
<polygon fill="none" stroke="#000000" points="1003,-208.5 1003,-246.5 1057,-246.5 1057,-208.5 1003,-208.5"/>
<text text-anchor="middle" x="1030" y="-231.3" font-family="Times,serif" font-size="14.00" fill="#000000">sub</text>
<text text-anchor="middle" x="1030" y="-216.3" font-family="Times,serif" font-size="14.00" fill="#000000">26</text>
</g>
<!-- block_else
25&#45;&gt;sub
26 -->
<g id="edge22" class="edge">
<title>block_else
25&#45;&gt;sub
26</title>
<path fill="none" stroke="#000000" d="M937.1996,-184.5986C947.2233,-196.6176 961.7288,-211.3483 978,-219.5 982.6281,-221.8186 987.7554,-223.5027 992.9342,-224.7196"/>
<polygon fill="#000000" stroke="#000000" points="992.3727,-228.1749 1002.8388,-226.5279 993.63,-221.2887 992.3727,-228.1749"/>
<text text-anchor="middle" x="981.5" y="-226.3" font-family="Times,serif" font-size="14.00" fill="#000000">2</text>
</g>
<!-- add
27 -->
<g id="node17" class="node">
<title>add
27</title>
<polygon fill="none" stroke="#000000" points="1003,-108.5 1003,-146.5 1057,-146.5 1057,-108.5 1003,-108.5"/>
<text text-anchor="middle" x="1030" y="-131.3" font-family="Times,serif" font-size="14.00" fill="#000000">add</text>
<text text-anchor="middle" x="1030" y="-116.3" font-family="Times,serif" font-size="14.00" fill="#000000">27</text>
</g>
<!-- block_else
25&#45;&gt;add
27 -->
<g id="edge23" class="edge">
<title>block_else
25&#45;&gt;add
27</title>
<path fill="none" stroke="#000000" d="M960.0481,-152.3582C968.2642,-149.4426 976.928,-146.3672 985,-143.5 987.7103,-142.5373 990.5123,-141.5418 993.3313,-140.5399"/>
<polygon fill="#000000" stroke="#000000" points="994.6233,-143.7953 1002.8735,-137.1481 992.2788,-137.1996 994.6233,-143.7953"/>
<text text-anchor="middle" x="981.5" y="-150.3" font-family="Times,serif" font-size="14.00" fill="#000000">2</text>
</g>
<!-- block_else
25&#45;&gt;add
27 -->
<g id="edge27" class="edge">
<title>block_else
25&#45;&gt;add
27</title>
<path fill="none" stroke="#000000" d="M942.0878,-146.4598C951.9336,-137.9814 964.6612,-128.9247 978,-124.5 982.6374,-122.9617 987.6337,-122.2064 992.6308,-121.972"/>
<polygon fill="#000000" stroke="#000000" points="992.7182,-125.4739 1002.7744,-122.1389 992.8333,-118.4748 992.7182,-125.4739"/>
<text text-anchor="middle" x="981.5" y="-128.3" font-family="Times,serif" font-size="14.00" fill="#000000">1</text>
</g>
<!-- sub
26&#45;&gt;block_else
25 -->
<g id="edge26" class="edge">
<title>sub
26&#45;&gt;block_else
25</title>
<path fill="none" stroke="#000000" d="M1002.9414,-211.1069C997.0449,-207.5788 990.8267,-203.8918 985,-200.5 978.9711,-196.9904 972.5871,-193.3272 966.2976,-189.7487"/>
<polygon fill="#000000" stroke="#000000" points="967.6284,-186.4799 957.2028,-184.5941 964.1769,-192.5699 967.6284,-186.4799"/>
<text text-anchor="middle" x="981.5" y="-204.3" font-family="Times,serif" font-size="14.00" fill="#000000">1</text>
</g>
<!-- one
28 -->
<g id="node18" class="node">
<title>one
28</title>
<polygon fill="none" stroke="#000000" points="1120.5,-210.5 1120.5,-248.5 1174.5,-248.5 1174.5,-210.5 1120.5,-210.5"/>
<text text-anchor="middle" x="1147.5" y="-233.3" font-family="Times,serif" font-size="14.00" fill="#000000">one</text>
<text text-anchor="middle" x="1147.5" y="-218.3" font-family="Times,serif" font-size="14.00" fill="#000000">28</text>
</g>
<!-- sub
26&#45;&gt;one
28 -->
<g id="edge24" class="edge">
<title>sub
26&#45;&gt;one
28</title>
<path fill="none" stroke="#000000" d="M1057.2522,-227.9639C1072.972,-228.2314 1092.9633,-228.5717 1110.1331,-228.864"/>
<polygon fill="#000000" stroke="#000000" points="1110.3374,-232.3679 1120.3956,-229.0386 1110.4566,-225.3689 1110.3374,-232.3679"/>
<text text-anchor="middle" x="1078.5" y="-232.3" font-family="Times,serif" font-size="14.00" fill="#000000">2</text>
</g>
<!-- add
27&#45;&gt;block_else
25 -->
<g id="edge59" class="edge">
<title>add
27&#45;&gt;block_else
25</title>
<path fill="none" stroke="#000000" d="M1006.6938,-108.3906C997.721,-103.3411 987.3801,-100.3275 978,-104.5 962.439,-111.4218 949.4261,-125.1628 939.9709,-137.8533"/>
<polygon fill="#000000" stroke="#000000" points="936.8734,-136.1751 934.0057,-146.3745 942.6079,-140.1895 936.8734,-136.1751"/>
<text text-anchor="middle" x="981.5" y="-108.3" font-family="Times,serif" font-size="14.00" fill="#000000">3</text>
</g>
<!-- fcall:geoCallR
geo
29 -->
<g id="node19" class="node">
<title>fcall:geoCallR
geo
29</title>
<polygon fill="none" stroke="#000000" points="1100,-101 1100,-154 1195,-154 1195,-101 1100,-101"/>
<text text-anchor="middle" x="1147.5" y="-138.8" font-family="Times,serif" font-size="14.00" fill="#000000">fcall:geoCallR</text>
<text text-anchor="middle" x="1147.5" y="-123.8" font-family="Times,serif" font-size="14.00" fill="#000000">geo</text>
<text text-anchor="middle" x="1147.5" y="-108.8" font-family="Times,serif" font-size="14.00" fill="#000000">29</text>
</g>
<!-- add
27&#45;&gt;fcall:geoCallR
geo
29 -->
<g id="edge28" class="edge">
<title>add
27&#45;&gt;fcall:geoCallR
geo
29</title>
<path fill="none" stroke="#000000" d="M1057.2522,-127.5C1066.9065,-127.5 1078.172,-127.5 1089.4055,-127.5"/>
<polygon fill="#000000" stroke="#000000" points="1089.6659,-131.0001 1099.6659,-127.5 1089.6659,-124.0001 1089.6659,-131.0001"/>
<text text-anchor="middle" x="1078.5" y="-131.3" font-family="Times,serif" font-size="14.00" fill="#000000">1</text>
</g>
<!-- one
28&#45;&gt;sub
26 -->
<g id="edge25" class="edge">
<title>one
28&#45;&gt;sub
26</title>
<path fill="none" stroke="#000000" d="M1120.1997,-215.7905C1106.7148,-210.608 1090.1292,-206.5864 1075,-209.5 1072.3044,-210.0191 1069.5649,-210.6983 1066.8367,-211.4883"/>
<polygon fill="#000000" stroke="#000000" points="1065.4756,-208.2529 1057.1038,-214.7461 1067.6976,-214.8909 1065.4756,-208.2529"/>
<text text-anchor="middle" x="1078.5" y="-213.3" font-family="Times,serif" font-size="14.00" fill="#000000">1</text>
</g>
<!-- fcall:geoCallR
geo
29&#45;&gt;add
27 -->
<g id="edge58" class="edge">
<title>fcall:geoCallR
geo
29&#45;&gt;add
27</title>
<path fill="none" stroke="#000000" d="M1099.7109,-108.6121C1091.5052,-107.198 1083.0345,-106.8734 1075,-108.5 1072.1948,-109.0679 1069.3471,-109.8164 1066.5169,-110.6878"/>
<polygon fill="#000000" stroke="#000000" points="1065.3066,-107.4033 1057.0489,-114.0411 1067.6436,-114.0017 1065.3066,-107.4033"/>
<text text-anchor="middle" x="1078.5" y="-112.3" font-family="Times,serif" font-size="14.00" fill="#000000">1</text>
</g>
<!-- geo
30 -->
<g id="node20" class="node">
<title>geo
30</title>
<polygon fill="none" stroke="#000000" points="1238,-108.5 1238,-146.5 1292,-146.5 1292,-108.5 1238,-108.5"/>
<text text-anchor="middle" x="1265" y="-131.3" font-family="Times,serif" font-size="14.00" fill="#000000">geo</text>
<text text-anchor="middle" x="1265" y="-116.3" font-family="Times,serif" font-size="14.00" fill="#000000">30</text>
</g>
<!-- fcall:geoCallR
geo
29&#45;&gt;geo
30 -->
<g id="edge29" class="edge">
<title>fcall:geoCallR
geo
29&#45;&gt;geo
30</title>
<path fill="none" stroke="#000000" d="M1195.2917,-127.5C1206.0433,-127.5 1217.3024,-127.5 1227.5592,-127.5"/>
<polygon fill="#000000" stroke="#000000" points="1227.8218,-131.0001 1237.8217,-127.5 1227.8217,-124.0001 1227.8218,-131.0001"/>
<text text-anchor="middle" x="1216.5" y="-131.3" font-family="Times,serif" font-size="14.00" fill="#000000">1</text>
</g>
<!-- geo
30&#45;&gt;fcall:geoCallR
geo
29 -->
<g id="edge57" class="edge">
<title>geo
30&#45;&gt;fcall:geoCallR
geo
29</title>
<path fill="none" stroke="#000000" d="M1237.9511,-114.0411C1232.1622,-111.7446 1225.9844,-109.7116 1220,-108.5 1215.2295,-107.5342 1210.3053,-107.2563 1205.374,-107.4859"/>
<polygon fill="#000000" stroke="#000000" points="1204.8388,-104.0238 1195.2891,-108.6121 1205.6158,-110.9805 1204.8388,-104.0238"/>
<text text-anchor="middle" x="1216.5" y="-112.3" font-family="Times,serif" font-size="14.00" fill="#000000">1</text>
</g>
<!-- if
31 -->
<g id="node21" class="node">
<title>if
31</title>
<polygon fill="none" stroke="#000000" points="1335,-108.5 1335,-146.5 1389,-146.5 1389,-108.5 1335,-108.5"/>
<text text-anchor="middle" x="1362" y="-131.3" font-family="Times,serif" font-size="14.00" fill="#000000">if</text>
<text text-anchor="middle" x="1362" y="-116.3" font-family="Times,serif" font-size="14.00" fill="#000000">31</text>
</g>
<!-- geo
30&#45;&gt;if
31 -->
<g id="edge30" class="edge">
<title>geo
30&#45;&gt;if
31</title>
<path fill="none" stroke="#000000" d="M1292.0199,-127.5C1302.1304,-127.5 1313.8016,-127.5 1324.6794,-127.5"/>
<polygon fill="#000000" stroke="#000000" points="1324.7886,-131.0001 1334.7886,-127.5 1324.7885,-124.0001 1324.7886,-131.0001"/>
<text text-anchor="middle" x="1313.5" y="-131.3" font-family="Times,serif" font-size="14.00" fill="#000000">1</text>
</g>
<!-- if
31&#45;&gt;geo
30 -->
<g id="edge56" class="edge">
<title>if
31&#45;&gt;geo
30</title>
<path fill="none" stroke="#000000" d="M1334.9511,-114.0411C1329.1622,-111.7446 1322.9844,-109.7116 1317,-108.5 1312.0778,-107.5035 1306.9987,-107.7052 1302.0318,-108.6576"/>
<polygon fill="#000000" stroke="#000000" points="1300.7211,-105.3927 1292.0802,-111.5234 1302.6583,-112.1194 1300.7211,-105.3927"/>
<text text-anchor="middle" x="1313.5" y="-112.3" font-family="Times,serif" font-size="14.00" fill="#000000">1</text>
</g>
<!-- eq
32 -->
<g id="node22" class="node">
<title>eq
32</title>
<polygon fill="none" stroke="#000000" points="1461,-165.5 1461,-203.5 1515,-203.5 1515,-165.5 1461,-165.5"/>
<text text-anchor="middle" x="1488" y="-188.3" font-family="Times,serif" font-size="14.00" fill="#000000">eq</text>
<text text-anchor="middle" x="1488" y="-173.3" font-family="Times,serif" font-size="14.00" fill="#000000">32</text>
</g>
<!-- if
31&#45;&gt;eq
32 -->
<g id="edge31" class="edge">
<title>if
31&#45;&gt;eq
32</title>
<path fill="none" stroke="#000000" d="M1383.2545,-146.8155C1390.3984,-152.5207 1398.6765,-158.3437 1407,-162.5 1420.6379,-169.31 1436.6553,-174.228 1450.8304,-177.6631"/>
<polygon fill="#000000" stroke="#000000" points="1450.2405,-181.118 1460.7661,-179.9082 1451.7834,-174.2902 1450.2405,-181.118"/>
<text text-anchor="middle" x="1420" y="-177.3" font-family="Times,serif" font-size="14.00" fill="#000000">1</text>
</g>
<!-- block_else
34 -->
<g id="node24" class="node">
<title>block_else
34</title>
<polygon fill="none" stroke="#000000" points="1451,-51.5 1451,-89.5 1525,-89.5 1525,-51.5 1451,-51.5"/>
<text text-anchor="middle" x="1488" y="-74.3" font-family="Times,serif" font-size="14.00" fill="#000000">block_else</text>
<text text-anchor="middle" x="1488" y="-59.3" font-family="Times,serif" font-size="14.00" fill="#000000">34</text>
</g>
<!-- if
31&#45;&gt;block_else
34 -->
<g id="edge35" class="edge">
<title>if
31&#45;&gt;block_else
34</title>
<path fill="none" stroke="#000000" d="M1389.0302,-115.2721C1404.2831,-108.3719 1423.7666,-99.558 1441.4057,-91.5784"/>
<polygon fill="#000000" stroke="#000000" points="1443.3084,-94.5592 1450.9769,-87.2485 1440.4232,-88.1814 1443.3084,-94.5592"/>
<text text-anchor="middle" x="1420" y="-110.3" font-family="Times,serif" font-size="14.00" fill="#000000">1</text>
</g>
<!-- eq
32&#45;&gt;if
31 -->
<g id="edge34" class="edge">
<title>eq
32&#45;&gt;if
31</title>
<path fill="none" stroke="#000000" d="M1466.8736,-165.4674C1457.1606,-157.6186 1445.1184,-149.0742 1433,-143.5 1422.4534,-138.6488 1410.332,-135.2189 1399.1247,-132.8149"/>
<polygon fill="#000000" stroke="#000000" points="1399.6438,-129.3505 1389.1606,-130.8843 1398.3122,-136.2227 1399.6438,-129.3505"/>
<text text-anchor="middle" x="1420" y="-147.3" font-family="Times,serif" font-size="14.00" fill="#000000">false</text>
</g>
<!-- zero
33 -->
<g id="node23" class="node">
<title>zero
33</title>
<polygon fill="none" stroke="#000000" points="1568,-178.5 1568,-216.5 1622,-216.5 1622,-178.5 1568,-178.5"/>
<text text-anchor="middle" x="1595" y="-201.3" font-family="Times,serif" font-size="14.00" fill="#000000">zero</text>
<text text-anchor="middle" x="1595" y="-186.3" font-family="Times,serif" font-size="14.00" fill="#000000">33</text>
</g>
<!-- eq
32&#45;&gt;zero
33 -->
<g id="edge32" class="edge">
<title>eq
32&#45;&gt;zero
33</title>
<path fill="none" stroke="#000000" d="M1515.0816,-194.0283C1523.8721,-196.6737 1533.7457,-199.1813 1543,-200.5 1546.08,-200.9389 1546.8906,-200.6035 1550,-200.5 1552.5335,-200.4156 1555.1459,-200.3046 1557.7768,-200.1751"/>
<polygon fill="#000000" stroke="#000000" points="1558.1018,-203.6624 1567.8871,-199.6005 1557.7046,-196.6736 1558.1018,-203.6624"/>
<text text-anchor="middle" x="1546.5" y="-205.3" font-family="Times,serif" font-size="14.00" fill="#000000">1</text>
</g>
<!-- zero
33&#45;&gt;eq
32 -->
<g id="edge33" class="edge">
<title>zero
33&#45;&gt;eq
32</title>
<path fill="none" stroke="#000000" d="M1567.7941,-186.1577C1562.0165,-184.2244 1555.8831,-182.5148 1550,-181.5 1542.0104,-180.1219 1533.362,-179.8129 1525.1321,-180.0636"/>
<polygon fill="#000000" stroke="#000000" points="1524.7963,-176.577 1515.0124,-180.6423 1525.1959,-183.5656 1524.7963,-176.577"/>
<text text-anchor="middle" x="1546.5" y="-185.3" font-family="Times,serif" font-size="14.00" fill="#000000">0</text>
</g>
<!-- block_else
34&#45;&gt;if
31 -->
<g id="edge55" class="edge">
<title>block_else
34&#45;&gt;if
31</title>
<path fill="none" stroke="#000000" d="M1450.9554,-68.0232C1436.5818,-68.4831 1420.3926,-70.8297 1407,-77.5 1396.5153,-82.722 1387.3388,-91.527 1380.0548,-100.3058"/>
<polygon fill="#000000" stroke="#000000" points="1377.2563,-98.2033 1373.9142,-108.2572 1382.7966,-102.4819 1377.2563,-98.2033"/>
<text text-anchor="middle" x="1420" y="-81.3" font-family="Times,serif" font-size="14.00" fill="#000000">1</text>
</g>
<!-- sub
35 -->
<g id="node25" class="node">
<title>sub
35</title>
<polygon fill="none" stroke="#000000" points="1568,-113.5 1568,-151.5 1622,-151.5 1622,-113.5 1568,-113.5"/>
<text text-anchor="middle" x="1595" y="-136.3" font-family="Times,serif" font-size="14.00" fill="#000000">sub</text>
<text text-anchor="middle" x="1595" y="-121.3" font-family="Times,serif" font-size="14.00" fill="#000000">35</text>
</g>
<!-- block_else
34&#45;&gt;sub
35 -->
<g id="edge36" class="edge">
<title>block_else
34&#45;&gt;sub
35</title>
<path fill="none" stroke="#000000" d="M1502.1996,-89.5986C1512.2233,-101.6176 1526.7288,-116.3483 1543,-124.5 1547.6281,-126.8186 1552.7554,-128.5027 1557.9342,-129.7196"/>
<polygon fill="#000000" stroke="#000000" points="1557.3727,-133.1749 1567.8388,-131.5279 1558.63,-126.2887 1557.3727,-133.1749"/>
<text text-anchor="middle" x="1546.5" y="-131.3" font-family="Times,serif" font-size="14.00" fill="#000000">1</text>
</g>
<!-- add
36 -->
<g id="node26" class="node">
<title>add
36</title>
<polygon fill="none" stroke="#000000" points="1568,-13.5 1568,-51.5 1622,-51.5 1622,-13.5 1568,-13.5"/>
<text text-anchor="middle" x="1595" y="-36.3" font-family="Times,serif" font-size="14.00" fill="#000000">add</text>
<text text-anchor="middle" x="1595" y="-21.3" font-family="Times,serif" font-size="14.00" fill="#000000">36</text>
</g>
<!-- block_else
34&#45;&gt;add
36 -->
<g id="edge37" class="edge">
<title>block_else
34&#45;&gt;add
36</title>
<path fill="none" stroke="#000000" d="M1525.0481,-57.3582C1533.2642,-54.4426 1541.928,-51.3672 1550,-48.5 1552.7103,-47.5373 1555.5123,-46.5418 1558.3313,-45.5399"/>
<polygon fill="#000000" stroke="#000000" points="1559.6233,-48.7953 1567.8735,-42.1481 1557.2788,-42.1996 1559.6233,-48.7953"/>
<text text-anchor="middle" x="1546.5" y="-55.3" font-family="Times,serif" font-size="14.00" fill="#000000">1</text>
</g>
<!-- block_else
34&#45;&gt;add
36 -->
<g id="edge41" class="edge">
<title>block_else
34&#45;&gt;add
36</title>
<path fill="none" stroke="#000000" d="M1507.0878,-51.4598C1516.9336,-42.9814 1529.6612,-33.9247 1543,-29.5 1547.6374,-27.9617 1552.6337,-27.2064 1557.6308,-26.972"/>
<polygon fill="#000000" stroke="#000000" points="1557.7182,-30.4739 1567.7744,-27.1389 1557.8333,-23.4748 1557.7182,-30.4739"/>
<text text-anchor="middle" x="1546.5" y="-33.3" font-family="Times,serif" font-size="14.00" fill="#000000">0</text>
</g>
<!-- sub
35&#45;&gt;block_else
34 -->
<g id="edge40" class="edge">
<title>sub
35&#45;&gt;block_else
34</title>
<path fill="none" stroke="#000000" d="M1567.9414,-116.1069C1562.0449,-112.5788 1555.8267,-108.8918 1550,-105.5 1543.9711,-101.9904 1537.5871,-98.3272 1531.2976,-94.7487"/>
<polygon fill="#000000" stroke="#000000" points="1532.6284,-91.4799 1522.2028,-89.5941 1529.1769,-97.5699 1532.6284,-91.4799"/>
<text text-anchor="middle" x="1546.5" y="-109.3" font-family="Times,serif" font-size="14.00" fill="#000000">0</text>
</g>
<!-- one
37 -->
<g id="node27" class="node">
<title>one
37</title>
<polygon fill="none" stroke="#000000" points="1685.5,-115.5 1685.5,-153.5 1739.5,-153.5 1739.5,-115.5 1685.5,-115.5"/>
<text text-anchor="middle" x="1712.5" y="-138.3" font-family="Times,serif" font-size="14.00" fill="#000000">one</text>
<text text-anchor="middle" x="1712.5" y="-123.3" font-family="Times,serif" font-size="14.00" fill="#000000">37</text>
</g>
<!-- sub
35&#45;&gt;one
37 -->
<g id="edge38" class="edge">
<title>sub
35&#45;&gt;one
37</title>
<path fill="none" stroke="#000000" d="M1622.087,-136.0004C1627.9818,-136.6248 1634.1921,-137.1783 1640,-137.5 1651.46,-138.1347 1663.9459,-137.9377 1675.2758,-137.4205"/>
<polygon fill="#000000" stroke="#000000" points="1675.5004,-140.9135 1685.2934,-136.8702 1675.1164,-133.9241 1675.5004,-140.9135"/>
<text text-anchor="middle" x="1643.5" y="-142.3" font-family="Times,serif" font-size="14.00" fill="#000000">1</text>
</g>
<!-- add
36&#45;&gt;block_else
34 -->
<g id="edge54" class="edge">
<title>add
36&#45;&gt;block_else
34</title>
<path fill="none" stroke="#000000" d="M1571.6938,-13.3906C1562.721,-8.3411 1552.3801,-5.3275 1543,-9.5 1527.439,-16.4218 1514.4261,-30.1628 1504.9709,-42.8533"/>
<polygon fill="#000000" stroke="#000000" points="1501.8734,-41.1751 1499.0057,-51.3745 1507.6079,-45.1895 1501.8734,-41.1751"/>
<text text-anchor="middle" x="1546.5" y="-13.3" font-family="Times,serif" font-size="14.00" fill="#000000">1</text>
</g>
<!-- fcall:geoCallR
geo
38 -->
<g id="node28" class="node">
<title>fcall:geoCallR
geo
38</title>
<polygon fill="none" stroke="#000000" points="1665,-26 1665,-79 1760,-79 1760,-26 1665,-26"/>
<text text-anchor="middle" x="1712.5" y="-63.8" font-family="Times,serif" font-size="14.00" fill="#000000">fcall:geoCallR</text>
<text text-anchor="middle" x="1712.5" y="-48.8" font-family="Times,serif" font-size="14.00" fill="#000000">geo</text>
<text text-anchor="middle" x="1712.5" y="-33.8" font-family="Times,serif" font-size="14.00" fill="#000000">38</text>
</g>
<!-- add
36&#45;&gt;fcall:geoCallR
geo
38 -->
<g id="edge42" class="edge">
<title>add
36&#45;&gt;fcall:geoCallR
geo
38</title>
<path fill="none" stroke="#000000" d="M1622.4556,-40.5244C1628.2151,-42.0094 1634.278,-43.4277 1640,-44.5 1644.7297,-45.3863 1649.6527,-46.1858 1654.6074,-46.9047"/>
<polygon fill="#000000" stroke="#000000" points="1654.3936,-50.4073 1664.7704,-48.2691 1655.325,-43.4695 1654.3936,-50.4073"/>
<text text-anchor="middle" x="1643.5" y="-50.3" font-family="Times,serif" font-size="14.00" fill="#000000">0</text>
</g>
<!-- one
37&#45;&gt;sub
35 -->
<g id="edge39" class="edge">
<title>one
37&#45;&gt;sub
35</title>
<path fill="none" stroke="#000000" d="M1685.4621,-123.6777C1671.8967,-119.4908 1655.1646,-116.1955 1640,-118.5 1637.452,-118.8872 1634.8497,-119.3911 1632.245,-119.9771"/>
<polygon fill="#000000" stroke="#000000" points="1631.0907,-116.661 1622.2974,-122.571 1632.857,-123.4345 1631.0907,-116.661"/>
<text text-anchor="middle" x="1643.5" y="-122.3" font-family="Times,serif" font-size="14.00" fill="#000000">1</text>
</g>
<!-- fcall:geoCallR
geo
38&#45;&gt;add
36 -->
<g id="edge53" class="edge">
<title>fcall:geoCallR
geo
38&#45;&gt;add
36</title>
<path fill="none" stroke="#000000" d="M1664.8768,-30.3852C1658.9606,-28.3825 1652.9121,-26.6707 1647,-25.5 1642.225,-24.5544 1637.1777,-24.3086 1632.1798,-24.5116"/>
<polygon fill="#000000" stroke="#000000" points="1631.714,-21.0402 1622.0935,-25.4783 1632.3819,-28.0082 1631.714,-21.0402"/>
<text text-anchor="middle" x="1643.5" y="-29.3" font-family="Times,serif" font-size="14.00" fill="#000000">0</text>
</g>
<!-- geo
39 -->
<g id="node29" class="node">
<title>geo
39</title>
<polygon fill="none" stroke="#000000" points="1803,-33.5 1803,-71.5 1857,-71.5 1857,-33.5 1803,-33.5"/>
<text text-anchor="middle" x="1830" y="-56.3" font-family="Times,serif" font-size="14.00" fill="#000000">geo</text>
<text text-anchor="middle" x="1830" y="-41.3" font-family="Times,serif" font-size="14.00" fill="#000000">39</text>
</g>
<!-- fcall:geoCallR
geo
38&#45;&gt;geo
39 -->
<g id="edge43" class="edge">
<title>fcall:geoCallR
geo
38&#45;&gt;geo
39</title>
<path fill="none" stroke="#000000" d="M1760.2917,-52.5C1771.0433,-52.5 1782.3024,-52.5 1792.5592,-52.5"/>
<polygon fill="#000000" stroke="#000000" points="1792.8218,-56.0001 1802.8217,-52.5 1792.8217,-49.0001 1792.8218,-56.0001"/>
<text text-anchor="middle" x="1781.5" y="-56.3" font-family="Times,serif" font-size="14.00" fill="#000000">0</text>
</g>
<!-- geo
39&#45;&gt;fcall:geoCallR
geo
38 -->
<g id="edge52" class="edge">
<title>geo
39&#45;&gt;fcall:geoCallR
geo
38</title>
<path fill="none" stroke="#000000" d="M1802.9511,-39.0411C1797.1622,-36.7446 1790.9844,-34.7116 1785,-33.5 1780.2295,-32.5342 1775.3053,-32.2563 1770.374,-32.4859"/>
<polygon fill="#000000" stroke="#000000" points="1769.8388,-29.0238 1760.2891,-33.6121 1770.6158,-35.9805 1769.8388,-29.0238"/>
<text text-anchor="middle" x="1781.5" y="-37.3" font-family="Times,serif" font-size="14.00" fill="#000000">0</text>
</g>
<!-- if
40 -->
<g id="node30" class="node">
<title>if
40</title>
<polygon fill="none" stroke="#000000" points="1900,-33.5 1900,-71.5 1954,-71.5 1954,-33.5 1900,-33.5"/>
<text text-anchor="middle" x="1927" y="-56.3" font-family="Times,serif" font-size="14.00" fill="#000000">if</text>
<text text-anchor="middle" x="1927" y="-41.3" font-family="Times,serif" font-size="14.00" fill="#000000">40</text>
</g>
<!-- geo
39&#45;&gt;if
40 -->
<g id="edge44" class="edge">
<title>geo
39&#45;&gt;if
40</title>
<path fill="none" stroke="#000000" d="M1857.0199,-52.5C1867.1304,-52.5 1878.8016,-52.5 1889.6794,-52.5"/>
<polygon fill="#000000" stroke="#000000" points="1889.7886,-56.0001 1899.7886,-52.5 1889.7885,-49.0001 1889.7886,-56.0001"/>
<text text-anchor="middle" x="1878.5" y="-56.3" font-family="Times,serif" font-size="14.00" fill="#000000">0</text>
</g>
<!-- if
40&#45;&gt;geo
39 -->
<g id="edge51" class="edge">
<title>if
40&#45;&gt;geo
39</title>
<path fill="none" stroke="#000000" d="M1899.9511,-39.0411C1894.1622,-36.7446 1887.9844,-34.7116 1882,-33.5 1877.0778,-32.5035 1871.9987,-32.7052 1867.0318,-33.6576"/>
<polygon fill="#000000" stroke="#000000" points="1865.7211,-30.3927 1857.0802,-36.5234 1867.6583,-37.1194 1865.7211,-30.3927"/>
<text text-anchor="middle" x="1878.5" y="-37.3" font-family="Times,serif" font-size="14.00" fill="#000000">0</text>
</g>
<!-- eq
41 -->
<g id="node31" class="node">
<title>eq
41</title>
<polygon fill="none" stroke="#000000" points="2012,-66.5 2012,-104.5 2066,-104.5 2066,-66.5 2012,-66.5"/>
<text text-anchor="middle" x="2039" y="-89.3" font-family="Times,serif" font-size="14.00" fill="#000000">eq</text>
<text text-anchor="middle" x="2039" y="-74.3" font-family="Times,serif" font-size="14.00" fill="#000000">41</text>
</g>
<!-- if
40&#45;&gt;eq
41 -->
<g id="edge45" class="edge">
<title>if
40&#45;&gt;eq
41</title>
<path fill="none" stroke="#000000" d="M1945.8946,-71.7018C1953.3676,-78.0019 1962.4511,-84.2237 1972,-87.5 1981.3949,-90.7234 1991.9728,-91.5752 2001.9005,-91.2783"/>
<polygon fill="#000000" stroke="#000000" points="2002.1912,-94.7668 2011.9341,-90.6045 2001.722,-87.7825 2002.1912,-94.7668"/>
<text text-anchor="middle" x="1983" y="-95.3" font-family="Times,serif" font-size="14.00" fill="#000000">0</text>
</g>
<!-- zero
43 -->
<g id="node33" class="node">
<title>zero
43</title>
<polygon fill="none" stroke="#000000" points="2012,-.5 2012,-38.5 2066,-38.5 2066,-.5 2012,-.5"/>
<text text-anchor="middle" x="2039" y="-23.3" font-family="Times,serif" font-size="14.00" fill="#000000">zero</text>
<text text-anchor="middle" x="2039" y="-8.3" font-family="Times,serif" font-size="14.00" fill="#000000">43</text>
</g>
<!-- if
40&#45;&gt;zero
43 -->
<g id="edge49" class="edge">
<title>if
40&#45;&gt;zero
43</title>
<path fill="none" stroke="#000000" d="M1954.1121,-44.5116C1968.4509,-40.2868 1986.2693,-35.0367 2001.8737,-30.439"/>
<polygon fill="#000000" stroke="#000000" points="2003.1463,-33.7129 2011.7494,-27.5292 2001.1679,-26.9983 2003.1463,-33.7129"/>
<text text-anchor="middle" x="1983" y="-43.3" font-family="Times,serif" font-size="14.00" fill="#000000">0</text>
</g>
<!-- eq
41&#45;&gt;if
40 -->
<g id="edge48" class="edge">
<title>eq
41&#45;&gt;if
40</title>
<path fill="none" stroke="#000000" d="M2011.5852,-74.5122C2005.8228,-72.381 1999.7483,-70.2644 1994,-68.5 1984.4118,-65.557 1973.9151,-62.8251 1964.1342,-60.4818"/>
<polygon fill="#000000" stroke="#000000" points="1964.8015,-57.0437 1954.2686,-58.188 1963.2162,-63.8618 1964.8015,-57.0437"/>
<text text-anchor="middle" x="1983" y="-72.3" font-family="Times,serif" font-size="14.00" fill="#000000">true</text>
</g>
<!-- zero
42 -->
<g id="node32" class="node">
<title>zero
42</title>
<polygon fill="none" stroke="#000000" points="2109,-66.5 2109,-104.5 2163,-104.5 2163,-66.5 2109,-66.5"/>
<text text-anchor="middle" x="2136" y="-89.3" font-family="Times,serif" font-size="14.00" fill="#000000">zero</text>
<text text-anchor="middle" x="2136" y="-74.3" font-family="Times,serif" font-size="14.00" fill="#000000">42</text>
</g>
<!-- eq
41&#45;&gt;zero
42 -->
<g id="edge46" class="edge">
<title>eq
41&#45;&gt;zero
42</title>
<path fill="none" stroke="#000000" d="M2066.0199,-85.5C2076.1304,-85.5 2087.8016,-85.5 2098.6794,-85.5"/>
<polygon fill="#000000" stroke="#000000" points="2098.7886,-89.0001 2108.7886,-85.5 2098.7885,-82.0001 2098.7886,-89.0001"/>
<text text-anchor="middle" x="2087.5" y="-89.3" font-family="Times,serif" font-size="14.00" fill="#000000">0</text>
</g>
<!-- zero
42&#45;&gt;eq
41 -->
<g id="edge47" class="edge">
<title>zero
42&#45;&gt;eq
41</title>
<path fill="none" stroke="#000000" d="M2108.9511,-72.0411C2103.1622,-69.7446 2096.9844,-67.7116 2091,-66.5 2086.0778,-65.5035 2080.9987,-65.7052 2076.0318,-66.6576"/>
<polygon fill="#000000" stroke="#000000" points="2074.7211,-63.3927 2066.0802,-69.5234 2076.6583,-70.1194 2074.7211,-63.3927"/>
<text text-anchor="middle" x="2087.5" y="-70.3" font-family="Times,serif" font-size="14.00" fill="#000000">0</text>
</g>
<!-- zero
43&#45;&gt;if
40 -->
<g id="edge50" class="edge">
<title>zero
43&#45;&gt;if
40</title>
<path fill="none" stroke="#000000" d="M2011.879,-12.4272C1999.3977,-10.4335 1984.5978,-9.8925 1972,-14.5 1964.7376,-17.1562 1957.8389,-21.5592 1951.7228,-26.4452"/>
<polygon fill="#000000" stroke="#000000" points="1949.1251,-24.0677 1943.9072,-33.2885 1953.7364,-29.3341 1949.1251,-24.0677"/>
<text text-anchor="middle" x="1983" y="-18.3" font-family="Times,serif" font-size="14.00" fill="#000000">0</text>
</g>
</g>
</svg>
