<?xml version="1.0" encoding="UTF-8" standalone="no"?>
<!DOCTYPE svg PUBLIC "-//W3C//DTD SVG 1.1//EN"
 "http://www.w3.org/Graphics/SVG/1.1/DTD/svg11.dtd">
<!-- Generated by graphviz version 2.40.1 (20161225.0304)
 -->
<!-- Title: G Pages: 1 -->
<svg width="500pt" height="846pt"
 viewBox="0.00 0.00 500.00 846.00" xmlns="http://www.w3.org/2000/svg" xmlns:xlink="http://www.w3.org/1999/xlink">
<g id="graph0" class="graph" transform="scale(1 1) rotate(0) translate(4 841.9965)">
<title>G</title>
<polygon fill="#ffffff" stroke="transparent" points="-4,4 -4,-841.9965 496,-841.9965 496,4 -4,4"/>
<!-- Gateway
12 -->
<g id="node1" class="node">
<title>Gateway
12</title>
<polygon fill="none" stroke="#000000" points="0,-361.9965 0,-399.9965 65,-399.9965 65,-361.9965 0,-361.9965"/>
<text text-anchor="middle" x="32.5" y="-384.7965" font-family="Times,serif" font-size="14.00" fill="#000000">Gateway</text>
<text text-anchor="middle" x="32.5" y="-369.7965" font-family="Times,serif" font-size="14.00" fill="#000000">12</text>
</g>
<!-- geo tailrec
13 -->
<g id="node2" class="node">
<title>geo tailrec
13</title>
<polygon fill="none" stroke="#000000" points="108,-361.9965 108,-399.9965 182,-399.9965 182,-361.9965 108,-361.9965"/>
<text text-anchor="middle" x="145" y="-384.7965" font-family="Times,serif" font-size="14.00" fill="#000000">geo tailrec</text>
<text text-anchor="middle" x="145" y="-369.7965" font-family="Times,serif" font-size="14.00" fill="#000000">13</text>
</g>
<!-- Gateway
12&#45;&gt;geo tailrec
13 -->
<g id="edge1" class="edge">
<title>Gateway
12&#45;&gt;geo tailrec
13</title>
<path fill="none" stroke="#000000" d="M65.0205,-392.9003C70.9289,-394.6019 77.0922,-396.083 83,-396.9965 87.827,-397.7429 92.8234,-397.7618 97.7888,-397.2809"/>
<polygon fill="#000000" stroke="#000000" points="98.5534,-400.7031 107.8735,-395.6648 97.4457,-393.7913 98.5534,-400.7031"/>
<text text-anchor="middle" x="86.5" y="-400.7965" font-family="Times,serif" font-size="14.00" fill="#000000">3</text>
</g>
<!-- Gateway
12&#45;&gt;geo tailrec
13 -->
<g id="edge2" class="edge">
<title>Gateway
12&#45;&gt;geo tailrec
13</title>
<path fill="none" stroke="#000000" d="M65.086,-378.7761C71.0428,-378.4512 77.2059,-378.1685 83,-377.9965 87.7968,-377.8542 92.8008,-377.8521 97.7948,-377.9459"/>
<polygon fill="#000000" stroke="#000000" points="97.8592,-381.4494 107.9621,-378.2586 98.0744,-374.4527 97.8592,-381.4494"/>
<text text-anchor="middle" x="86.5" y="-381.7965" font-family="Times,serif" font-size="14.00" fill="#000000">3</text>
</g>
<!-- geo tailrec
13&#45;&gt;Gateway
12 -->
<g id="edge60" class="edge">
<title>geo tailrec
13&#45;&gt;Gateway
12</title>
<path fill="none" stroke="#000000" d="M113.657,-361.888C103.9953,-358.0468 93.2098,-355.781 83,-357.9965 80.3124,-358.5797 77.5962,-359.3189 74.8913,-360.1719"/>
<polygon fill="#000000" stroke="#000000" points="73.4218,-356.9818 65.2166,-363.6844 75.8107,-363.5616 73.4218,-356.9818"/>
<text text-anchor="middle" x="86.5" y="-361.7965" font-family="Times,serif" font-size="14.00" fill="#000000">6</text>
</g>
<!-- geo tailrec
13&#45;&gt;geo tailrec
13 -->
<g id="edge3" class="edge">
<title>geo tailrec
13&#45;&gt;geo tailrec
13</title>
<path fill="none" stroke="#000000" d="M142.3616,-400.291C141.9965,-409.9135 142.876,-418.4965 145,-418.4965 146.2943,-418.4965 147.1265,-415.3093 147.4965,-410.6419"/>
<polygon fill="#000000" stroke="#000000" points="151.0009,-410.3381 147.6384,-400.291 144.0016,-410.2421 151.0009,-410.3381"/>
<text text-anchor="middle" x="145" y="-422.2965" font-family="Times,serif" font-size="14.00" fill="#000000">PARAMS_COMPLETE</text>
</g>
<!-- geo tailrec
13&#45;&gt;geo tailrec
13 -->
<g id="edge19" class="edge">
<title>geo tailrec
13&#45;&gt;geo tailrec
13</title>
<path fill="none" stroke="#000000" d="M140.5664,-400.0487C138.3395,-417.5895 139.8174,-436.4965 145,-436.4965 149.1704,-436.4965 150.9419,-424.2538 150.3144,-410.3318"/>
<polygon fill="#000000" stroke="#000000" points="153.7744,-409.7135 149.4336,-400.0487 146.7999,-410.311 153.7744,-409.7135"/>
<text text-anchor="middle" x="145" y="-440.2965" font-family="Times,serif" font-size="14.00" fill="#000000">PARAMS_COMPLETE</text>
</g>
<!-- geo tailrec
13&#45;&gt;geo tailrec
13 -->
<g id="edge35" class="edge">
<title>geo tailrec
13&#45;&gt;geo tailrec
13</title>
<path fill="none" stroke="#000000" d="M139.3533,-400.1943C134.6641,-424.8876 136.5464,-454.4965 145,-454.4965 152.3309,-454.4965 154.72,-432.2302 152.1673,-410.2123"/>
<polygon fill="#000000" stroke="#000000" points="155.6079,-409.5558 150.6467,-400.1943 148.6871,-410.6063 155.6079,-409.5558"/>
<text text-anchor="middle" x="145" y="-458.2965" font-family="Times,serif" font-size="14.00" fill="#000000">PARAMS_COMPLETE</text>
</g>
<!-- geo tailrec
13&#45;&gt;geo tailrec
13 -->
<g id="edge51" class="edge">
<title>geo tailrec
13&#45;&gt;geo tailrec
13</title>
<path fill="none" stroke="#000000" d="M138.4799,-400.3133C130.9887,-431.8389 133.1621,-472.4965 145,-472.4965 155.6356,-472.4965 158.4701,-439.6781 153.5035,-410.1492"/>
<polygon fill="#000000" stroke="#000000" points="156.9278,-409.4241 151.5201,-400.3133 150.0659,-410.8078 156.9278,-409.4241"/>
<text text-anchor="middle" x="145" y="-476.2965" font-family="Times,serif" font-size="14.00" fill="#000000">PARAMS_COMPLETE</text>
</g>
<!-- if
14 -->
<g id="node3" class="node">
<title>if
14</title>
<polygon fill="none" stroke="#000000" points="225,-627.9965 225,-665.9965 279,-665.9965 279,-627.9965 225,-627.9965"/>
<text text-anchor="middle" x="252" y="-650.7965" font-family="Times,serif" font-size="14.00" fill="#000000">if</text>
<text text-anchor="middle" x="252" y="-635.7965" font-family="Times,serif" font-size="14.00" fill="#000000">14</text>
</g>
<!-- geo tailrec
13&#45;&gt;if
14 -->
<g id="edge4" class="edge">
<title>geo tailrec
13&#45;&gt;if
14</title>
<path fill="none" stroke="#000000" d="M147.0635,-400.229C152.9192,-451.5931 171.11,-590.4265 200,-624.9965 204.1664,-629.982 209.6611,-633.8607 215.5171,-636.8715"/>
<polygon fill="#000000" stroke="#000000" points="214.3101,-640.1628 224.8776,-640.9226 217.0904,-633.7386 214.3101,-640.1628"/>
<text text-anchor="middle" x="203.5" y="-634.7965" font-family="Times,serif" font-size="14.00" fill="#000000">3</text>
</g>
<!-- geo tailrec
13&#45;&gt;if
14 -->
<g id="edge5" class="edge">
<title>geo tailrec
13&#45;&gt;if
14</title>
<path fill="none" stroke="#000000" d="M147.1963,-400.2282C152.1212,-437.9629 166.3619,-523.5498 200,-586.9965 206.3685,-599.0086 215.5488,-610.6712 224.4287,-620.4705"/>
<polygon fill="#000000" stroke="#000000" points="222.0225,-623.0206 231.4264,-627.9009 227.1185,-618.2214 222.0225,-623.0206"/>
<text text-anchor="middle" x="203.5" y="-601.7965" font-family="Times,serif" font-size="14.00" fill="#000000">3</text>
</g>
<!-- if
20 -->
<g id="node9" class="node">
<title>if
20</title>
<polygon fill="none" stroke="#000000" points="225,-437.9965 225,-475.9965 279,-475.9965 279,-437.9965 225,-437.9965"/>
<text text-anchor="middle" x="252" y="-460.7965" font-family="Times,serif" font-size="14.00" fill="#000000">if</text>
<text text-anchor="middle" x="252" y="-445.7965" font-family="Times,serif" font-size="14.00" fill="#000000">20</text>
</g>
<!-- geo tailrec
13&#45;&gt;if
20 -->
<g id="edge20" class="edge">
<title>geo tailrec
13&#45;&gt;if
20</title>
<path fill="none" stroke="#000000" d="M150.2612,-400.2746C157.4382,-422.3558 172.6456,-457.4798 200,-472.9965 204.656,-475.6376 209.7989,-476.3253 214.985,-475.7949"/>
<polygon fill="#000000" stroke="#000000" points="215.9598,-479.1613 224.8945,-473.4673 214.3591,-472.3468 215.9598,-479.1613"/>
<text text-anchor="middle" x="203.5" y="-478.7965" font-family="Times,serif" font-size="14.00" fill="#000000">2</text>
</g>
<!-- geo tailrec
13&#45;&gt;if
20 -->
<g id="edge21" class="edge">
<title>geo tailrec
13&#45;&gt;if
20</title>
<path fill="none" stroke="#000000" d="M161.1025,-400.0901C171.3562,-411.3571 185.4165,-425.2694 200,-434.9965 204.74,-438.1581 210.0083,-441.0182 215.3206,-443.5507"/>
<polygon fill="#000000" stroke="#000000" points="214.2642,-446.9102 224.8257,-447.7496 217.0928,-440.5072 214.2642,-446.9102"/>
<text text-anchor="middle" x="203.5" y="-441.7965" font-family="Times,serif" font-size="14.00" fill="#000000">5</text>
</g>
<!-- if
26 -->
<g id="node15" class="node">
<title>if
26</title>
<polygon fill="none" stroke="#000000" points="225,-209.9965 225,-247.9965 279,-247.9965 279,-209.9965 225,-209.9965"/>
<text text-anchor="middle" x="252" y="-232.7965" font-family="Times,serif" font-size="14.00" fill="#000000">if</text>
<text text-anchor="middle" x="252" y="-217.7965" font-family="Times,serif" font-size="14.00" fill="#000000">26</text>
</g>
<!-- geo tailrec
13&#45;&gt;if
26 -->
<g id="edge36" class="edge">
<title>geo tailrec
13&#45;&gt;if
26</title>
<path fill="none" stroke="#000000" d="M168.4437,-361.8413C180.9541,-350.804 195.994,-336.1439 207,-320.9965 221.3293,-301.2753 233.2172,-276.2904 241.1688,-257.3362"/>
<polygon fill="#000000" stroke="#000000" points="244.4269,-258.6153 244.9602,-248.0339 237.9447,-255.9733 244.4269,-258.6153"/>
<text text-anchor="middle" x="203.5" y="-332.7965" font-family="Times,serif" font-size="14.00" fill="#000000">1</text>
</g>
<!-- geo tailrec
13&#45;&gt;if
26 -->
<g id="edge37" class="edge">
<title>geo tailrec
13&#45;&gt;if
26</title>
<path fill="none" stroke="#000000" d="M158.279,-361.7999C169.383,-345.7773 185.6626,-322.3553 200,-301.9965 210.5832,-286.9686 222.4712,-270.2665 232.2066,-256.6349"/>
<polygon fill="#000000" stroke="#000000" points="235.2902,-258.3396 238.2579,-248.1689 229.5954,-254.2691 235.2902,-258.3396"/>
<text text-anchor="middle" x="203.5" y="-305.7965" font-family="Times,serif" font-size="14.00" fill="#000000">6</text>
</g>
<!-- if
32 -->
<g id="node21" class="node">
<title>if
32</title>
<polygon fill="none" stroke="#000000" points="225,-95.9965 225,-133.9965 279,-133.9965 279,-95.9965 225,-95.9965"/>
<text text-anchor="middle" x="252" y="-118.7965" font-family="Times,serif" font-size="14.00" fill="#000000">if</text>
<text text-anchor="middle" x="252" y="-103.7965" font-family="Times,serif" font-size="14.00" fill="#000000">32</text>
</g>
<!-- geo tailrec
13&#45;&gt;if
32 -->
<g id="edge52" class="edge">
<title>geo tailrec
13&#45;&gt;if
32</title>
<path fill="none" stroke="#000000" d="M151.2196,-361.8176C160.8762,-332.4747 180.4108,-274.8091 200,-226.9965 211.8234,-198.1383 227.0009,-165.9116 237.9025,-143.4633"/>
<polygon fill="#000000" stroke="#000000" points="241.1917,-144.7039 242.4366,-134.1825 234.9022,-141.6311 241.1917,-144.7039"/>
<text text-anchor="middle" x="203.5" y="-230.7965" font-family="Times,serif" font-size="14.00" fill="#000000">0</text>
</g>
<!-- geo tailrec
13&#45;&gt;if
32 -->
<g id="edge53" class="edge">
<title>geo tailrec
13&#45;&gt;if
32</title>
<path fill="none" stroke="#000000" d="M148.5825,-361.9037C155.5346,-327.1458 172.6229,-251.7108 200,-192.9965 208.2587,-175.2845 220.2105,-157.0274 230.5738,-142.6333"/>
<polygon fill="#000000" stroke="#000000" points="233.6649,-144.338 236.774,-134.2096 228.0274,-140.1885 233.6649,-144.338"/>
<text text-anchor="middle" x="203.5" y="-196.7965" font-family="Times,serif" font-size="14.00" fill="#000000">6</text>
</g>
<!-- if
14&#45;&gt;geo tailrec
13 -->
<g id="edge15" class="edge">
<title>if
14&#45;&gt;geo tailrec
13</title>
<path fill="none" stroke="#000000" d="M240.6349,-627.9527C229.3579,-608.547 212.0606,-577.3555 200,-548.9965 179.7542,-501.3911 162.3246,-443.6401 152.7802,-409.7437"/>
<polygon fill="#000000" stroke="#000000" points="156.1293,-408.7235 150.0769,-400.0276 149.3855,-410.5998 156.1293,-408.7235"/>
<text text-anchor="middle" x="203.5" y="-565.7965" font-family="Times,serif" font-size="14.00" fill="#000000">2</text>
</g>
<!-- if
14&#45;&gt;geo tailrec
13 -->
<g id="edge18" class="edge">
<title>if
14&#45;&gt;geo tailrec
13</title>
<path fill="none" stroke="#000000" d="M244.8315,-627.885C236.0814,-604.6685 220.7486,-564.3444 207,-529.9965 190.1621,-487.9307 169.8558,-439.5517 157.1825,-409.6227"/>
<polygon fill="#000000" stroke="#000000" points="160.3198,-408.0558 153.1933,-400.2159 153.8754,-410.7888 160.3198,-408.0558"/>
<text text-anchor="middle" x="203.5" y="-533.7965" font-family="Times,serif" font-size="14.00" fill="#000000">5</text>
</g>
<!-- eq
15 -->
<g id="node4" class="node">
<title>eq
15</title>
<polygon fill="none" stroke="#000000" points="341,-795.9965 341,-833.9965 395,-833.9965 395,-795.9965 341,-795.9965"/>
<text text-anchor="middle" x="368" y="-818.7965" font-family="Times,serif" font-size="14.00" fill="#000000">eq</text>
<text text-anchor="middle" x="368" y="-803.7965" font-family="Times,serif" font-size="14.00" fill="#000000">15</text>
</g>
<!-- if
14&#45;&gt;eq
15 -->
<g id="edge6" class="edge">
<title>if
14&#45;&gt;eq
15</title>
<path fill="none" stroke="#000000" d="M254.2311,-666.1572C259.335,-706.2517 273.2851,-796.7979 297,-814.9965 306.4542,-822.2516 318.8938,-824.0269 330.7155,-823.4265"/>
<polygon fill="#000000" stroke="#000000" points="331.2733,-826.8873 340.8546,-822.3654 330.5446,-819.9254 331.2733,-826.8873"/>
<text text-anchor="middle" x="310" y="-826.7965" font-family="Times,serif" font-size="14.00" fill="#000000">3</text>
</g>
<!-- sub
17 -->
<g id="node6" class="node">
<title>sub
17</title>
<polygon fill="none" stroke="#000000" points="341,-709.9965 341,-747.9965 395,-747.9965 395,-709.9965 341,-709.9965"/>
<text text-anchor="middle" x="368" y="-732.7965" font-family="Times,serif" font-size="14.00" fill="#000000">sub</text>
<text text-anchor="middle" x="368" y="-717.7965" font-family="Times,serif" font-size="14.00" fill="#000000">17</text>
</g>
<!-- if
14&#45;&gt;sub
17 -->
<g id="edge10" class="edge">
<title>if
14&#45;&gt;sub
17</title>
<path fill="none" stroke="#000000" d="M255.2267,-666.1386C260.0621,-688.0891 271.5079,-723.0873 297,-738.9965 307.0463,-745.2663 319.4307,-745.4952 331.0282,-743.3072"/>
<polygon fill="#000000" stroke="#000000" points="332.0731,-746.6543 340.9388,-740.8533 330.3907,-739.8594 332.0731,-746.6543"/>
<text text-anchor="middle" x="310" y="-747.7965" font-family="Times,serif" font-size="14.00" fill="#000000">3</text>
</g>
<!-- add
18 -->
<g id="node7" class="node">
<title>add
18</title>
<polygon fill="none" stroke="#000000" points="341,-627.9965 341,-665.9965 395,-665.9965 395,-627.9965 341,-627.9965"/>
<text text-anchor="middle" x="368" y="-650.7965" font-family="Times,serif" font-size="14.00" fill="#000000">add</text>
<text text-anchor="middle" x="368" y="-635.7965" font-family="Times,serif" font-size="14.00" fill="#000000">18</text>
</g>
<!-- if
14&#45;&gt;add
18 -->
<g id="edge11" class="edge">
<title>if
14&#45;&gt;add
18</title>
<path fill="none" stroke="#000000" d="M279.2059,-658.3389C284.9835,-660.2722 291.1169,-661.9818 297,-662.9965 308.3874,-664.9607 311.6126,-664.9607 323,-662.9965 325.6658,-662.5367 328.383,-661.9342 331.0951,-661.2329"/>
<polygon fill="#000000" stroke="#000000" points="332.2124,-664.5521 340.7941,-658.3389 330.2108,-657.8444 332.2124,-664.5521"/>
<text text-anchor="middle" x="310" y="-667.7965" font-family="Times,serif" font-size="14.00" fill="#000000">3</text>
</g>
<!-- if
14&#45;&gt;add
18 -->
<g id="edge16" class="edge">
<title>if
14&#45;&gt;add
18</title>
<path fill="none" stroke="#000000" d="M279.1129,-644.896C285.006,-644.5214 291.2091,-644.1893 297,-643.9965 308.5492,-643.612 311.4508,-643.612 323,-643.9965 325.5335,-644.0809 328.1459,-644.1919 330.7768,-644.3214"/>
<polygon fill="#000000" stroke="#000000" points="330.7046,-647.8229 340.8871,-644.896 331.1018,-640.8342 330.7046,-647.8229"/>
<text text-anchor="middle" x="310" y="-647.7965" font-family="Times,serif" font-size="14.00" fill="#000000">2</text>
</g>
<!-- eq
15&#45;&gt;if
14 -->
<g id="edge9" class="edge">
<title>eq
15&#45;&gt;if
14</title>
<path fill="none" stroke="#000000" d="M340.7328,-800.204C326.1,-791.1068 308.7173,-778.2712 297,-762.9965 277.0979,-737.0521 264.9983,-701.2311 258.4325,-676.285"/>
<polygon fill="#000000" stroke="#000000" points="261.7638,-675.178 255.9508,-666.3202 254.9713,-676.8697 261.7638,-675.178"/>
<text text-anchor="middle" x="310" y="-790.7965" font-family="Times,serif" font-size="14.00" fill="#000000">false</text>
</g>
<!-- zero
16 -->
<g id="node5" class="node">
<title>zero
16</title>
<polygon fill="none" stroke="#000000" points="438,-787.9965 438,-825.9965 492,-825.9965 492,-787.9965 438,-787.9965"/>
<text text-anchor="middle" x="465" y="-810.7965" font-family="Times,serif" font-size="14.00" fill="#000000">zero</text>
<text text-anchor="middle" x="465" y="-795.7965" font-family="Times,serif" font-size="14.00" fill="#000000">16</text>
</g>
<!-- eq
15&#45;&gt;zero
16 -->
<g id="edge7" class="edge">
<title>eq
15&#45;&gt;zero
16</title>
<path fill="none" stroke="#000000" d="M395.0199,-812.7681C405.1304,-811.9342 416.8016,-810.9717 427.6794,-810.0745"/>
<polygon fill="#000000" stroke="#000000" points="428.1101,-813.551 437.7886,-809.2408 427.5347,-806.5747 428.1101,-813.551"/>
<text text-anchor="middle" x="416.5" y="-814.7965" font-family="Times,serif" font-size="14.00" fill="#000000">3</text>
</g>
<!-- zero
16&#45;&gt;eq
15 -->
<g id="edge8" class="edge">
<title>zero
16&#45;&gt;eq
15</title>
<path fill="none" stroke="#000000" d="M437.8966,-792.8505C429.9253,-790.2703 421.1555,-788.9577 413,-790.9965 410.1815,-791.7012 407.3462,-792.6194 404.5447,-793.685"/>
<polygon fill="#000000" stroke="#000000" points="402.972,-790.553 395.2239,-797.7791 405.7872,-796.962 402.972,-790.553"/>
<text text-anchor="middle" x="416.5" y="-794.7965" font-family="Times,serif" font-size="14.00" fill="#000000">0</text>
</g>
<!-- sub
17&#45;&gt;if
14 -->
<g id="edge14" class="edge">
<title>sub
17&#45;&gt;if
14</title>
<path fill="none" stroke="#000000" d="M340.9416,-712.3587C327.5142,-703.8787 311.1759,-693.2202 297,-682.9965 292.4355,-679.7046 287.7043,-676.1212 283.1,-672.5335"/>
<polygon fill="#000000" stroke="#000000" points="285.0262,-669.5944 275.0128,-666.1327 280.6819,-675.0832 285.0262,-669.5944"/>
<text text-anchor="middle" x="310" y="-703.7965" font-family="Times,serif" font-size="14.00" fill="#000000">2</text>
</g>
<!-- one
19 -->
<g id="node8" class="node">
<title>one
19</title>
<polygon fill="none" stroke="#000000" points="438,-721.9965 438,-759.9965 492,-759.9965 492,-721.9965 438,-721.9965"/>
<text text-anchor="middle" x="465" y="-744.7965" font-family="Times,serif" font-size="14.00" fill="#000000">one</text>
<text text-anchor="middle" x="465" y="-729.7965" font-family="Times,serif" font-size="14.00" fill="#000000">19</text>
</g>
<!-- sub
17&#45;&gt;one
19 -->
<g id="edge12" class="edge">
<title>sub
17&#45;&gt;one
19</title>
<path fill="none" stroke="#000000" d="M395.0199,-732.3392C405.1304,-733.59 416.8016,-735.0338 427.6794,-736.3795"/>
<polygon fill="#000000" stroke="#000000" points="427.4345,-739.8758 437.7886,-737.6302 428.294,-732.9288 427.4345,-739.8758"/>
<text text-anchor="middle" x="416.5" y="-738.7965" font-family="Times,serif" font-size="14.00" fill="#000000">3</text>
</g>
<!-- add
18&#45;&gt;if
14 -->
<g id="edge17" class="edge">
<title>add
18&#45;&gt;if
14</title>
<path fill="none" stroke="#000000" d="M340.7099,-630.4916C335.0413,-627.8051 328.9711,-625.434 323,-623.9965 311.7654,-621.2919 308.2346,-621.2919 297,-623.9965 294.2011,-624.6704 291.3803,-625.5493 288.5894,-626.5697"/>
<polygon fill="#000000" stroke="#000000" points="287.1441,-623.3807 279.2901,-630.4916 289.8643,-629.8306 287.1441,-623.3807"/>
<text text-anchor="middle" x="310" y="-627.7965" font-family="Times,serif" font-size="14.00" fill="#000000">5</text>
</g>
<!-- one
19&#45;&gt;sub
17 -->
<g id="edge13" class="edge">
<title>one
19&#45;&gt;sub
17</title>
<path fill="none" stroke="#000000" d="M437.9149,-722.3557C432.2293,-719.3173 426.1005,-716.6322 420,-714.9965 415.2281,-713.7171 410.2105,-713.5624 405.252,-714.1226"/>
<polygon fill="#000000" stroke="#000000" points="404.362,-710.7316 395.2547,-716.1453 405.7502,-717.5926 404.362,-710.7316"/>
<text text-anchor="middle" x="416.5" y="-718.7965" font-family="Times,serif" font-size="14.00" fill="#000000">1</text>
</g>
<!-- if
20&#45;&gt;geo tailrec
13 -->
<g id="edge31" class="edge">
<title>if
20&#45;&gt;geo tailrec
13</title>
<path fill="none" stroke="#000000" d="M232.6638,-437.6136C225.0011,-430.4152 215.9047,-422.4404 207,-415.9965 201.8742,-412.2873 196.3195,-408.6621 190.7122,-405.2356"/>
<polygon fill="#000000" stroke="#000000" points="192.3009,-402.1089 181.9117,-400.0311 188.7376,-408.1341 192.3009,-402.1089"/>
<text text-anchor="middle" x="203.5" y="-419.7965" font-family="Times,serif" font-size="14.00" fill="#000000">1</text>
</g>
<!-- if
20&#45;&gt;geo tailrec
13 -->
<g id="edge34" class="edge">
<title>if
20&#45;&gt;geo tailrec
13</title>
<path fill="none" stroke="#000000" d="M243.8593,-437.9084C236.466,-422.9764 224.0971,-402.9654 207,-391.9965 202.3994,-389.045 197.2308,-386.8267 191.8916,-385.168"/>
<polygon fill="#000000" stroke="#000000" points="192.7321,-381.7705 182.1826,-382.7489 191.0397,-388.5628 192.7321,-381.7705"/>
<text text-anchor="middle" x="203.5" y="-395.7965" font-family="Times,serif" font-size="14.00" fill="#000000">6</text>
</g>
<!-- eq
21 -->
<g id="node10" class="node">
<title>eq
21</title>
<polygon fill="none" stroke="#000000" points="341,-542.9965 341,-580.9965 395,-580.9965 395,-542.9965 341,-542.9965"/>
<text text-anchor="middle" x="368" y="-565.7965" font-family="Times,serif" font-size="14.00" fill="#000000">eq</text>
<text text-anchor="middle" x="368" y="-550.7965" font-family="Times,serif" font-size="14.00" fill="#000000">21</text>
</g>
<!-- if
20&#45;&gt;eq
21 -->
<g id="edge22" class="edge">
<title>if
20&#45;&gt;eq
21</title>
<path fill="none" stroke="#000000" d="M255.954,-476.1208C261.3951,-497.3758 273.3344,-531.0622 297,-548.9965 306.5786,-556.2554 318.9451,-559.8999 330.6663,-561.6195"/>
<polygon fill="#000000" stroke="#000000" points="330.4028,-565.1111 340.7144,-562.6776 331.1359,-558.1495 330.4028,-565.1111"/>
<text text-anchor="middle" x="310" y="-562.7965" font-family="Times,serif" font-size="14.00" fill="#000000">2</text>
</g>
<!-- sub
23 -->
<g id="node12" class="node">
<title>sub
23</title>
<polygon fill="none" stroke="#000000" points="341,-456.9965 341,-494.9965 395,-494.9965 395,-456.9965 341,-456.9965"/>
<text text-anchor="middle" x="368" y="-479.7965" font-family="Times,serif" font-size="14.00" fill="#000000">sub</text>
<text text-anchor="middle" x="368" y="-464.7965" font-family="Times,serif" font-size="14.00" fill="#000000">23</text>
</g>
<!-- if
20&#45;&gt;sub
23 -->
<g id="edge26" class="edge">
<title>if
20&#45;&gt;sub
23</title>
<path fill="none" stroke="#000000" d="M279.2411,-468.1467C285.0162,-470.094 291.1396,-471.8578 297,-472.9965 307.8298,-475.1009 319.7567,-476.1012 330.693,-476.5119"/>
<polygon fill="#000000" stroke="#000000" points="330.7295,-480.0136 340.8065,-476.7419 330.8887,-473.0154 330.7295,-480.0136"/>
<text text-anchor="middle" x="310" y="-479.7965" font-family="Times,serif" font-size="14.00" fill="#000000">2</text>
</g>
<!-- add
24 -->
<g id="node13" class="node">
<title>add
24</title>
<polygon fill="none" stroke="#000000" points="341,-361.9965 341,-399.9965 395,-399.9965 395,-361.9965 341,-361.9965"/>
<text text-anchor="middle" x="368" y="-384.7965" font-family="Times,serif" font-size="14.00" fill="#000000">add</text>
<text text-anchor="middle" x="368" y="-369.7965" font-family="Times,serif" font-size="14.00" fill="#000000">24</text>
</g>
<!-- if
20&#45;&gt;add
24 -->
<g id="edge27" class="edge">
<title>if
20&#45;&gt;add
24</title>
<path fill="none" stroke="#000000" d="M279.1968,-439.1779C295.0498,-428.7915 315.2278,-415.5714 332.3422,-404.3585"/>
<polygon fill="#000000" stroke="#000000" points="334.527,-407.1114 340.9735,-398.7035 330.6908,-401.2562 334.527,-407.1114"/>
<text text-anchor="middle" x="310" y="-428.7965" font-family="Times,serif" font-size="14.00" fill="#000000">5</text>
</g>
<!-- if
20&#45;&gt;add
24 -->
<g id="edge32" class="edge">
<title>if
20&#45;&gt;add
24</title>
<path fill="none" stroke="#000000" d="M260.3421,-437.8623C267.781,-423.1697 280.1119,-403.6483 297,-392.9965 306.9575,-386.7161 319.1968,-383.4325 330.6917,-381.7907"/>
<polygon fill="#000000" stroke="#000000" points="331.3757,-385.238 340.9522,-380.7057 330.6395,-378.2768 331.3757,-385.238"/>
<text text-anchor="middle" x="310" y="-396.7965" font-family="Times,serif" font-size="14.00" fill="#000000">1</text>
</g>
<!-- eq
21&#45;&gt;if
20 -->
<g id="edge25" class="edge">
<title>eq
21&#45;&gt;if
20</title>
<path fill="none" stroke="#000000" d="M346.7576,-542.7685C328.1589,-525.9335 300.9829,-501.3345 280.4982,-482.7923"/>
<polygon fill="#000000" stroke="#000000" points="282.7694,-480.1272 273.0067,-476.0112 278.0718,-485.3169 282.7694,-480.1272"/>
<text text-anchor="middle" x="310" y="-521.7965" font-family="Times,serif" font-size="14.00" fill="#000000">false</text>
</g>
<!-- zero
22 -->
<g id="node11" class="node">
<title>zero
22</title>
<polygon fill="none" stroke="#000000" points="438,-542.9965 438,-580.9965 492,-580.9965 492,-542.9965 438,-542.9965"/>
<text text-anchor="middle" x="465" y="-565.7965" font-family="Times,serif" font-size="14.00" fill="#000000">zero</text>
<text text-anchor="middle" x="465" y="-550.7965" font-family="Times,serif" font-size="14.00" fill="#000000">22</text>
</g>
<!-- eq
21&#45;&gt;zero
22 -->
<g id="edge23" class="edge">
<title>eq
21&#45;&gt;zero
22</title>
<path fill="none" stroke="#000000" d="M395.0199,-561.9965C405.1304,-561.9965 416.8016,-561.9965 427.6794,-561.9965"/>
<polygon fill="#000000" stroke="#000000" points="427.7886,-565.4966 437.7886,-561.9965 427.7885,-558.4966 427.7886,-565.4966"/>
<text text-anchor="middle" x="416.5" y="-565.7965" font-family="Times,serif" font-size="14.00" fill="#000000">2</text>
</g>
<!-- zero
22&#45;&gt;eq
21 -->
<g id="edge24" class="edge">
<title>zero
22&#45;&gt;eq
21</title>
<path fill="none" stroke="#000000" d="M437.9198,-546.0199C430.0251,-543.0388 421.29,-541.3182 413,-542.9965 410.1948,-543.5645 407.3471,-544.3129 404.5169,-545.1843"/>
<polygon fill="#000000" stroke="#000000" points="403.3066,-541.8999 395.0489,-548.5377 405.6436,-548.4983 403.3066,-541.8999"/>
<text text-anchor="middle" x="416.5" y="-546.7965" font-family="Times,serif" font-size="14.00" fill="#000000">0</text>
</g>
<!-- sub
23&#45;&gt;if
20 -->
<g id="edge30" class="edge">
<title>sub
23&#45;&gt;if
20</title>
<path fill="none" stroke="#000000" d="M340.646,-460.2047C334.9826,-457.6353 328.9307,-455.3686 323,-453.9965 312.2516,-451.5098 300.3492,-451.1263 289.4104,-451.6802"/>
<polygon fill="#000000" stroke="#000000" points="288.9885,-448.2023 279.287,-452.4604 289.5265,-455.1816 288.9885,-448.2023"/>
<text text-anchor="middle" x="310" y="-457.7965" font-family="Times,serif" font-size="14.00" fill="#000000">1</text>
</g>
<!-- one
25 -->
<g id="node14" class="node">
<title>one
25</title>
<polygon fill="none" stroke="#000000" points="438,-456.9965 438,-494.9965 492,-494.9965 492,-456.9965 438,-456.9965"/>
<text text-anchor="middle" x="465" y="-479.7965" font-family="Times,serif" font-size="14.00" fill="#000000">one</text>
<text text-anchor="middle" x="465" y="-464.7965" font-family="Times,serif" font-size="14.00" fill="#000000">25</text>
</g>
<!-- sub
23&#45;&gt;one
25 -->
<g id="edge28" class="edge">
<title>sub
23&#45;&gt;one
25</title>
<path fill="none" stroke="#000000" d="M395.0199,-475.9965C405.1304,-475.9965 416.8016,-475.9965 427.6794,-475.9965"/>
<polygon fill="#000000" stroke="#000000" points="427.7886,-479.4966 437.7886,-475.9965 427.7885,-472.4966 427.7886,-479.4966"/>
<text text-anchor="middle" x="416.5" y="-479.7965" font-family="Times,serif" font-size="14.00" fill="#000000">2</text>
</g>
<!-- add
24&#45;&gt;if
20 -->
<g id="edge33" class="edge">
<title>add
24&#45;&gt;if
20</title>
<path fill="none" stroke="#000000" d="M340.774,-365.1471C326.8398,-359.2576 310.1008,-355.7818 297,-363.9965 274.8295,-377.8984 263.3135,-406.1601 257.5088,-427.8991"/>
<polygon fill="#000000" stroke="#000000" points="254.0982,-427.1124 255.1609,-437.6538 260.9039,-428.7505 254.0982,-427.1124"/>
<text text-anchor="middle" x="310" y="-367.7965" font-family="Times,serif" font-size="14.00" fill="#000000">6</text>
</g>
<!-- one
25&#45;&gt;sub
23 -->
<g id="edge29" class="edge">
<title>one
25&#45;&gt;sub
23</title>
<path fill="none" stroke="#000000" d="M437.9198,-460.0199C430.0251,-457.0388 421.29,-455.3182 413,-456.9965 410.1948,-457.5645 407.3471,-458.3129 404.5169,-459.1843"/>
<polygon fill="#000000" stroke="#000000" points="403.3066,-455.8999 395.0489,-462.5377 405.6436,-462.4983 403.3066,-455.8999"/>
<text text-anchor="middle" x="416.5" y="-460.7965" font-family="Times,serif" font-size="14.00" fill="#000000">1</text>
</g>
<!-- if
26&#45;&gt;geo tailrec
13 -->
<g id="edge47" class="edge">
<title>if
26&#45;&gt;geo tailrec
13</title>
<path fill="none" stroke="#000000" d="M227.2358,-248.2201C217.9798,-256.1745 207.8258,-265.8962 200,-275.9965 181.6378,-299.6958 166.3625,-330.4268 156.6076,-352.5108"/>
<polygon fill="#000000" stroke="#000000" points="153.2649,-351.4239 152.5228,-361.9927 159.6937,-354.1934 153.2649,-351.4239"/>
<text text-anchor="middle" x="203.5" y="-279.7965" font-family="Times,serif" font-size="14.00" fill="#000000">0</text>
</g>
<!-- if
26&#45;&gt;geo tailrec
13 -->
<g id="edge50" class="edge">
<title>if
26&#45;&gt;geo tailrec
13</title>
<path fill="none" stroke="#000000" d="M224.7893,-235.4633C216.0052,-238.6481 206.7928,-243.296 200,-249.9965 171.6918,-277.92 157.2263,-322.621 150.3947,-351.8977"/>
<polygon fill="#000000" stroke="#000000" points="146.9189,-351.4107 148.2118,-361.9263 153.7587,-352.8996 146.9189,-351.4107"/>
<text text-anchor="middle" x="203.5" y="-253.7965" font-family="Times,serif" font-size="14.00" fill="#000000">6</text>
</g>
<!-- eq
27 -->
<g id="node16" class="node">
<title>eq
27</title>
<polygon fill="none" stroke="#000000" points="341,-276.9965 341,-314.9965 395,-314.9965 395,-276.9965 341,-276.9965"/>
<text text-anchor="middle" x="368" y="-299.7965" font-family="Times,serif" font-size="14.00" fill="#000000">eq</text>
<text text-anchor="middle" x="368" y="-284.7965" font-family="Times,serif" font-size="14.00" fill="#000000">27</text>
</g>
<!-- if
26&#45;&gt;eq
27 -->
<g id="edge38" class="edge">
<title>if
26&#45;&gt;eq
27</title>
<path fill="none" stroke="#000000" d="M263.1215,-248.2156C271.0375,-260.1257 282.7736,-274.6883 297,-282.9965 307.1076,-288.8994 319.2915,-292.2254 330.6908,-294.0692"/>
<polygon fill="#000000" stroke="#000000" points="330.4922,-297.5724 340.8571,-295.3771 331.3854,-290.6296 330.4922,-297.5724"/>
<text text-anchor="middle" x="310" y="-296.7965" font-family="Times,serif" font-size="14.00" fill="#000000">1</text>
</g>
<!-- sub
29 -->
<g id="node18" class="node">
<title>sub
29</title>
<polygon fill="none" stroke="#000000" points="341,-190.9965 341,-228.9965 395,-228.9965 395,-190.9965 341,-190.9965"/>
<text text-anchor="middle" x="368" y="-213.7965" font-family="Times,serif" font-size="14.00" fill="#000000">sub</text>
<text text-anchor="middle" x="368" y="-198.7965" font-family="Times,serif" font-size="14.00" fill="#000000">29</text>
</g>
<!-- if
26&#45;&gt;sub
29 -->
<g id="edge42" class="edge">
<title>if
26&#45;&gt;sub
29</title>
<path fill="none" stroke="#000000" d="M279.1968,-224.5419C294.6135,-222.0167 314.1204,-218.8216 330.9223,-216.0696"/>
<polygon fill="#000000" stroke="#000000" points="331.6708,-219.4937 340.9735,-214.4233 330.5393,-212.5858 331.6708,-219.4937"/>
<text text-anchor="middle" x="310" y="-225.7965" font-family="Times,serif" font-size="14.00" fill="#000000">1</text>
</g>
<!-- add
30 -->
<g id="node19" class="node">
<title>add
30</title>
<polygon fill="none" stroke="#000000" points="341,-95.9965 341,-133.9965 395,-133.9965 395,-95.9965 341,-95.9965"/>
<text text-anchor="middle" x="368" y="-118.7965" font-family="Times,serif" font-size="14.00" fill="#000000">add</text>
<text text-anchor="middle" x="368" y="-103.7965" font-family="Times,serif" font-size="14.00" fill="#000000">30</text>
</g>
<!-- if
26&#45;&gt;add
30 -->
<g id="edge43" class="edge">
<title>if
26&#45;&gt;add
30</title>
<path fill="none" stroke="#000000" d="M268.1351,-209.6042C276.4814,-199.8631 286.9945,-188.03 297,-177.9965 309.72,-165.241 324.5226,-151.8919 337.3099,-140.7819"/>
<polygon fill="#000000" stroke="#000000" points="339.6827,-143.3575 344.9748,-134.179 335.114,-138.054 339.6827,-143.3575"/>
<text text-anchor="middle" x="310" y="-181.7965" font-family="Times,serif" font-size="14.00" fill="#000000">6</text>
</g>
<!-- if
26&#45;&gt;add
30 -->
<g id="edge48" class="edge">
<title>if
26&#45;&gt;add
30</title>
<path fill="none" stroke="#000000" d="M261.9722,-209.9725C267.1668,-199.9265 273.5541,-187.3571 279,-175.9965 287.4271,-158.4172 282.3149,-148.8183 297,-135.9965 306.4559,-127.7405 319.0294,-122.7274 330.9659,-119.6845"/>
<polygon fill="#000000" stroke="#000000" points="331.7275,-123.1008 340.7604,-117.5639 330.2462,-116.2593 331.7275,-123.1008"/>
<text text-anchor="middle" x="310" y="-139.7965" font-family="Times,serif" font-size="14.00" fill="#000000">0</text>
</g>
<!-- eq
27&#45;&gt;if
26 -->
<g id="edge41" class="edge">
<title>eq
27&#45;&gt;if
26</title>
<path fill="none" stroke="#000000" d="M342.775,-276.9914C336.4496,-272.5257 329.5855,-267.9268 323,-263.9965 312.0289,-257.4489 299.6625,-251.0409 288.3612,-245.5348"/>
<polygon fill="#000000" stroke="#000000" points="289.7038,-242.2972 279.1725,-241.1384 286.6826,-248.6117 289.7038,-242.2972"/>
<text text-anchor="middle" x="310" y="-267.7965" font-family="Times,serif" font-size="14.00" fill="#000000">false</text>
</g>
<!-- zero
28 -->
<g id="node17" class="node">
<title>zero
28</title>
<polygon fill="none" stroke="#000000" points="438,-278.9965 438,-316.9965 492,-316.9965 492,-278.9965 438,-278.9965"/>
<text text-anchor="middle" x="465" y="-301.7965" font-family="Times,serif" font-size="14.00" fill="#000000">zero</text>
<text text-anchor="middle" x="465" y="-286.7965" font-family="Times,serif" font-size="14.00" fill="#000000">28</text>
</g>
<!-- eq
27&#45;&gt;zero
28 -->
<g id="edge39" class="edge">
<title>eq
27&#45;&gt;zero
28</title>
<path fill="none" stroke="#000000" d="M395.0199,-296.5536C405.1304,-296.7621 416.8016,-297.0027 427.6794,-297.227"/>
<polygon fill="#000000" stroke="#000000" points="427.7185,-300.7285 437.7886,-297.4355 427.8629,-293.73 427.7185,-300.7285"/>
<text text-anchor="middle" x="416.5" y="-301.7965" font-family="Times,serif" font-size="14.00" fill="#000000">1</text>
</g>
<!-- zero
28&#45;&gt;eq
27 -->
<g id="edge40" class="edge">
<title>zero
28&#45;&gt;eq
27</title>
<path fill="none" stroke="#000000" d="M437.5248,-283.6323C431.8714,-281.2972 425.8542,-279.2389 420,-277.9965 415.1171,-276.9603 410.0613,-277.0969 405.1064,-277.9708"/>
<polygon fill="#000000" stroke="#000000" points="403.9045,-274.67 395.1657,-280.6603 405.7327,-281.4271 403.9045,-274.67"/>
<text text-anchor="middle" x="416.5" y="-281.7965" font-family="Times,serif" font-size="14.00" fill="#000000">0</text>
</g>
<!-- sub
29&#45;&gt;if
26 -->
<g id="edge46" class="edge">
<title>sub
29&#45;&gt;if
26</title>
<path fill="none" stroke="#000000" d="M340.9679,-200.2218C327.5471,-196.7696 311.2065,-194.6951 297,-198.9965 292.4112,-200.3859 287.8627,-202.4146 283.5209,-204.7722"/>
<polygon fill="#000000" stroke="#000000" points="281.6841,-201.7928 274.9525,-209.9743 285.3169,-207.7764 281.6841,-201.7928"/>
<text text-anchor="middle" x="310" y="-202.7965" font-family="Times,serif" font-size="14.00" fill="#000000">0</text>
</g>
<!-- one
31 -->
<g id="node20" class="node">
<title>one
31</title>
<polygon fill="none" stroke="#000000" points="438,-185.9965 438,-223.9965 492,-223.9965 492,-185.9965 438,-185.9965"/>
<text text-anchor="middle" x="465" y="-208.7965" font-family="Times,serif" font-size="14.00" fill="#000000">one</text>
<text text-anchor="middle" x="465" y="-193.7965" font-family="Times,serif" font-size="14.00" fill="#000000">31</text>
</g>
<!-- sub
29&#45;&gt;one
31 -->
<g id="edge44" class="edge">
<title>sub
29&#45;&gt;one
31</title>
<path fill="none" stroke="#000000" d="M395.0199,-208.6038C405.1304,-208.0826 416.8016,-207.481 427.6794,-206.9203"/>
<polygon fill="#000000" stroke="#000000" points="427.982,-210.4094 437.7886,-206.3992 427.6216,-203.4187 427.982,-210.4094"/>
<text text-anchor="middle" x="416.5" y="-211.7965" font-family="Times,serif" font-size="14.00" fill="#000000">1</text>
</g>
<!-- add
30&#45;&gt;if
26 -->
<g id="edge49" class="edge">
<title>add
30&#45;&gt;if
26</title>
<path fill="none" stroke="#000000" d="M340.9065,-101.7654C326.5053,-96.7989 309.2895,-94.4011 297,-103.9965 271.0012,-124.2958 290.5602,-145.1038 279,-175.9965 275.8785,-184.3383 271.7955,-193.0752 267.7533,-200.9942"/>
<polygon fill="#000000" stroke="#000000" points="264.6562,-199.3639 263.0869,-209.8419 270.8478,-202.6295 264.6562,-199.3639"/>
<text text-anchor="middle" x="310" y="-107.7965" font-family="Times,serif" font-size="14.00" fill="#000000">6</text>
</g>
<!-- one
31&#45;&gt;sub
29 -->
<g id="edge45" class="edge">
<title>one
31&#45;&gt;sub
29</title>
<path fill="none" stroke="#000000" d="M437.9623,-191.129C429.9925,-188.5549 421.2069,-187.1758 413,-188.9965 410.3303,-189.5888 407.6314,-190.3567 404.9514,-191.2476"/>
<polygon fill="#000000" stroke="#000000" points="403.4908,-188.0594 395.4158,-194.9182 406.0056,-194.5921 403.4908,-188.0594"/>
<text text-anchor="middle" x="416.5" y="-192.7965" font-family="Times,serif" font-size="14.00" fill="#000000">1</text>
</g>
<!-- if
32&#45;&gt;geo tailrec
13 -->
<g id="edge59" class="edge">
<title>if
32&#45;&gt;geo tailrec
13</title>
<path fill="none" stroke="#000000" d="M224.8449,-133.7225C215.746,-141.2363 206.319,-150.5913 200,-160.9965 162.8081,-222.2389 150.6998,-307.593 146.8072,-351.8242"/>
<polygon fill="#000000" stroke="#000000" points="143.3106,-351.6426 146.0025,-361.8898 150.2884,-352.2006 143.3106,-351.6426"/>
<text text-anchor="middle" x="203.5" y="-164.7965" font-family="Times,serif" font-size="14.00" fill="#000000">6</text>
</g>
<!-- if
32&#45;&gt;if
32 -->
<g id="edge58" class="edge">
<title>if
32&#45;&gt;if
32</title>
<path fill="none" stroke="#000000" d="M243.2659,-134.291C242.0574,-143.9135 244.9688,-152.4965 252,-152.4965 256.2847,-152.4965 259.0395,-149.3093 260.2644,-144.6419"/>
<polygon fill="#000000" stroke="#000000" points="263.7771,-144.4395 260.7341,-134.291 256.7843,-144.1221 263.7771,-144.4395"/>
<text text-anchor="middle" x="252" y="-156.2965" font-family="Times,serif" font-size="14.00" fill="#000000">6</text>
</g>
<!-- eq
33 -->
<g id="node22" class="node">
<title>eq
33</title>
<polygon fill="none" stroke="#000000" points="341,-.9965 341,-38.9965 395,-38.9965 395,-.9965 341,-.9965"/>
<text text-anchor="middle" x="368" y="-23.7965" font-family="Times,serif" font-size="14.00" fill="#000000">eq</text>
<text text-anchor="middle" x="368" y="-8.7965" font-family="Times,serif" font-size="14.00" fill="#000000">33</text>
</g>
<!-- if
32&#45;&gt;eq
33 -->
<g id="edge54" class="edge">
<title>if
32&#45;&gt;eq
33</title>
<path fill="none" stroke="#000000" d="M258.7535,-95.8588C265.7466,-78.7669 278.2984,-54.2868 297,-39.9965 306.7589,-32.5395 319.1707,-27.8628 330.878,-24.9298"/>
<polygon fill="#000000" stroke="#000000" points="331.8594,-28.2988 340.9004,-22.7751 330.3881,-21.4552 331.8594,-28.2988"/>
<text text-anchor="middle" x="310" y="-43.7965" font-family="Times,serif" font-size="14.00" fill="#000000">0</text>
</g>
<!-- eq
33&#45;&gt;if
32 -->
<g id="edge57" class="edge">
<title>eq
33&#45;&gt;if
32</title>
<path fill="none" stroke="#000000" d="M340.7807,-7.3178C326.6841,-2.7374 309.794,-.5288 297,-8.9965 271.4715,-25.8926 260.3825,-60.5005 255.5927,-85.5866"/>
<polygon fill="#000000" stroke="#000000" points="252.103,-85.2345 253.9019,-95.6755 259.0067,-86.3916 252.103,-85.2345"/>
<text text-anchor="middle" x="310" y="-12.7965" font-family="Times,serif" font-size="14.00" fill="#000000">true</text>
</g>
<!-- zero
34 -->
<g id="node23" class="node">
<title>zero
34</title>
<polygon fill="none" stroke="#000000" points="438,-.9965 438,-38.9965 492,-38.9965 492,-.9965 438,-.9965"/>
<text text-anchor="middle" x="465" y="-23.7965" font-family="Times,serif" font-size="14.00" fill="#000000">zero</text>
<text text-anchor="middle" x="465" y="-8.7965" font-family="Times,serif" font-size="14.00" fill="#000000">34</text>
</g>
<!-- eq
33&#45;&gt;zero
34 -->
<g id="edge55" class="edge">
<title>eq
33&#45;&gt;zero
34</title>
<path fill="none" stroke="#000000" d="M395.0199,-19.9965C405.1304,-19.9965 416.8016,-19.9965 427.6794,-19.9965"/>
<polygon fill="#000000" stroke="#000000" points="427.7886,-23.4966 437.7886,-19.9965 427.7885,-16.4966 427.7886,-23.4966"/>
<text text-anchor="middle" x="416.5" y="-23.7965" font-family="Times,serif" font-size="14.00" fill="#000000">0</text>
</g>
<!-- zero
34&#45;&gt;eq
33 -->
<g id="edge56" class="edge">
<title>zero
34&#45;&gt;eq
33</title>
<path fill="none" stroke="#000000" d="M437.9511,-6.5377C432.1622,-4.2411 425.9844,-2.2081 420,-.9965 415.0778,0 409.9987,-.2017 405.0318,-1.1541"/>
<polygon fill="#000000" stroke="#000000" points="403.7211,2.1107 395.0802,-4.0199 405.6583,-4.6159 403.7211,2.1107"/>
<text text-anchor="middle" x="416.5" y="-4.7965" font-family="Times,serif" font-size="14.00" fill="#000000">0</text>
</g>
</g>
</svg>
