<?xml version="1.0" encoding="UTF-8" standalone="no"?>
<!DOCTYPE svg PUBLIC "-//W3C//DTD SVG 1.1//EN"
 "http://www.w3.org/Graphics/SVG/1.1/DTD/svg11.dtd">
<!-- Generated by graphviz version 2.40.1 (20161225.0304)
 -->
<!-- Title: G Pages: 1 -->
<svg width="1085pt" height="327pt"
 viewBox="0.00 0.00 1085.00 327.00" xmlns="http://www.w3.org/2000/svg" xmlns:xlink="http://www.w3.org/1999/xlink">
<g id="graph0" class="graph" transform="scale(1 1) rotate(0) translate(4 323)">
<title>G</title>
<polygon fill="#ffffff" stroke="transparent" points="-4,4 -4,-323 1081,-323 1081,4 -4,4"/>
<!-- Gateway
12 -->
<g id="node1" class="node">
<title>Gateway
12</title>
<polygon fill="none" stroke="#000000" points="391.5,-280.5 391.5,-318.5 456.5,-318.5 456.5,-280.5 391.5,-280.5"/>
<text text-anchor="middle" x="424" y="-303.3" font-family="Times,serif" font-size="14.00" fill="#000000">Gateway</text>
<text text-anchor="middle" x="424" y="-288.3" font-family="Times,serif" font-size="14.00" fill="#000000">12</text>
</g>
<!-- geo tailrec
13 -->
<g id="node2" class="node">
<title>geo tailrec
13</title>
<polygon fill="none" stroke="#000000" points="387,-210.5 387,-248.5 461,-248.5 461,-210.5 387,-210.5"/>
<text text-anchor="middle" x="424" y="-233.3" font-family="Times,serif" font-size="14.00" fill="#000000">geo tailrec</text>
<text text-anchor="middle" x="424" y="-218.3" font-family="Times,serif" font-size="14.00" fill="#000000">13</text>
</g>
<!-- Gateway
12&#45;&gt;geo tailrec
13 -->
<g id="edge1" class="edge">
<title>Gateway
12&#45;&gt;geo tailrec
13</title>
<path fill="none" stroke="#000000" d="M401.8988,-280.4252C399.9242,-277.7975 398.2154,-274.9727 397,-272 395.1472,-267.4683 394.6551,-264.8309 397.4637,-257.9687"/>
<polygon fill="#000000" stroke="#000000" points="400.7944,-259.1119 401.8988,-248.5748 394.4644,-256.1234 400.7944,-259.1119"/>
<text text-anchor="middle" x="400.5" y="-260.8" font-family="Times,serif" font-size="14.00" fill="#000000">3</text>
</g>
<!-- Gateway
12&#45;&gt;geo tailrec
13 -->
<g id="edge2" class="edge">
<title>Gateway
12&#45;&gt;geo tailrec
13</title>
<path fill="none" stroke="#000000" d="M424,-280.3722C424,-273.6589 424,-265.9571 424,-258.6116"/>
<polygon fill="#000000" stroke="#000000" points="427.5001,-258.6046 424,-248.6047 420.5001,-258.6047 427.5001,-258.6046"/>
<text text-anchor="middle" x="427.5" y="-260.8" font-family="Times,serif" font-size="14.00" fill="#000000">3</text>
</g>
<!-- geo tailrec
13&#45;&gt;Gateway
12 -->
<g id="edge60" class="edge">
<title>geo tailrec
13&#45;&gt;Gateway
12</title>
<path fill="none" stroke="#000000" d="M430.2998,-248.5805C431.0034,-251.3769 431.6072,-254.2434 432,-257 432.676,-261.7437 432.8661,-264.0078 431.9391,-270.483"/>
<polygon fill="#000000" stroke="#000000" points="428.4743,-269.9831 430.2998,-280.4195 435.3809,-271.1226 428.4743,-269.9831"/>
<text text-anchor="middle" x="435.5" y="-260.8" font-family="Times,serif" font-size="14.00" fill="#000000">6</text>
</g>
<!-- geo tailrec
13&#45;&gt;geo tailrec
13 -->
<g id="edge3" class="edge">
<title>geo tailrec
13&#45;&gt;geo tailrec
13</title>
<path fill="none" stroke="#000000" d="M461.0153,-231.084C471.2097,-231.0075 479,-230.4795 479,-229.5 479,-228.8878 475.9569,-228.452 471.1857,-228.1925"/>
<polygon fill="#000000" stroke="#000000" points="471.1068,-224.6892 461.0153,-227.916 470.9164,-231.6866 471.1068,-224.6892"/>
<text text-anchor="middle" x="547" y="-225.8" font-family="Times,serif" font-size="14.00" fill="#000000">PARAMS_COMPLETE</text>
</g>
<!-- geo tailrec
13&#45;&gt;geo tailrec
13 -->
<g id="edge19" class="edge">
<title>geo tailrec
13&#45;&gt;geo tailrec
13</title>
<path fill="none" stroke="#000000" d="M461.0218,-231.8011C517.8009,-233.5126 615,-232.7456 615,-229.5 615,-226.4382 528.4999,-225.5822 471.0338,-226.9319"/>
<polygon fill="#000000" stroke="#000000" points="470.9249,-223.4335 461.0218,-227.1989 471.1116,-230.431 470.9249,-223.4335"/>
<text text-anchor="middle" x="683" y="-225.8" font-family="Times,serif" font-size="14.00" fill="#000000">PARAMS_COMPLETE</text>
</g>
<!-- geo tailrec
13&#45;&gt;geo tailrec
13 -->
<g id="edge35" class="edge">
<title>geo tailrec
13&#45;&gt;geo tailrec
13</title>
<path fill="none" stroke="#000000" d="M461.004,-232.2466C548.5072,-235.6824 751,-234.7668 751,-229.5 751,-224.4286 563.2571,-223.3916 471.2044,-226.3889"/>
<polygon fill="#000000" stroke="#000000" points="470.8726,-222.8984 461.004,-226.7534 471.1227,-229.894 470.8726,-222.8984"/>
<text text-anchor="middle" x="819" y="-225.8" font-family="Times,serif" font-size="14.00" fill="#000000">PARAMS_COMPLETE</text>
</g>
<!-- geo tailrec
13&#45;&gt;geo tailrec
13 -->
<g id="edge51" class="edge">
<title>geo tailrec
13&#45;&gt;geo tailrec
13</title>
<path fill="none" stroke="#000000" d="M461.3624,-232.6351C574.0406,-237.8248 887,-236.7798 887,-229.5 887,-222.4264 591.5158,-221.2394 471.4059,-225.9389"/>
<polygon fill="#000000" stroke="#000000" points="471.2051,-222.4442 461.3624,-226.3649 471.5017,-229.4379 471.2051,-222.4442"/>
<text text-anchor="middle" x="955" y="-225.8" font-family="Times,serif" font-size="14.00" fill="#000000">PARAMS_COMPLETE</text>
</g>
<!-- if
14 -->
<g id="node3" class="node">
<title>if
14</title>
<polygon fill="none" stroke="#000000" points="159,-140.5 159,-178.5 213,-178.5 213,-140.5 159,-140.5"/>
<text text-anchor="middle" x="186" y="-163.3" font-family="Times,serif" font-size="14.00" fill="#000000">if</text>
<text text-anchor="middle" x="186" y="-148.3" font-family="Times,serif" font-size="14.00" fill="#000000">14</text>
</g>
<!-- geo tailrec
13&#45;&gt;if
14 -->
<g id="edge4" class="edge">
<title>geo tailrec
13&#45;&gt;if
14</title>
<path fill="none" stroke="#000000" d="M386.5697,-226.7989C327.8523,-222.2659 219.2786,-212.5791 205,-202 200.2918,-198.5117 196.7265,-193.5905 194.0343,-188.3278"/>
<polygon fill="#000000" stroke="#000000" points="197.1212,-186.6324 190.0732,-178.7219 190.6498,-189.301 197.1212,-186.6324"/>
<text text-anchor="middle" x="208.5" y="-190.8" font-family="Times,serif" font-size="14.00" fill="#000000">3</text>
</g>
<!-- geo tailrec
13&#45;&gt;if
14 -->
<g id="edge5" class="edge">
<title>geo tailrec
13&#45;&gt;if
14</title>
<path fill="none" stroke="#000000" d="M386.6057,-226.1946C340.6618,-221.7398 265.6503,-213.0745 240,-202 230.4708,-197.8858 221.1819,-191.6595 213.0704,-185.2318"/>
<polygon fill="#000000" stroke="#000000" points="215.3032,-182.5364 205.3861,-178.8078 210.8134,-187.907 215.3032,-182.5364"/>
<text text-anchor="middle" x="243.5" y="-190.8" font-family="Times,serif" font-size="14.00" fill="#000000">3</text>
</g>
<!-- if
20 -->
<g id="node9" class="node">
<title>if
20</title>
<polygon fill="none" stroke="#000000" points="337,-140.5 337,-178.5 391,-178.5 391,-140.5 337,-140.5"/>
<text text-anchor="middle" x="364" y="-163.3" font-family="Times,serif" font-size="14.00" fill="#000000">if</text>
<text text-anchor="middle" x="364" y="-148.3" font-family="Times,serif" font-size="14.00" fill="#000000">20</text>
</g>
<!-- geo tailrec
13&#45;&gt;if
20 -->
<g id="edge20" class="edge">
<title>geo tailrec
13&#45;&gt;if
20</title>
<path fill="none" stroke="#000000" d="M386.8876,-222.3303C366.1166,-217.4814 343.179,-210.4335 337,-202 333.6418,-197.4166 333.7296,-192.4208 335.73,-187.5175"/>
<polygon fill="#000000" stroke="#000000" points="338.7767,-189.2453 341.065,-178.9005 332.8251,-185.5604 338.7767,-189.2453"/>
<text text-anchor="middle" x="340.5" y="-190.8" font-family="Times,serif" font-size="14.00" fill="#000000">2</text>
</g>
<!-- geo tailrec
13&#45;&gt;if
20 -->
<g id="edge21" class="edge">
<title>geo tailrec
13&#45;&gt;if
20</title>
<path fill="none" stroke="#000000" d="M386.9206,-218.543C379.1645,-214.553 371.8715,-209.1841 367,-202 364.36,-198.1068 362.8465,-193.5252 362.0627,-188.8374"/>
<polygon fill="#000000" stroke="#000000" points="365.5387,-188.3671 361.3585,-178.6318 358.5553,-188.8491 365.5387,-188.3671"/>
<text text-anchor="middle" x="370.5" y="-190.8" font-family="Times,serif" font-size="14.00" fill="#000000">5</text>
</g>
<!-- if
26 -->
<g id="node15" class="node">
<title>if
26</title>
<polygon fill="none" stroke="#000000" points="517,-140.5 517,-178.5 571,-178.5 571,-140.5 517,-140.5"/>
<text text-anchor="middle" x="544" y="-163.3" font-family="Times,serif" font-size="14.00" fill="#000000">if</text>
<text text-anchor="middle" x="544" y="-148.3" font-family="Times,serif" font-size="14.00" fill="#000000">26</text>
</g>
<!-- geo tailrec
13&#45;&gt;if
26 -->
<g id="edge36" class="edge">
<title>geo tailrec
13&#45;&gt;if
26</title>
<path fill="none" stroke="#000000" d="M435.1301,-210.3955C440.7614,-202.18 448.2612,-193.0864 457,-187 471.7474,-176.7287 490.5107,-170.1602 506.8339,-166.0299"/>
<polygon fill="#000000" stroke="#000000" points="507.6722,-169.4285 516.6243,-163.762 506.0924,-162.6091 507.6722,-169.4285"/>
<text text-anchor="middle" x="460.5" y="-190.8" font-family="Times,serif" font-size="14.00" fill="#000000">1</text>
</g>
<!-- geo tailrec
13&#45;&gt;if
26 -->
<g id="edge37" class="edge">
<title>geo tailrec
13&#45;&gt;if
26</title>
<path fill="none" stroke="#000000" d="M450.4345,-210.4277C461.5019,-202.7718 474.645,-194.0986 487,-187 493.5497,-183.2369 500.6924,-179.5116 507.6373,-176.0753"/>
<polygon fill="#000000" stroke="#000000" points="509.431,-179.0957 516.9106,-171.592 506.3841,-172.7936 509.431,-179.0957"/>
<text text-anchor="middle" x="490.5" y="-190.8" font-family="Times,serif" font-size="14.00" fill="#000000">6</text>
</g>
<!-- if
32 -->
<g id="node21" class="node">
<title>if
32</title>
<polygon fill="none" stroke="#000000" points="607,-140.5 607,-178.5 661,-178.5 661,-140.5 607,-140.5"/>
<text text-anchor="middle" x="634" y="-163.3" font-family="Times,serif" font-size="14.00" fill="#000000">if</text>
<text text-anchor="middle" x="634" y="-148.3" font-family="Times,serif" font-size="14.00" fill="#000000">32</text>
</g>
<!-- geo tailrec
13&#45;&gt;if
32 -->
<g id="edge52" class="edge">
<title>geo tailrec
13&#45;&gt;if
32</title>
<path fill="none" stroke="#000000" d="M461.076,-223.1507C485.0894,-218.5165 516.8341,-211.4031 544,-202 549.633,-200.0502 575.342,-187.8544 597.8477,-177.0247"/>
<polygon fill="#000000" stroke="#000000" points="599.4194,-180.1526 606.9068,-172.6566 596.3791,-173.8473 599.4194,-180.1526"/>
<text text-anchor="middle" x="578.5" y="-190.8" font-family="Times,serif" font-size="14.00" fill="#000000">0</text>
</g>
<!-- geo tailrec
13&#45;&gt;if
32 -->
<g id="edge53" class="edge">
<title>geo tailrec
13&#45;&gt;if
32</title>
<path fill="none" stroke="#000000" d="M461.0607,-225.2556C500.7874,-220.3184 560.9822,-211.6078 582,-202 591.0333,-197.8706 599.8127,-191.7834 607.507,-185.4985"/>
<polygon fill="#000000" stroke="#000000" points="610.1138,-187.8716 615.3908,-178.6845 605.5364,-182.5756 610.1138,-187.8716"/>
<text text-anchor="middle" x="608.5" y="-190.8" font-family="Times,serif" font-size="14.00" fill="#000000">6</text>
</g>
<!-- if
14&#45;&gt;geo tailrec
13 -->
<g id="edge15" class="edge">
<title>if
14&#45;&gt;geo tailrec
13</title>
<path fill="none" stroke="#000000" d="M213.3012,-171.1118C223.9313,-175.8133 236.1439,-181.4389 247,-187 258.8735,-193.0823 260.4759,-197.404 273,-202 306.4536,-214.2764 346.1623,-221.2312 376.4617,-225.0742"/>
<polygon fill="#000000" stroke="#000000" points="376.4156,-228.5936 386.7608,-226.3073 377.2478,-221.6432 376.4156,-228.5936"/>
<text text-anchor="middle" x="276.5" y="-190.8" font-family="Times,serif" font-size="14.00" fill="#000000">2</text>
</g>
<!-- if
14&#45;&gt;geo tailrec
13 -->
<g id="edge18" class="edge">
<title>if
14&#45;&gt;geo tailrec
13</title>
<path fill="none" stroke="#000000" d="M213.2446,-167.1281C232.0617,-172.4804 257.6293,-179.9183 280,-187 299.6973,-193.2354 304.2527,-195.9248 324,-202 341.102,-207.2614 359.9953,-212.5819 376.712,-217.1228"/>
<polygon fill="#000000" stroke="#000000" points="376.2376,-220.6198 386.8038,-219.8419 378.0587,-213.8608 376.2376,-220.6198"/>
<text text-anchor="middle" x="327.5" y="-190.8" font-family="Times,serif" font-size="14.00" fill="#000000">5</text>
</g>
<!-- eq
15 -->
<g id="node4" class="node">
<title>eq
15</title>
<polygon fill="none" stroke="#000000" points="0,-70.5 0,-108.5 54,-108.5 54,-70.5 0,-70.5"/>
<text text-anchor="middle" x="27" y="-93.3" font-family="Times,serif" font-size="14.00" fill="#000000">eq</text>
<text text-anchor="middle" x="27" y="-78.3" font-family="Times,serif" font-size="14.00" fill="#000000">15</text>
</g>
<!-- if
14&#45;&gt;eq
15 -->
<g id="edge6" class="edge">
<title>if
14&#45;&gt;eq
15</title>
<path fill="none" stroke="#000000" d="M158.9646,-156.9264C114.2422,-152.394 28.8797,-142.4717 20,-132 16.7839,-128.2072 15.7109,-123.5171 15.8848,-118.6517"/>
<polygon fill="#000000" stroke="#000000" points="19.3579,-119.1154 17.7056,-108.6502 12.4711,-117.8616 19.3579,-119.1154"/>
<text text-anchor="middle" x="23.5" y="-120.8" font-family="Times,serif" font-size="14.00" fill="#000000">3</text>
</g>
<!-- sub
17 -->
<g id="node6" class="node">
<title>sub
17</title>
<polygon fill="none" stroke="#000000" points="78,-70.5 78,-108.5 132,-108.5 132,-70.5 78,-70.5"/>
<text text-anchor="middle" x="105" y="-93.3" font-family="Times,serif" font-size="14.00" fill="#000000">sub</text>
<text text-anchor="middle" x="105" y="-78.3" font-family="Times,serif" font-size="14.00" fill="#000000">17</text>
</g>
<!-- if
14&#45;&gt;sub
17 -->
<g id="edge10" class="edge">
<title>if
14&#45;&gt;sub
17</title>
<path fill="none" stroke="#000000" d="M158.5603,-154.4744C135.839,-149.6888 106.1621,-141.7752 99,-132 96.1993,-128.1774 95.1603,-123.6314 95.1806,-118.9572"/>
<polygon fill="#000000" stroke="#000000" points="98.6892,-119.1467 96.6443,-108.7511 91.76,-118.1529 98.6892,-119.1467"/>
<text text-anchor="middle" x="102.5" y="-120.8" font-family="Times,serif" font-size="14.00" fill="#000000">3</text>
</g>
<!-- add
18 -->
<g id="node7" class="node">
<title>add
18</title>
<polygon fill="none" stroke="#000000" points="159,-70.5 159,-108.5 213,-108.5 213,-70.5 159,-70.5"/>
<text text-anchor="middle" x="186" y="-93.3" font-family="Times,serif" font-size="14.00" fill="#000000">add</text>
<text text-anchor="middle" x="186" y="-78.3" font-family="Times,serif" font-size="14.00" fill="#000000">18</text>
</g>
<!-- if
14&#45;&gt;add
18 -->
<g id="edge11" class="edge">
<title>if
14&#45;&gt;add
18</title>
<path fill="none" stroke="#000000" d="M163.8988,-140.4252C161.9242,-137.7975 160.2154,-134.9727 159,-132 157.1472,-127.4683 156.6551,-124.8309 159.4637,-117.9687"/>
<polygon fill="#000000" stroke="#000000" points="162.7944,-119.1119 163.8988,-108.5748 156.4644,-116.1234 162.7944,-119.1119"/>
<text text-anchor="middle" x="162.5" y="-120.8" font-family="Times,serif" font-size="14.00" fill="#000000">3</text>
</g>
<!-- if
14&#45;&gt;add
18 -->
<g id="edge16" class="edge">
<title>if
14&#45;&gt;add
18</title>
<path fill="none" stroke="#000000" d="M186,-140.3722C186,-133.6589 186,-125.9571 186,-118.6116"/>
<polygon fill="#000000" stroke="#000000" points="189.5001,-118.6046 186,-108.6047 182.5001,-118.6047 189.5001,-118.6046"/>
<text text-anchor="middle" x="189.5" y="-120.8" font-family="Times,serif" font-size="14.00" fill="#000000">2</text>
</g>
<!-- eq
15&#45;&gt;if
14 -->
<g id="edge9" class="edge">
<title>eq
15&#45;&gt;if
14</title>
<path fill="none" stroke="#000000" d="M40.5775,-108.9245C47.3183,-117.2046 56.1315,-126.2603 66,-132 79.924,-140.0985 119.0515,-148.1938 148.8767,-153.4822"/>
<polygon fill="#000000" stroke="#000000" points="148.5312,-156.9744 158.9817,-155.2311 149.7251,-150.0769 148.5312,-156.9744"/>
<text text-anchor="middle" x="79" y="-120.8" font-family="Times,serif" font-size="14.00" fill="#000000">false</text>
</g>
<!-- zero
16 -->
<g id="node5" class="node">
<title>zero
16</title>
<polygon fill="none" stroke="#000000" points="8,-.5 8,-38.5 62,-38.5 62,-.5 8,-.5"/>
<text text-anchor="middle" x="35" y="-23.3" font-family="Times,serif" font-size="14.00" fill="#000000">zero</text>
<text text-anchor="middle" x="35" y="-8.3" font-family="Times,serif" font-size="14.00" fill="#000000">16</text>
</g>
<!-- eq
15&#45;&gt;zero
16 -->
<g id="edge7" class="edge">
<title>eq
15&#45;&gt;zero
16</title>
<path fill="none" stroke="#000000" d="M16.7244,-70.3632C14.6577,-64.6827 13.2813,-58.3493 15.6461,-48.4733"/>
<polygon fill="#000000" stroke="#000000" points="19.0242,-49.4015 18.764,-38.8098 12.3624,-47.252 19.0242,-49.4015"/>
<text text-anchor="middle" x="18.5" y="-50.8" font-family="Times,serif" font-size="14.00" fill="#000000">3</text>
</g>
<!-- zero
16&#45;&gt;eq
15 -->
<g id="edge8" class="edge">
<title>zero
16&#45;&gt;eq
15</title>
<path fill="none" stroke="#000000" d="M32.8166,-38.6047C32.0496,-45.3157 31.1695,-53.0168 30.3299,-60.3631"/>
<polygon fill="#000000" stroke="#000000" points="26.8442,-60.0394 29.186,-70.3722 33.799,-60.8343 26.8442,-60.0394"/>
<text text-anchor="middle" x="35.5" y="-50.8" font-family="Times,serif" font-size="14.00" fill="#000000">0</text>
</g>
<!-- sub
17&#45;&gt;if
14 -->
<g id="edge14" class="edge">
<title>sub
17&#45;&gt;if
14</title>
<path fill="none" stroke="#000000" d="M122.7186,-108.8548C129.9663,-116.3852 138.6093,-124.8932 147,-132 148.1459,-132.9705 149.3249,-133.9414 150.5268,-134.9079"/>
<polygon fill="#000000" stroke="#000000" points="148.6161,-137.8535 158.6789,-141.1686 152.8797,-132.3018 148.6161,-137.8535"/>
<text text-anchor="middle" x="150.5" y="-120.8" font-family="Times,serif" font-size="14.00" fill="#000000">2</text>
</g>
<!-- one
19 -->
<g id="node8" class="node">
<title>one
19</title>
<polygon fill="none" stroke="#000000" points="84,-.5 84,-38.5 138,-38.5 138,-.5 84,-.5"/>
<text text-anchor="middle" x="111" y="-23.3" font-family="Times,serif" font-size="14.00" fill="#000000">one</text>
<text text-anchor="middle" x="111" y="-8.3" font-family="Times,serif" font-size="14.00" fill="#000000">19</text>
</g>
<!-- sub
17&#45;&gt;one
19 -->
<g id="edge12" class="edge">
<title>sub
17&#45;&gt;one
19</title>
<path fill="none" stroke="#000000" d="M101.0298,-70.3715C100.2966,-64.7491 99.8847,-58.4856 101.246,-48.7712"/>
<polygon fill="#000000" stroke="#000000" points="104.7141,-49.2602 103.0362,-38.799 97.8242,-48.0232 104.7141,-49.2602"/>
<text text-anchor="middle" x="104.5" y="-50.8" font-family="Times,serif" font-size="14.00" fill="#000000">3</text>
</g>
<!-- add
18&#45;&gt;if
14 -->
<g id="edge17" class="edge">
<title>add
18&#45;&gt;if
14</title>
<path fill="none" stroke="#000000" d="M192.2998,-108.5805C193.0034,-111.3769 193.6072,-114.2434 194,-117 194.676,-121.7437 194.8661,-124.0078 193.9391,-130.483"/>
<polygon fill="#000000" stroke="#000000" points="190.4743,-129.9831 192.2998,-140.4195 197.3809,-131.1226 190.4743,-129.9831"/>
<text text-anchor="middle" x="198.5" y="-120.8" font-family="Times,serif" font-size="14.00" fill="#000000">5</text>
</g>
<!-- one
19&#45;&gt;sub
17 -->
<g id="edge13" class="edge">
<title>one
19&#45;&gt;sub
17</title>
<path fill="none" stroke="#000000" d="M109.3625,-38.6047C108.7872,-45.3157 108.1271,-53.0168 107.4974,-60.3631"/>
<polygon fill="#000000" stroke="#000000" points="104.0064,-60.1098 106.6395,-70.3722 110.9808,-60.7077 104.0064,-60.1098"/>
<text text-anchor="middle" x="112.5" y="-50.8" font-family="Times,serif" font-size="14.00" fill="#000000">1</text>
</g>
<!-- if
20&#45;&gt;geo tailrec
13 -->
<g id="edge31" class="edge">
<title>if
20&#45;&gt;geo tailrec
13</title>
<path fill="none" stroke="#000000" d="M378.3248,-178.9197C383.9619,-186.2989 390.6069,-194.6847 397,-202 397.2229,-202.255 397.4475,-202.5108 397.6738,-202.767"/>
<polygon fill="#000000" stroke="#000000" points="395.1944,-205.2416 404.5382,-210.2361 400.3484,-200.5049 395.1944,-205.2416"/>
<text text-anchor="middle" x="400.5" y="-190.8" font-family="Times,serif" font-size="14.00" fill="#000000">1</text>
</g>
<!-- if
20&#45;&gt;geo tailrec
13 -->
<g id="edge34" class="edge">
<title>if
20&#45;&gt;geo tailrec
13</title>
<path fill="none" stroke="#000000" d="M391.1088,-176.6657C395.0299,-179.8203 398.8113,-183.2978 402,-187 405.6599,-191.2493 408.9193,-196.2126 411.7349,-201.2177"/>
<polygon fill="#000000" stroke="#000000" points="408.63,-202.8334 416.3144,-210.1273 414.8557,-199.6333 408.63,-202.8334"/>
<text text-anchor="middle" x="415.5" y="-190.8" font-family="Times,serif" font-size="14.00" fill="#000000">6</text>
</g>
<!-- eq
21 -->
<g id="node10" class="node">
<title>eq
21</title>
<polygon fill="none" stroke="#000000" points="235,-70.5 235,-108.5 289,-108.5 289,-70.5 235,-70.5"/>
<text text-anchor="middle" x="262" y="-93.3" font-family="Times,serif" font-size="14.00" fill="#000000">eq</text>
<text text-anchor="middle" x="262" y="-78.3" font-family="Times,serif" font-size="14.00" fill="#000000">21</text>
</g>
<!-- if
20&#45;&gt;eq
21 -->
<g id="edge22" class="edge">
<title>if
20&#45;&gt;eq
21</title>
<path fill="none" stroke="#000000" d="M336.9051,-156.8487C306.421,-153.2403 259.7451,-145.6175 249,-132 245.8783,-128.0438 245.1957,-123.34 245.9107,-118.5275"/>
<polygon fill="#000000" stroke="#000000" points="249.3397,-119.2909 249.0078,-108.7013 242.6635,-117.1866 249.3397,-119.2909"/>
<text text-anchor="middle" x="252.5" y="-120.8" font-family="Times,serif" font-size="14.00" fill="#000000">2</text>
</g>
<!-- sub
23 -->
<g id="node12" class="node">
<title>sub
23</title>
<polygon fill="none" stroke="#000000" points="313,-70.5 313,-108.5 367,-108.5 367,-70.5 313,-70.5"/>
<text text-anchor="middle" x="340" y="-93.3" font-family="Times,serif" font-size="14.00" fill="#000000">sub</text>
<text text-anchor="middle" x="340" y="-78.3" font-family="Times,serif" font-size="14.00" fill="#000000">23</text>
</g>
<!-- if
20&#45;&gt;sub
23 -->
<g id="edge26" class="edge">
<title>if
20&#45;&gt;sub
23</title>
<path fill="none" stroke="#000000" d="M336.684,-143.2624C333.1805,-139.9878 330.0917,-136.23 328,-132 325.9174,-127.7884 325.5195,-123.1578 326.119,-118.5501"/>
<polygon fill="#000000" stroke="#000000" points="329.5585,-119.2358 328.758,-108.6713 322.7957,-117.4292 329.5585,-119.2358"/>
<text text-anchor="middle" x="331.5" y="-120.8" font-family="Times,serif" font-size="14.00" fill="#000000">2</text>
</g>
<!-- add
24 -->
<g id="node13" class="node">
<title>add
24</title>
<polygon fill="none" stroke="#000000" points="388,-70.5 388,-108.5 442,-108.5 442,-70.5 388,-70.5"/>
<text text-anchor="middle" x="415" y="-93.3" font-family="Times,serif" font-size="14.00" fill="#000000">add</text>
<text text-anchor="middle" x="415" y="-78.3" font-family="Times,serif" font-size="14.00" fill="#000000">24</text>
</g>
<!-- if
20&#45;&gt;add
24 -->
<g id="edge27" class="edge">
<title>if
20&#45;&gt;add
24</title>
<path fill="none" stroke="#000000" d="M373.5004,-140.2173C377.5559,-132.6968 382.599,-124.1768 388,-117 388.1308,-116.8263 388.2625,-116.6525 388.3953,-116.4787"/>
<polygon fill="#000000" stroke="#000000" points="391.1253,-118.6703 394.875,-108.7612 385.7643,-114.1692 391.1253,-118.6703"/>
<text text-anchor="middle" x="391.5" y="-120.8" font-family="Times,serif" font-size="14.00" fill="#000000">5</text>
</g>
<!-- if
20&#45;&gt;add
24 -->
<g id="edge32" class="edge">
<title>if
20&#45;&gt;add
24</title>
<path fill="none" stroke="#000000" d="M385.7653,-140.4363C388.3473,-137.7304 390.8314,-134.8836 393,-132 396.2256,-127.7108 399.2241,-122.8804 401.9047,-118.0548"/>
<polygon fill="#000000" stroke="#000000" points="405.1431,-119.413 406.6439,-108.925 398.9303,-116.1879 405.1431,-119.413"/>
<text text-anchor="middle" x="406.5" y="-120.8" font-family="Times,serif" font-size="14.00" fill="#000000">1</text>
</g>
<!-- eq
21&#45;&gt;if
20 -->
<g id="edge25" class="edge">
<title>eq
21&#45;&gt;if
20</title>
<path fill="none" stroke="#000000" d="M274.1145,-108.713C279.9439,-116.7534 287.5126,-125.6784 296,-132 305.3049,-138.9305 316.5996,-144.4111 327.2893,-148.596"/>
<polygon fill="#000000" stroke="#000000" points="326.2678,-151.9488 336.8618,-152.0795 328.6616,-145.3708 326.2678,-151.9488"/>
<text text-anchor="middle" x="309" y="-120.8" font-family="Times,serif" font-size="14.00" fill="#000000">false</text>
</g>
<!-- zero
22 -->
<g id="node11" class="node">
<title>zero
22</title>
<polygon fill="none" stroke="#000000" points="212,-.5 212,-38.5 266,-38.5 266,-.5 212,-.5"/>
<text text-anchor="middle" x="239" y="-23.3" font-family="Times,serif" font-size="14.00" fill="#000000">zero</text>
<text text-anchor="middle" x="239" y="-8.3" font-family="Times,serif" font-size="14.00" fill="#000000">22</text>
</g>
<!-- eq
21&#45;&gt;zero
22 -->
<g id="edge23" class="edge">
<title>eq
21&#45;&gt;zero
22</title>
<path fill="none" stroke="#000000" d="M239.8988,-70.4252C237.9242,-67.7975 236.2154,-64.9727 235,-62 233.3277,-57.9098 232.6514,-53.4194 232.5978,-48.9371"/>
<polygon fill="#000000" stroke="#000000" points="236.1094,-48.9349 233.4274,-38.6852 229.1322,-48.3703 236.1094,-48.9349"/>
<text text-anchor="middle" x="238.5" y="-50.8" font-family="Times,serif" font-size="14.00" fill="#000000">2</text>
</g>
<!-- zero
22&#45;&gt;eq
21 -->
<g id="edge24" class="edge">
<title>zero
22&#45;&gt;eq
21</title>
<path fill="none" stroke="#000000" d="M245.2773,-38.6047C247.533,-45.47 250.1292,-53.3714 252.5927,-60.8692"/>
<polygon fill="#000000" stroke="#000000" points="249.2684,-61.9644 255.7151,-70.3722 255.9187,-59.7793 249.2684,-61.9644"/>
<text text-anchor="middle" x="256.5" y="-50.8" font-family="Times,serif" font-size="14.00" fill="#000000">0</text>
</g>
<!-- sub
23&#45;&gt;if
20 -->
<g id="edge30" class="edge">
<title>sub
23&#45;&gt;if
20</title>
<path fill="none" stroke="#000000" d="M346.5502,-108.6047C348.904,-115.47 351.613,-123.3714 354.1837,-130.8692"/>
<polygon fill="#000000" stroke="#000000" points="350.8878,-132.0479 357.4419,-140.3722 357.5094,-129.7776 350.8878,-132.0479"/>
<text text-anchor="middle" x="358.5" y="-120.8" font-family="Times,serif" font-size="14.00" fill="#000000">1</text>
</g>
<!-- one
25 -->
<g id="node14" class="node">
<title>one
25</title>
<polygon fill="none" stroke="#000000" points="313,-.5 313,-38.5 367,-38.5 367,-.5 313,-.5"/>
<text text-anchor="middle" x="340" y="-23.3" font-family="Times,serif" font-size="14.00" fill="#000000">one</text>
<text text-anchor="middle" x="340" y="-8.3" font-family="Times,serif" font-size="14.00" fill="#000000">25</text>
</g>
<!-- sub
23&#45;&gt;one
25 -->
<g id="edge28" class="edge">
<title>sub
23&#45;&gt;one
25</title>
<path fill="none" stroke="#000000" d="M330.4499,-70.2979C329.4408,-67.5691 328.5746,-64.7536 328,-62 327.0212,-57.3094 326.7459,-54.9839 328.0838,-48.5426"/>
<polygon fill="#000000" stroke="#000000" points="331.515,-49.2433 330.4499,-38.7021 324.7089,-47.6067 331.515,-49.2433"/>
<text text-anchor="middle" x="331.5" y="-50.8" font-family="Times,serif" font-size="14.00" fill="#000000">2</text>
</g>
<!-- add
24&#45;&gt;if
20 -->
<g id="edge33" class="edge">
<title>add
24&#45;&gt;if
20</title>
<path fill="none" stroke="#000000" d="M418.5322,-108.8585C418.9618,-116.5582 418.1373,-125.1869 414,-132 410.5917,-137.6126 405.5966,-142.1623 400.0647,-145.8233"/>
<polygon fill="#000000" stroke="#000000" points="398.0855,-142.9207 391.0811,-150.8698 401.5138,-149.0237 398.0855,-142.9207"/>
<text text-anchor="middle" x="422.5" y="-120.8" font-family="Times,serif" font-size="14.00" fill="#000000">6</text>
</g>
<!-- one
25&#45;&gt;sub
23 -->
<g id="edge29" class="edge">
<title>one
25&#45;&gt;sub
23</title>
<path fill="none" stroke="#000000" d="M340,-38.6047C340,-45.3157 340,-53.0168 340,-60.3631"/>
<polygon fill="#000000" stroke="#000000" points="336.5001,-60.3722 340,-70.3722 343.5001,-60.3722 336.5001,-60.3722"/>
<text text-anchor="middle" x="343.5" y="-50.8" font-family="Times,serif" font-size="14.00" fill="#000000">1</text>
</g>
<!-- if
26&#45;&gt;geo tailrec
13 -->
<g id="edge47" class="edge">
<title>if
26&#45;&gt;geo tailrec
13</title>
<path fill="none" stroke="#000000" d="M523.5678,-178.6106C514.3903,-186.5382 503.1352,-195.4044 492,-202 485.2976,-205.97 477.9157,-209.6129 470.5616,-212.8583"/>
<polygon fill="#000000" stroke="#000000" points="469.173,-209.6453 461.3146,-216.7514 471.8892,-216.0969 469.173,-209.6453"/>
<text text-anchor="middle" x="516.5" y="-190.8" font-family="Times,serif" font-size="14.00" fill="#000000">0</text>
</g>
<!-- if
26&#45;&gt;geo tailrec
13 -->
<g id="edge50" class="edge">
<title>if
26&#45;&gt;geo tailrec
13</title>
<path fill="none" stroke="#000000" d="M537.9821,-178.7024C534.5109,-186.9377 529.3449,-196.0197 522,-202 513.8375,-208.6461 492.0489,-215.062 471.0841,-220.0226"/>
<polygon fill="#000000" stroke="#000000" points="470.2153,-216.6308 461.2428,-222.2651 471.7705,-223.4558 470.2153,-216.6308"/>
<text text-anchor="middle" x="536.5" y="-190.8" font-family="Times,serif" font-size="14.00" fill="#000000">6</text>
</g>
<!-- eq
27 -->
<g id="node16" class="node">
<title>eq
27</title>
<polygon fill="none" stroke="#000000" points="464,-70.5 464,-108.5 518,-108.5 518,-70.5 464,-70.5"/>
<text text-anchor="middle" x="491" y="-93.3" font-family="Times,serif" font-size="14.00" fill="#000000">eq</text>
<text text-anchor="middle" x="491" y="-78.3" font-family="Times,serif" font-size="14.00" fill="#000000">27</text>
</g>
<!-- if
26&#45;&gt;eq
27 -->
<g id="edge38" class="edge">
<title>if
26&#45;&gt;eq
27</title>
<path fill="none" stroke="#000000" d="M516.9384,-155.4955C502.7998,-151.879 486.6759,-145.0138 478,-132 475.2554,-127.8831 474.7015,-123.1621 475.413,-118.3979"/>
<polygon fill="#000000" stroke="#000000" points="478.7897,-119.3235 478.3541,-108.7377 472.0932,-117.2847 478.7897,-119.3235"/>
<text text-anchor="middle" x="481.5" y="-120.8" font-family="Times,serif" font-size="14.00" fill="#000000">1</text>
</g>
<!-- sub
29 -->
<g id="node18" class="node">
<title>sub
29</title>
<polygon fill="none" stroke="#000000" points="542,-70.5 542,-108.5 596,-108.5 596,-70.5 542,-70.5"/>
<text text-anchor="middle" x="569" y="-93.3" font-family="Times,serif" font-size="14.00" fill="#000000">sub</text>
<text text-anchor="middle" x="569" y="-78.3" font-family="Times,serif" font-size="14.00" fill="#000000">29</text>
</g>
<!-- if
26&#45;&gt;sub
29 -->
<g id="edge42" class="edge">
<title>if
26&#45;&gt;sub
29</title>
<path fill="none" stroke="#000000" d="M549.3635,-140.3037C551.0716,-134.5602 553.0732,-128.1613 556.7791,-118.0509"/>
<polygon fill="#000000" stroke="#000000" points="560.0823,-119.2102 560.3238,-108.6181 553.5297,-116.7478 560.0823,-119.2102"/>
<text text-anchor="middle" x="560.5" y="-120.8" font-family="Times,serif" font-size="14.00" fill="#000000">1</text>
</g>
<!-- add
30 -->
<g id="node19" class="node">
<title>add
30</title>
<polygon fill="none" stroke="#000000" points="617,-70.5 617,-108.5 671,-108.5 671,-70.5 617,-70.5"/>
<text text-anchor="middle" x="644" y="-93.3" font-family="Times,serif" font-size="14.00" fill="#000000">add</text>
<text text-anchor="middle" x="644" y="-78.3" font-family="Times,serif" font-size="14.00" fill="#000000">30</text>
</g>
<!-- if
26&#45;&gt;add
30 -->
<g id="edge43" class="edge">
<title>if
26&#45;&gt;add
30</title>
<path fill="none" stroke="#000000" d="M571.0614,-140.557C582.6227,-132.4641 596.273,-122.9089 608.6194,-114.2664"/>
<polygon fill="#000000" stroke="#000000" points="610.7317,-117.0601 616.9169,-108.4581 606.7175,-111.3255 610.7317,-117.0601"/>
<text text-anchor="middle" x="605.5" y="-120.8" font-family="Times,serif" font-size="14.00" fill="#000000">6</text>
</g>
<!-- if
26&#45;&gt;add
30 -->
<g id="edge48" class="edge">
<title>if
26&#45;&gt;add
30</title>
<path fill="none" stroke="#000000" d="M571.0638,-150.4533C587.3109,-144.6921 606.1232,-137.3364 613,-132 618.3032,-127.8848 623.1165,-122.6292 627.2842,-117.2274"/>
<polygon fill="#000000" stroke="#000000" points="630.3567,-118.9449 633.2795,-108.7613 624.644,-114.8995 630.3567,-118.9449"/>
<text text-anchor="middle" x="629.5" y="-120.8" font-family="Times,serif" font-size="14.00" fill="#000000">0</text>
</g>
<!-- eq
27&#45;&gt;if
26 -->
<g id="edge41" class="edge">
<title>eq
27&#45;&gt;if
26</title>
<path fill="none" stroke="#000000" d="M504.7093,-108.6746C510.0358,-116.0237 516.2333,-124.453 522,-132 522.065,-132.085 522.1301,-132.1702 522.1953,-132.2554"/>
<polygon fill="#000000" stroke="#000000" points="519.5974,-134.6158 528.5041,-140.3536 525.1195,-130.3139 519.5974,-134.6158"/>
<text text-anchor="middle" x="535" y="-120.8" font-family="Times,serif" font-size="14.00" fill="#000000">false</text>
</g>
<!-- zero
28 -->
<g id="node17" class="node">
<title>zero
28</title>
<polygon fill="none" stroke="#000000" points="464,-.5 464,-38.5 518,-38.5 518,-.5 464,-.5"/>
<text text-anchor="middle" x="491" y="-23.3" font-family="Times,serif" font-size="14.00" fill="#000000">zero</text>
<text text-anchor="middle" x="491" y="-8.3" font-family="Times,serif" font-size="14.00" fill="#000000">28</text>
</g>
<!-- eq
27&#45;&gt;zero
28 -->
<g id="edge39" class="edge">
<title>eq
27&#45;&gt;zero
28</title>
<path fill="none" stroke="#000000" d="M481.4499,-70.2979C480.4408,-67.5691 479.5746,-64.7536 479,-62 478.0212,-57.3094 477.7459,-54.9839 479.0838,-48.5426"/>
<polygon fill="#000000" stroke="#000000" points="482.515,-49.2433 481.4499,-38.7021 475.7089,-47.6067 482.515,-49.2433"/>
<text text-anchor="middle" x="482.5" y="-50.8" font-family="Times,serif" font-size="14.00" fill="#000000">1</text>
</g>
<!-- zero
28&#45;&gt;eq
27 -->
<g id="edge40" class="edge">
<title>zero
28&#45;&gt;eq
27</title>
<path fill="none" stroke="#000000" d="M491,-38.6047C491,-45.3157 491,-53.0168 491,-60.3631"/>
<polygon fill="#000000" stroke="#000000" points="487.5001,-60.3722 491,-70.3722 494.5001,-60.3722 487.5001,-60.3722"/>
<text text-anchor="middle" x="494.5" y="-50.8" font-family="Times,serif" font-size="14.00" fill="#000000">0</text>
</g>
<!-- sub
29&#45;&gt;if
26 -->
<g id="edge46" class="edge">
<title>sub
29&#45;&gt;if
26</title>
<path fill="none" stroke="#000000" d="M567.5695,-108.5671C566.7896,-114.4193 565.5848,-120.9216 561.8265,-130.9232"/>
<polygon fill="#000000" stroke="#000000" points="558.5741,-129.6297 558.0222,-140.2101 565.0517,-132.2832 558.5741,-129.6297"/>
<text text-anchor="middle" x="569.5" y="-120.8" font-family="Times,serif" font-size="14.00" fill="#000000">0</text>
</g>
<!-- one
31 -->
<g id="node20" class="node">
<title>one
31</title>
<polygon fill="none" stroke="#000000" points="572,-.5 572,-38.5 626,-38.5 626,-.5 572,-.5"/>
<text text-anchor="middle" x="599" y="-23.3" font-family="Times,serif" font-size="14.00" fill="#000000">one</text>
<text text-anchor="middle" x="599" y="-8.3" font-family="Times,serif" font-size="14.00" fill="#000000">31</text>
</g>
<!-- sub
29&#45;&gt;one
31 -->
<g id="edge44" class="edge">
<title>sub
29&#45;&gt;one
31</title>
<path fill="none" stroke="#000000" d="M567.5653,-70.1881C567.6791,-64.3096 568.3558,-57.8264 572.6165,-47.8874"/>
<polygon fill="#000000" stroke="#000000" points="575.8766,-49.1867 577.1047,-38.6632 569.5821,-46.124 575.8766,-49.1867"/>
<text text-anchor="middle" x="575.5" y="-50.8" font-family="Times,serif" font-size="14.00" fill="#000000">1</text>
</g>
<!-- add
30&#45;&gt;if
26 -->
<g id="edge49" class="edge">
<title>add
30&#45;&gt;if
26</title>
<path fill="none" stroke="#000000" d="M645.3823,-108.5508C644.9434,-116.7555 642.909,-125.8554 637,-132 624.7351,-144.7538 615.0321,-135.2049 598,-140 592.3452,-141.592 586.432,-143.4845 580.679,-145.4549"/>
<polygon fill="#000000" stroke="#000000" points="579.4798,-142.1665 571.2225,-148.8048 581.8173,-148.7647 579.4798,-142.1665"/>
<text text-anchor="middle" x="647.5" y="-120.8" font-family="Times,serif" font-size="14.00" fill="#000000">6</text>
</g>
<!-- one
31&#45;&gt;sub
29 -->
<g id="edge45" class="edge">
<title>one
31&#45;&gt;sub
29</title>
<path fill="none" stroke="#000000" d="M590.8123,-38.6047C587.8369,-45.5472 584.4075,-53.5491 581.1621,-61.1217"/>
<polygon fill="#000000" stroke="#000000" points="577.9199,-59.802 577.1976,-70.3722 584.3539,-62.5595 577.9199,-59.802"/>
<text text-anchor="middle" x="589.5" y="-50.8" font-family="Times,serif" font-size="14.00" fill="#000000">1</text>
</g>
<!-- if
32&#45;&gt;geo tailrec
13 -->
<g id="edge59" class="edge">
<title>if
32&#45;&gt;geo tailrec
13</title>
<path fill="none" stroke="#000000" d="M628.4995,-178.7109C625.1014,-187.1559 619.8485,-196.4065 612,-202 590.0397,-217.6508 519.4424,-224.5275 471.2935,-227.4536"/>
<polygon fill="#000000" stroke="#000000" points="470.8697,-223.972 461.0853,-228.0358 471.2684,-230.9606 470.8697,-223.972"/>
<text text-anchor="middle" x="627.5" y="-190.8" font-family="Times,serif" font-size="14.00" fill="#000000">6</text>
</g>
<!-- if
32&#45;&gt;if
32 -->
<g id="edge58" class="edge">
<title>if
32&#45;&gt;if
32</title>
<path fill="none" stroke="#000000" d="M661.2408,-165.8688C671.0239,-166.0057 679,-163.8828 679,-159.5 679,-156.8292 676.0382,-154.9976 671.5105,-154.0052"/>
<polygon fill="#000000" stroke="#000000" points="671.5016,-150.4919 661.2408,-153.1312 670.9079,-157.4667 671.5016,-150.4919"/>
<text text-anchor="middle" x="682.5" y="-155.8" font-family="Times,serif" font-size="14.00" fill="#000000">6</text>
</g>
<!-- eq
33 -->
<g id="node22" class="node">
<title>eq
33</title>
<polygon fill="none" stroke="#000000" points="698,-70.5 698,-108.5 752,-108.5 752,-70.5 698,-70.5"/>
<text text-anchor="middle" x="725" y="-93.3" font-family="Times,serif" font-size="14.00" fill="#000000">eq</text>
<text text-anchor="middle" x="725" y="-78.3" font-family="Times,serif" font-size="14.00" fill="#000000">33</text>
</g>
<!-- if
32&#45;&gt;eq
33 -->
<g id="edge54" class="edge">
<title>if
32&#45;&gt;eq
33</title>
<path fill="none" stroke="#000000" d="M661.1895,-145.5505C668.2014,-141.5206 675.5772,-136.8817 682,-132 688.2047,-127.284 694.4275,-121.7285 700.1359,-116.2171"/>
<polygon fill="#000000" stroke="#000000" points="702.9484,-118.3548 707.5512,-108.8119 698.0021,-113.4016 702.9484,-118.3548"/>
<text text-anchor="middle" x="701.5" y="-120.8" font-family="Times,serif" font-size="14.00" fill="#000000">0</text>
</g>
<!-- eq
33&#45;&gt;if
32 -->
<g id="edge57" class="edge">
<title>eq
33&#45;&gt;if
32</title>
<path fill="none" stroke="#000000" d="M721.46,-108.8124C719.117,-116.8712 715.2707,-125.7831 709,-132 698.7974,-142.1151 684.5706,-148.547 671.2472,-152.6202"/>
<polygon fill="#000000" stroke="#000000" points="670.0608,-149.315 661.3164,-155.2972 671.8828,-156.0737 670.0608,-149.315"/>
<text text-anchor="middle" x="729" y="-120.8" font-family="Times,serif" font-size="14.00" fill="#000000">true</text>
</g>
<!-- zero
34 -->
<g id="node23" class="node">
<title>zero
34</title>
<polygon fill="none" stroke="#000000" points="698,-.5 698,-38.5 752,-38.5 752,-.5 698,-.5"/>
<text text-anchor="middle" x="725" y="-23.3" font-family="Times,serif" font-size="14.00" fill="#000000">zero</text>
<text text-anchor="middle" x="725" y="-8.3" font-family="Times,serif" font-size="14.00" fill="#000000">34</text>
</g>
<!-- eq
33&#45;&gt;zero
34 -->
<g id="edge55" class="edge">
<title>eq
33&#45;&gt;zero
34</title>
<path fill="none" stroke="#000000" d="M715.4499,-70.2979C714.4408,-67.5691 713.5746,-64.7536 713,-62 712.0212,-57.3094 711.7459,-54.9839 713.0838,-48.5426"/>
<polygon fill="#000000" stroke="#000000" points="716.515,-49.2433 715.4499,-38.7021 709.7089,-47.6067 716.515,-49.2433"/>
<text text-anchor="middle" x="716.5" y="-50.8" font-family="Times,serif" font-size="14.00" fill="#000000">0</text>
</g>
<!-- zero
34&#45;&gt;eq
33 -->
<g id="edge56" class="edge">
<title>zero
34&#45;&gt;eq
33</title>
<path fill="none" stroke="#000000" d="M725,-38.6047C725,-45.3157 725,-53.0168 725,-60.3631"/>
<polygon fill="#000000" stroke="#000000" points="721.5001,-60.3722 725,-70.3722 728.5001,-60.3722 721.5001,-60.3722"/>
<text text-anchor="middle" x="728.5" y="-50.8" font-family="Times,serif" font-size="14.00" fill="#000000">0</text>
</g>
</g>
</svg>
